SplineFontDB: 3.2
FontName: D-DIN-PRO-Medium
FullName: D-DIN-PRO-Medium
FamilyName: D-DIN-PRO
Weight: Medium
Copyright: Copyright (c) CyberFei. All rights reserved
Version: 1.1.0
ItalicAngle: 0
UnderlinePosition: -150
UnderlineWidth: 50
Ascent: 831
Descent: 169
InvalidEm: 0
sfntRevision: 0x00010000
LayerCount: 2
Layer: 0 0 "Back" 1
Layer: 1 0 "Fore" 0
XUID: [1021 868 -1451673819 30355]
StyleMap: 0x0040
FSType: 4
OS2Version: 3
OS2_WeightWidthSlopeOnly: 0
OS2_UseTypoMetrics: 0
CreationTime: 1462909513
ModificationTime: 1778060076
PfmFamily: 17
TTFWeight: 500
TTFWidth: 5
LineGap: 86
VLineGap: 0
Panose: 2 11 5 4 3 2 2 3 2 4
OS2TypoAscent: 831
OS2TypoAOffset: 0
OS2TypoDescent: -169
OS2TypoDOffset: 0
OS2TypoLinegap: 86
OS2WinAscent: 902
OS2WinAOffset: 0
OS2WinDescent: 184
OS2WinDOffset: 0
HheadAscent: 831
HheadAOffset: 0
HheadDescent: -169
HheadDOffset: 0
OS2SubXSize: 650
OS2SubYSize: 600
OS2SubXOff: 0
OS2SubYOff: 75
OS2SupXSize: 650
OS2SupYSize: 600
OS2SupXOff: 0
OS2SupYOff: 350
OS2StrikeYSize: 50
OS2StrikeYPos: 304
OS2CapHeight: 690
OS2XHeight: 507
OS2Vendor: 'MONO'
OS2CodePages: 20000001.00000000
OS2UnicodeRanges: 8000006f.4000000a.00000000.00000000
Lookup: 1 0 0 "'rtla' Right to Left Alternates lookup 0" { "'rtla' Right to Left Alternates lookup 0 subtable"  } ['rtla' ('DFLT' <'dflt' > ) ]
Lookup: 1 0 0 "'sups' Superscript lookup 1" { "'sups' Superscript lookup 1 subtable" ("superior") } ['sups' ('DFLT' <'dflt' > ) ]
Lookup: 4 0 0 "'frac' Diagonal Fractions lookup 2" { "'frac' Diagonal Fractions lookup 2 subtable"  } ['frac' ('DFLT' <'dflt' > ) ]
Lookup: 4 0 0 "'dlig' Discretionary Ligatures in Latin lookup 3" { "'dlig' Discretionary Ligatures in Latin lookup 3 subtable"  } ['dlig' ('latn' <'dflt' > ) ]
Lookup: 4 0 1 "'liga' Standard Ligatures in Latin lookup 4" { "'liga' Standard Ligatures in Latin lookup 4 subtable"  } ['liga' ('latn' <'dflt' > ) ]

StartChar: .notdef
Encoding: 65536 -1 0
Width: 600
GlyphClass: 1
Flags: MW
HStem: 0.645508 53.3496<155.68 454.439 155.68 507.789> 636.965 53.3506<155.68 454.439 155.68 155.68>
VStem: 102.329 53.3506<53.9951 53.9951 53.9951 636.965> 454.439 53.3496<53.9951 636.965 636.965 636.965>
LayerCount: 2
Fore
SplineSet
102.329101562 690.315429688 m 1
 507.7890625 690.315429688 l 1
 507.7890625 0.6455078125 l 1
 102.329101562 0.6455078125 l 1
 102.329101562 690.315429688 l 1
155.6796875 53.9951171875 m 1
 454.439453125 53.9951171875 l 1
 454.439453125 636.96484375 l 1
 155.6796875 636.96484375 l 1
 155.6796875 53.9951171875 l 1
EndSplineSet
EndChar

StartChar: exclam
Encoding: 33 33 3
Width: 248
GlyphClass: 2
Flags: MW
HStem: 0.645508 110.579<77.1094 183.81 77.1094 183.81> 670.315 20G<79.7266 182.162 182.162 182.162>
VStem: 77.1094 106.7<0.645508 111.225 0.645508 111.225> 93.8838 74.1211<190.765 190.765>
LayerCount: 2
Fore
SplineSet
182.162109375 690.315429688 m 1xd0
 168.004882812 190.764648438 l 1
 93.8837890625 190.764648438 l 1
 79.7265625 690.315429688 l 1
 182.162109375 690.315429688 l 1xd0
77.109375 111.224609375 m 1xe0
 183.809570312 111.224609375 l 1
 183.809570312 0.6455078125 l 1
 77.109375 0.6455078125 l 1
 77.109375 111.224609375 l 1xe0
EndSplineSet
EndChar

StartChar: quotedbl
Encoding: 34 34 4
Width: 315
GlyphClass: 2
Flags: MW
HStem: 446.845 243.471<55.7695 140.159 55.7695 140.159 55.7695 187.689 187.689 272.079>
VStem: 55.7695 84.3896<446.845 690.315 446.845 690.315> 187.689 84.3896<446.845 690.315 446.845 690.315>
LayerCount: 2
Fore
SplineSet
55.76953125 690.315429688 m 1
 140.159179688 690.315429688 l 1
 140.159179688 446.844726562 l 1
 55.76953125 446.844726562 l 1
 55.76953125 690.315429688 l 1
187.689453125 690.315429688 m 1
 272.079101562 690.315429688 l 1
 272.079101562 446.844726562 l 1
 187.689453125 446.844726562 l 1
 187.689453125 690.315429688 l 1
EndSplineSet
EndChar

StartChar: numbersign
Encoding: 35 35 5
Width: 514
GlyphClass: 2
Flags: MW
HStem: 0.645508 21G<78.5947 157.341 78.5947 78.5947 270.654 349.401 270.654 270.654> 215.015 74.6904<28.6094 106.725 28.6094 117.153 194.929 298.784 28.6094 185.471 386.988 472.869> 417.745 73.7197<51.8896 133.891 51.8896 143.352 51.8896 211.666 221.13 324.98 413.189 496.149> 670.315 20G<169.542 247.319 247.319 247.319 360.632 439.38 439.38 439.38>
LayerCount: 2
Fore
SplineSet
496.149414062 491.46484375 m 1
 496.149414062 417.745117188 l 1
 403.725585938 417.745117188 l 1
 386.98828125 289.705078125 l 1
 472.869140625 289.705078125 l 1
 472.869140625 215.014648438 l 1
 377.53125 215.014648438 l 1
 349.401367188 0.6455078125 l 1
 270.654296875 0.6455078125 l 1
 298.784179688 215.014648438 l 1
 185.470703125 215.014648438 l 1
 157.340820312 0.6455078125 l 1
 78.5947265625 0.6455078125 l 1
 106.724609375 215.014648438 l 1
 28.609375 215.014648438 l 1
 28.609375 289.705078125 l 1
 117.153320312 289.705078125 l 1
 133.890625 417.745117188 l 1
 51.8896484375 417.745117188 l 1
 51.8896484375 491.46484375 l 1
 143.3515625 491.46484375 l 1
 169.541992188 690.315429688 l 1
 247.319335938 690.315429688 l 1
 221.129882812 491.46484375 l 1
 334.44140625 491.46484375 l 1
 360.631835938 690.315429688 l 1
 439.379882812 690.315429688 l 1
 413.189453125 491.46484375 l 1
 496.149414062 491.46484375 l 1
308.243164062 289.705078125 m 1
 324.98046875 417.745117188 l 1
 211.666015625 417.745117188 l 1
 194.928710938 289.705078125 l 1
 308.243164062 289.705078125 l 1
EndSplineSet
EndChar

StartChar: dollar
Encoding: 36 36 6
Width: 460
GlyphClass: 2
Flags: MW
HStem: 29.041 83.8008<191.569 191.57> 298.266 87.7695<268.199 268.2> 576.092 82.8418<191.569 191.57>
VStem: 47.0391 88.2715<464.707 507.112> 191.569 76.6309<112.842 298.266> 328.092 87.5078<473.034 473.034> 335.129 88.2705<184.813 231.728>
LayerCount: 2
Fore
SplineSet
423.399414062 210.650390625 m 0xfa
 423.399414062 158.975585938 409.00390625 116.3984375 379.470703125 84.431640625 c 0
 351.83984375 54.5244140625 314.34375 36.4921875 268.200195312 29.9599609375 c 1
 268.200195312 -56.5849609375 l 1
 191.5703125 -56.5849609375 l 1
 191.5703125 29.041015625 l 1
 147.310546875 35.625 47.5107421875 62.78125 36.3984375 212.798828125 c 2
 35.587890625 223.745117188 l 1
 122.754882812 223.745117188 l 1
 125.900390625 190.403320312 131.584960938 130.145507812 191.569335938 112.841796875 c 1
 191.569335938 314.43359375 l 1
 145.610351562 323.831054688 109.631835938 341.453125 84.7041015625 368.112304688 c 0
 59.126953125 395.465820312 47.0390625 434.056640625 47.0390625 482.25 c 0
 47.0390625 531.974609375 60.7744140625 573.333007812 88.900390625 604.931640625 c 0
 115.037109375 634.294921875 149.64453125 652.28125 191.569335938 658.93359375 c 1
 191.569335938 739.783203125 l 1
 268.19921875 739.783203125 l 1
 268.19921875 659.85546875 l 1
 308.166015625 653.287109375 341.392578125 636.3515625 366.83984375 608.973632812 c 0
 407.536132812 565.185546875 412.7265625 505.869140625 415.599609375 473.034179688 c 1
 328.091796875 473.034179688 l 1xfc
 325.749023438 504.831054688 321.7421875 559.1953125 268.19921875 576.75390625 c 1
 268.19921875 386.03515625 l 1
 291.782226562 381.873046875 346.994140625 372.12890625 385.41796875 328.966796875 c 0
 411.159179688 300.052734375 423.399414062 260.127929688 423.399414062 210.650390625 c 0xfa
191.5703125 576.091796875 m 1
 167.501953125 568.8828125 135.310546875 547.880859375 135.310546875 487.099609375 c 0
 135.310546875 442.313476562 152.955078125 416.234375 191.5703125 402.768554688 c 1
 191.5703125 576.091796875 l 1
268.200195312 111.216796875 m 1
 294.98046875 117.125 335.12890625 134.76171875 335.12890625 205.799804688 c 0xfa
 335.12890625 257.655273438 316.19921875 283.67578125 268.200195312 298.265625 c 1
 268.200195312 111.216796875 l 1
133.854492188 678.190429688 m 1024
EndSplineSet
EndChar

StartChar: percent
Encoding: 37 37 7
Width: 825
GlyphClass: 2
Flags: MW
HStem: -5.17578 76.6299<652.117 669.411 652.117 703.652> 259.635 76.6299<164.207 181.5 164.207 215.742> 354.693 77.6006<652.071 669.058> 619.504 77.6016<164.161 181.147>
VStem: 45.0996 86.3301<413.38 416.289 416.289 542.389> 213.879 87.3008<416.289 542.389 542.389 548.21> 533.009 86.3301<148.569 151.479 151.479 277.578> 701.789 87.2998<151.479 277.578 277.578 283.399>
LayerCount: 2
Fore
SplineSet
172.654296875 259.634765625 m 0
 96.041015625 259.634765625 45.099609375 299.827148438 45.099609375 413.379882812 c 2
 45.099609375 548.209960938 l 2
 45.099609375 582.874023438 48.2421875 697.10546875 172.654296875 697.10546875 c 0
 263.265625 697.10546875 301.1796875 642.810546875 301.1796875 548.209960938 c 2
 301.1796875 413.379882812 l 2
 301.1796875 310.801757812 258.830078125 259.634765625 172.654296875 259.634765625 c 0
561.372070312 690.315429688 m 1
 645.638671875 690.315429688 l 1
 272.817382812 0.6455078125 l 1
 188.549804688 0.6455078125 l 1
 561.372070312 690.315429688 l 1
213.87890625 416.2890625 m 2
 213.87890625 542.388671875 l 2
 213.87890625 572.701171875 209.921875 593.568359375 203.969726562 604.4375 c 0
 198.645507812 614.16015625 189.640625 619.50390625 172.654296875 619.50390625 c 0
 155.66796875 619.50390625 146.663085938 614.16015625 141.338867188 604.4375 c 0
 135.38671875 593.568359375 131.4296875 572.701171875 131.4296875 542.388671875 c 2
 131.4296875 416.2890625 l 2
 131.4296875 384.65625 135.404296875 362.912109375 141.38671875 351.728515625 c 0
 146.76953125 341.666015625 155.759765625 336.264648438 172.654296875 336.264648438 c 0
 190.346679688 336.264648438 199.314453125 341.77734375 204.321289062 351.563476562 c 0
 210.0703125 362.801757812 213.87890625 384.635742188 213.87890625 416.2890625 c 2
660.564453125 -5.17578125 m 0
 583.951171875 -5.17578125 533.008789062 35.015625 533.008789062 148.569335938 c 2
 533.008789062 283.399414062 l 2
 533.008789062 318.063476562 536.151367188 432.293945312 660.564453125 432.293945312 c 0
 751.17578125 432.293945312 789.088867188 378 789.088867188 283.399414062 c 2
 789.088867188 148.569335938 l 2
 789.088867188 45.9912109375 746.740234375 -5.17578125 660.564453125 -5.17578125 c 0
701.7890625 151.478515625 m 2
 701.7890625 277.578125 l 2
 701.7890625 307.889648438 697.83203125 328.7578125 691.879882812 339.626953125 c 0
 686.555664062 349.348632812 677.55078125 354.693359375 660.564453125 354.693359375 c 0
 643.578125 354.693359375 634.573242188 349.348632812 629.249023438 339.626953125 c 0
 623.295898438 328.7578125 619.338867188 307.889648438 619.338867188 277.578125 c 2
 619.338867188 151.478515625 l 2
 619.338867188 119.845703125 623.314453125 98.1005859375 629.296875 86.91796875 c 0
 634.678710938 76.8544921875 643.669921875 71.4541015625 660.564453125 71.4541015625 c 0
 678.256835938 71.4541015625 687.223632812 76.966796875 692.231445312 86.7529296875 c 0
 697.979492188 97.9892578125 701.7890625 119.82421875 701.7890625 151.478515625 c 2
EndSplineSet
EndChar

StartChar: ampersand
Encoding: 38 38 8
Width: 597
GlyphClass: 2
Flags: MW
HStem: -9.05469 81.4795<223.234 256.673 223.234 267.572> 0.645508 83.4199<484.144 546.59 514.095 546.59 514.095 546.59> 621.445 78.5693<249.163 268.806>
VStem: 61.5889 86.332<155.928 193.083 155.928 201.479> 108.149 86.3311<539.459 563.052 539.459 571.671> 322.519 85.3604<543.643 563.69>
LayerCount: 2
Fore
SplineSet
407.87890625 552.08984375 m 0xac
 407.87890625 488.00390625 376.663085938 441.52734375 297.7578125 371.04296875 c 1
 404.765625 218.297851562 l 1
 472.755859375 308.951171875 l 1
 533.704101562 255.783203125 l 1
 453.900390625 148.392578125 l 1
 483.62890625 105.921875 l 2
 495.067382812 89.66796875 505.314453125 84.0654296875 514.094726562 84.0654296875 c 2
 546.58984375 84.0654296875 l 1
 546.58984375 0.6455078125 l 1
 503.422851562 0.6455078125 l 2x6c
 464.865234375 0.6455078125 445.013671875 13.0732421875 420.412109375 48.607421875 c 0
 420.374023438 48.662109375 408.295898438 65.73828125 399.98046875 77.494140625 c 1
 352.022460938 21.177734375 301.37890625 -9.0546875 233.764648438 -9.0546875 c 0
 180.616210938 -9.0546875 137.68359375 7.142578125 106.981445312 40.287109375 c 0
 76.5126953125 73.1806640625 61.5888671875 116.564453125 61.5888671875 168.940429688 c 0xb4
 61.5888671875 234.017578125 90.67578125 295.481445312 186.396484375 382.958984375 c 1
 156.694335938 426.59765625 136.564453125 458.736328125 125.735351562 480.076171875 c 0
 114.114257812 502.977539062 108.149414062 526.416992188 108.149414062 550.150390625 c 0
 108.149414062 593.19140625 122.4140625 629.603515625 150.948242188 657.790039062 c 0
 179.452148438 685.946289062 215.974609375 700.014648438 258.984375 700.014648438 c 0
 301.990234375 700.014648438 338.25 685.938476562 366.139648438 657.700195312 c 0
 393.930664062 629.5625 407.87890625 593.862304688 407.87890625 552.08984375 c 0xac
194.48046875 552.08984375 m 0
 194.48046875 526.828125 204.388671875 505.8984375 250.119140625 439.3515625 c 1
 279.244140625 465.811523438 298.501953125 486.814453125 307.587890625 501.24609375 c 0
 317.595703125 517.140625 322.518554688 534.2265625 322.518554688 553.059570312 c 0
 322.518554688 574.321289062 316.4921875 590.424804688 304.88671875 602.859375 c 0
 293.3359375 615.235351562 278.627929688 621.4453125 258.983398438 621.4453125 c 0
 239.341796875 621.4453125 224.413085938 615.2265625 212.51171875 602.771484375 c 0
 200.672851562 590.381835938 194.48046875 574.014648438 194.48046875 552.08984375 c 0
233.936523438 315.627929688 m 1
 169.091796875 256.19921875 147.920898438 214.317382812 147.920898438 171.849609375 c 0
 147.920898438 140.006835938 156.241210938 116.092773438 171.9765625 98.640625 c 0
 187.603515625 81.3095703125 208.821289062 72.4248046875 237.646484375 72.4248046875 c 0xb4
 275.69921875 72.4248046875 305.653320312 89.5341796875 351.1015625 146.982421875 c 1
 233.936523438 315.627929688 l 1
EndSplineSet
EndChar

StartChar: quotesingle
Encoding: 39 39 9
Width: 182
GlyphClass: 2
Flags: MW
HStem: 446.845 243.471<55.7695 140.159 55.7695 140.159>
VStem: 55.7695 84.3896<446.845 690.315 446.845 690.315>
LayerCount: 2
Fore
SplineSet
55.76953125 690.315429688 m 1
 140.159179688 690.315429688 l 1
 140.159179688 446.844726562 l 1
 55.76953125 446.844726562 l 1
 55.76953125 690.315429688 l 1
EndSplineSet
EndChar

StartChar: parenleft
Encoding: 40 40 10
Width: 295
GlyphClass: 2
Flags: MW
VStem: 61.5889 87.3008<286.564 413.352 286.564 429.963>
LayerCount: 2
Fore
SplineSet
61.5888671875 328.990234375 m 0
 61.5888671875 530.935546875 140.192382812 671.467773438 181.50390625 738.815429688 c 1
 253.305664062 738.815429688 l 1
 245.752929688 724.01171875 l 2
 200.887695312 636.075195312 148.889648438 497.713867188 148.889648438 328.990234375 c 0
 148.889648438 244.138671875 162.4453125 93.921875 245.713867188 -65.955078125 c 2
 253.462890625 -80.8349609375 l 1
 180.477539062 -80.8349609375 l 1
 139.424804688 -12.6455078125 61.5888671875 128.997070312 61.5888671875 328.990234375 c 0
EndSplineSet
Substitution2: "'rtla' Right to Left Alternates lookup 0 subtable" parenright
EndChar

StartChar: parenright
Encoding: 41 41 11
Width: 295
GlyphClass: 2
Flags: MW
VStem: 160.529 86.3311<240.56 359.908>
LayerCount: 2
Fore
SplineSet
160.529296875 328.990234375 m 0
 160.529296875 390.825195312 153.911132812 545.23046875 62.6962890625 724.01171875 c 2
 55.1435546875 738.815429688 l 1
 126.915039062 738.815429688 l 1
 168.095703125 672.37109375 246.860351562 532.94921875 246.860351562 328.990234375 c 0
 246.860351562 128.720703125 168.782226562 -13.0478515625 127.971679688 -80.8349609375 c 1
 54.986328125 -80.8349609375 l 1
 62.7353515625 -65.955078125 l 2
 102.5234375 10.4365234375 160.529296875 152.12890625 160.529296875 328.990234375 c 0
EndSplineSet
Substitution2: "'rtla' Right to Left Alternates lookup 0 subtable" parenleft
EndChar

StartChar: asterisk
Encoding: 42 42 12
Width: 383
GlyphClass: 2
Flags: MW
HStem: 403.195 287.12<165.379 229.399 165.379 229.399>
VStem: 165.379 64.0205<403.195 496.557 496.557 496.557 602.773 690.315>
LayerCount: 2
Fore
SplineSet
229.399414062 403.1953125 m 1
 165.37890625 403.1953125 l 1
 165.37890625 496.556640625 l 1
 88.470703125 451.842773438 l 1
 57.830078125 504.37109375 l 1
 136.670898438 550.0625 l 1
 57.7861328125 594.883789062 l 1
 88.470703125 647.487304688 l 1
 165.37890625 602.7734375 l 1
 165.37890625 690.315429688 l 1
 229.399414062 690.315429688 l 1
 229.399414062 602.670898438 l 1
 307.489257812 647.549804688 l 1
 336.806640625 594.778320312 l 1
 258.107421875 550.0625 l 1
 336.765625 504.4765625 l 1
 307.489257812 451.780273438 l 1
 229.399414062 496.659179688 l 1
 229.399414062 403.1953125 l 1
EndSplineSet
EndChar

StartChar: plus
Encoding: 43 43 13
Width: 515
GlyphClass: 2
Flags: MW
HStem: 236.355 84.3896<59.6494 220.669 59.6494 220.669 305.06 466.079>
VStem: 220.669 84.3906<75.335 236.355 75.335 236.355 320.745 481.765>
LayerCount: 2
Fore
SplineSet
305.059570312 236.35546875 m 1
 305.059570312 75.3349609375 l 1
 220.668945312 75.3349609375 l 1
 220.668945312 236.35546875 l 1
 59.6494140625 236.35546875 l 1
 59.6494140625 320.745117188 l 1
 220.668945312 320.745117188 l 1
 220.668945312 481.764648438 l 1
 305.059570312 481.764648438 l 1
 305.059570312 320.745117188 l 1
 466.079101562 320.745117188 l 1
 466.079101562 236.35546875 l 1
 305.059570312 236.35546875 l 1
EndSplineSet
EndChar

StartChar: comma
Encoding: 44 44 14
Width: 182
GlyphClass: 2
Flags: MW
HStem: -145.599 256.823<55.7695 140.159>
VStem: 55.7695 84.3896<-66.3232 111.225 -66.3232 111.225 -66.3232 111.225>
LayerCount: 2
Fore
SplineSet
55.76953125 111.224609375 m 1
 140.159179688 111.224609375 l 1
 140.159179688 -66.3232421875 l 1
 55.76953125 -145.598632812 l 1
 55.76953125 111.224609375 l 1
EndSplineSet
EndChar

StartChar: hyphen
Encoding: 45 45 15
Width: 398
GlyphClass: 2
Flags: MW
HStem: 305.225 84.3906<61.5889 348.709 61.5889 348.709>
VStem: 61.5889 287.12<305.225 389.615 305.225 389.615>
LayerCount: 2
Fore
SplineSet
61.5888671875 389.615234375 m 1
 348.708984375 389.615234375 l 1
 348.708984375 305.224609375 l 1
 61.5888671875 305.224609375 l 1
 61.5888671875 389.615234375 l 1
EndSplineSet
EndChar

StartChar: period
Encoding: 46 46 16
Width: 203
GlyphClass: 2
Flags: MW
HStem: 0.645508 109.609<55.7695 161.499 55.7695 161.499>
VStem: 55.7695 105.729<0.645508 110.255 0.645508 110.255>
LayerCount: 2
Fore
SplineSet
55.76953125 110.254882812 m 1
 161.499023438 110.254882812 l 1
 161.499023438 0.6455078125 l 1
 55.76953125 0.6455078125 l 1
 55.76953125 110.254882812 l 1
EndSplineSet
EndChar

StartChar: slash
Encoding: 47 47 17
Width: 397
GlyphClass: 2
Flags: MW
HStem: 670.315 20G<271.815 351.32 351.32 351.32>
VStem: 58.0078 293.312
LayerCount: 2
Fore
SplineSet
271.815429688 690.315429688 m 1
 351.3203125 690.315429688 l 1
 137.512695312 -9.0546875 l 1
 58.0078125 -9.0546875 l 1
 271.815429688 690.315429688 l 1
EndSplineSet
EndChar

StartChar: zero
Encoding: 48 48 18
Width: 495
GlyphClass: 2
Flags: MW
HStem: -9.05469 84.3896<235.558 270.765 235.558 338.875> 615.625 84.3896<235.558 270.764>
VStem: 68.3789 91.1797<215.5 229.08 229.08 461.88> 347.738 91.1807<229.08 461.88 461.88 479.34>
LayerCount: 2
Fore
SplineSet
253.1640625 -9.0546875 m 0
 154.25390625 -9.0546875 68.37890625 41.1474609375 68.37890625 215.5 c 2
 68.37890625 479.33984375 l 2
 68.37890625 553.8203125 82.8212890625 700.014648438 253.1640625 700.014648438 c 0
 352.407226562 700.014648438 438.918945312 650.831054688 438.918945312 479.33984375 c 2
 438.918945312 215.5 l 2
 438.918945312 140.004882812 424.5859375 -9.0546875 253.1640625 -9.0546875 c 0
347.73828125 229.080078125 m 2
 347.73828125 461.879882812 l 2
 347.73828125 519.931640625 339.399414062 560.17578125 325.092773438 582.494140625 c 0
 311.146484375 604.249023438 288.365234375 615.625 253.163085938 615.625 c 0
 217.953125 615.625 195.389648438 604.255859375 181.76953125 582.573242188 c 0
 167.739257812 560.23828125 159.55859375 519.943359375 159.55859375 461.879882812 c 2
 159.55859375 229.080078125 l 2
 159.55859375 171.016601562 167.739257812 130.721679688 181.76953125 108.38671875 c 0
 195.389648438 86.7041015625 217.953125 75.3349609375 253.163085938 75.3349609375 c 0
 288.366210938 75.3349609375 311.147460938 86.7109375 325.09375 108.465820312 c 0
 339.400390625 130.784179688 347.73828125 171.028320312 347.73828125 229.080078125 c 2
EndSplineSet
EndChar

StartChar: one
Encoding: 49 49 19
Width: 335
GlyphClass: 2
Flags: MW
HStem: 0.645508 21G<168.289 258.499 168.289 168.289> 670.315 20G<174.035 258.499 258.499 258.499>
VStem: 168.289 90.21<0.645508 578.315 578.315 578.315>
LayerCount: 2
Fore
SplineSet
52.859375 491.985351562 m 1
 52.859375 596.865234375 l 1
 174.03515625 690.315429688 l 1
 258.499023438 690.315429688 l 1
 258.499023438 0.6455078125 l 1
 168.2890625 0.6455078125 l 1
 168.2890625 578.315429688 l 1
 52.859375 491.985351562 l 1
EndSplineSet
Substitution2: "'sups' Superscript lookup 1 subtable" uni00B9
EndChar

StartChar: two
Encoding: 50 50 20
Width: 471
GlyphClass: 2
Flags: MW
HStem: 0.645508 83.4199<178.546 421.459 178.546 421.459> 616.594 83.4199<221.625 253.707>
VStem: 61.5879 90.21<490.494 518.139 490.494 522.02 490.494 548.298> 329.309 92.1504<507.47 522.021 522.021 523.959>
LayerCount: 2
Fore
SplineSet
241.5234375 700.013671875 m 0
 350.497070312 700.013671875 421.458984375 623.532226562 421.458984375 523.958984375 c 2
 421.458984375 507.46875 l 2
 421.458984375 465.646484375 409.859375 417.15625 361.374023438 347.336914062 c 2
 178.545898438 84.0654296875 l 1
 421.458984375 84.0654296875 l 1
 421.458984375 0.6455078125 l 1
 61.5888671875 0.6455078125 l 1
 61.5888671875 71.2646484375 l 1
 288.415039062 395.861328125 l 2
 316.109375 436.79296875 329.30859375 474.018554688 329.30859375 507.469726562 c 2
 329.30859375 522.020507812 l 2
 329.30859375 552.44921875 320.934570312 575.080078125 305.006835938 591.577148438 c 0
 289.041015625 608.112304688 267.830078125 616.59375 239.583007812 616.59375 c 0
 203.666992188 616.59375 151.797851562 602.065429688 151.797851562 518.138671875 c 2
 151.797851562 490.494140625 l 1
 61.587890625 490.494140625 l 1
 61.587890625 522.01953125 l 2
 61.587890625 574.576171875 77.8076171875 618.114257812 110.647460938 650.954101562 c 0
 143.543945312 683.850585938 187.7421875 700.013671875 241.5234375 700.013671875 c 0
EndSplineSet
Substitution2: "'sups' Superscript lookup 1 subtable" uni00B2
EndChar

StartChar: three
Encoding: 51 51 21
Width: 497
GlyphClass: 2
Flags: MW
HStem: -9.05469 83.417<235.023 266.333 235.023 277.512> 315.894 84.3896<200.3 244.436 244.436 245.405 200.3 244.436> 616.593 83.4199<233.79 262.748>
VStem: 63.5303 91.1797<161.177 164.087 164.087 186.882 149.63 186.882> 71.29 88.2705<501.163 526.868 501.163 528.809 501.163 554.443> 339.01 90.21<500.678 502.618 502.618 520.078 520.078 523.958 485.622 535.288> 349.681 91.1787<180.578 184.459 184.459 205.798 205.798 207.739 155.617 223.289>
LayerCount: 2
Fore
SplineSet
357.47265625 365.765625 m 1xec
 386.712890625 350.241210938 440.859375 307.961914062 440.859375 207.739257812 c 2
 440.859375 184.458984375 l 2
 440.859375 126.774414062 423.3828125 79.34765625 387.919921875 43.884765625 c 0
 352.5078125 8.47265625 305.740234375 -9.0546875 249.284179688 -9.0546875 c 0
 193.796875 -9.0546875 148.341796875 5.9306640625 114.401367188 36.75390625 c 0
 80.3837890625 67.6474609375 63.5302734375 109.770507812 63.5302734375 161.176757812 c 2
 63.5302734375 186.881835938 l 1
 154.709960938 186.881835938 l 1
 154.709960938 164.086914062 l 2
 154.709960938 135.172851562 163.357421875 113.892578125 180.08203125 98.302734375 c 0
 196.91796875 82.6083984375 219.791992188 74.3623046875 250.254882812 74.3623046875 c 0
 282.412109375 74.3623046875 306.08984375 83.9833984375 323.280273438 102.606445312 c 0
 340.609375 121.380859375 349.680664062 146.86328125 349.680664062 180.578125 c 2
 349.680664062 205.797851562 l 2xf2
 349.680664062 240.779296875 340.149414062 267.190429688 321.889648438 286.609375 c 0
 303.72265625 305.9296875 278.870117188 315.893554688 245.405273438 315.893554688 c 2
 200.299804688 315.893554688 l 1
 200.299804688 400.283203125 l 1
 244.435546875 400.283203125 l 2
 274.575195312 400.283203125 296.970703125 409.515625 313.571289062 427.547851562 c 0
 330.345703125 445.768554688 339.009765625 469.655273438 339.009765625 500.677734375 c 2
 339.009765625 520.078125 l 2
 339.009765625 550.497070312 330.638671875 573.536132812 314.588867188 590.732421875 c 0
 298.635742188 607.82421875 277.180664062 616.592773438 248.315429688 616.592773438 c 0
 219.263671875 616.592773438 198.08984375 608.306640625 182.896484375 592.55078125 c 0
 167.556640625 576.642578125 159.560546875 555.291015625 159.560546875 526.868164062 c 2
 159.560546875 501.163085938 l 1
 71.2900390625 501.163085938 l 1
 71.2900390625 528.80859375 l 2
 71.2900390625 580.078125 87.201171875 622.240234375 119.5 653.49609375 c 0
 151.84765625 684.80078125 195.993164062 700.012695312 250.254882812 700.012695312 c 0
 303.982421875 700.012695312 348.001953125 684.219726562 380.60546875 651.961914062 c 0
 413.18359375 619.731445312 429.219726562 576.484375 429.219726562 523.958007812 c 2
 429.219726562 502.618164062 l 2
 429.219726562 468.625976562 420.99609375 438.428710938 404.305664062 412.696289062 c 0
 391.776367188 393.379882812 376.090820312 377.657226562 357.47265625 365.765625 c 1xec
EndSplineSet
Substitution2: "'sups' Superscript lookup 1 subtable" uni00B3
EndChar

StartChar: four
Encoding: 52 52 22
Width: 501
GlyphClass: 2
Flags: MW
HStem: 0.645508 21G<300.209 391.39 300.209 300.209> 131.595 84.3906<145.348 300.209 145.348 300.209 391.39 464.14> 670.315 20G<253.204 346.138 346.138 346.138>
VStem: 300.209 91.1807<0.645508 131.595 0.645508 131.595 215.985 398.345>
LayerCount: 2
Fore
SplineSet
391.389648438 215.985351562 m 1
 464.139648438 215.985351562 l 1
 464.139648438 131.594726562 l 1
 391.389648438 131.594726562 l 1
 391.389648438 0.6455078125 l 1
 300.208984375 0.6455078125 l 1
 300.208984375 131.594726562 l 1
 48.9794921875 131.594726562 l 1
 48.9794921875 207.87109375 l 1
 253.204101562 690.315429688 l 1
 346.137695312 690.315429688 l 1
 145.34765625 215.985351562 l 1
 300.208984375 215.985351562 l 1
 300.208984375 398.344726562 l 1
 391.389648438 398.344726562 l 1
 391.389648438 215.985351562 l 1
EndSplineSet
EndChar

StartChar: five
Encoding: 53 53 23
Width: 487
GlyphClass: 2
Flags: MW
HStem: -9.05469 84.3896<220.924 267.747 203.633 276.186> 371.185 84.3906<236.176 270.512> 604.955 85.3604<164.408 419.519 164.408 164.408>
VStem: 68.3779 88.2705<156.33 162.15 162.15 179.125 151.42 179.125> 79.0479 85.3604<424.834 424.834 424.834 604.955> 339.009 91.1797<191.25 254.3 254.3 258.18 155.461 304.319>
LayerCount: 2
Fore
SplineSet
164.408203125 424.833984375 m 1xec
 182.82421875 438.822265625 214.0546875 455.575195312 258.013671875 455.575195312 c 0
 313.717773438 455.575195312 357.559570312 438.559570312 387.064453125 403.434570312 c 0
 416.311523438 368.6171875 430.188476562 319.776367188 430.188476562 258.1796875 c 2
 430.188476562 185.4296875 l 2
 430.188476562 125.493164062 414.454101562 77.359375 381.834960938 42.6572265625 c 0
 349.21484375 7.955078125 304.057617188 -9.0546875 248.314453125 -9.0546875 c 0
 193.533203125 -9.0546875 149.16015625 5.3974609375 116.7578125 35.361328125 c 0
 84.359375 65.3212890625 68.3779296875 106.2890625 68.3779296875 156.330078125 c 2
 68.3779296875 179.125 l 1
 156.6484375 179.125 l 1
 156.6484375 162.150390625 l 2xf4
 156.6484375 140.689453125 159.922851562 75.3349609375 247.34375 75.3349609375 c 0
 288.150390625 75.3349609375 339.008789062 89.90625 339.008789062 191.25 c 2
 339.008789062 254.299804688 l 2
 339.008789062 354.337890625 292.7109375 371.184570312 248.313476562 371.184570312 c 0
 224.038085938 371.184570312 178.763671875 363.609375 160.978515625 310.250976562 c 2
 158.65625 303.28515625 l 1
 79.0478515625 303.28515625 l 1
 79.0478515625 690.315429688 l 1
 419.518554688 690.315429688 l 1
 419.518554688 604.955078125 l 1
 164.408203125 604.955078125 l 1
 164.408203125 424.833984375 l 1xec
EndSplineSet
EndChar

StartChar: six
Encoding: 54 54 24
Width: 496
GlyphClass: 2
Flags: MW
HStem: -9.05469 83.4199<238.139 270.127 238.139 305.011> 332.385 84.3906<258.919 270.148> 670.315 20G<261.392 357.793 357.793 357.793>
VStem: 61.5879 92.1514<189.31 221.32 170.132 222.29 170.132 238.456> 355.5 91.1787<187.369 191.25 191.25 220.349 220.349 224.23 170.839 238.199>
LayerCount: 2
Fore
SplineSet
219.241210938 408.563476562 m 1
 231.345703125 412.630859375 248.185546875 416.775390625 269.653320312 416.775390625 c 0
 321.791015625 416.775390625 365.125976562 399.216796875 397.872070312 364.05859375 c 0
 430.666015625 328.84765625 446.678710938 281.723632812 446.678710938 224.23046875 c 2
 446.678710938 191.25 l 2
 446.678710938 150.428710938 438.463867188 114.682617188 421.6328125 84.4560546875 c 0
 403.4296875 51.763671875 355.887695312 -9.0546875 254.133789062 -9.0546875 c 0
 196.404296875 -9.0546875 149.076171875 8.7900390625 113.939453125 44.9609375 c 0
 78.8076171875 81.1259765625 61.587890625 129.794921875 61.587890625 189.309570312 c 2
 61.587890625 222.290039062 l 2
 61.587890625 254.622070312 66.380859375 297.328125 102.411132812 369.391601562 c 0
 102.427734375 369.424804688 258.581054688 684.641601562 258.581054688 684.641601562 c 1
 261.391601562 690.315429688 l 1
 357.79296875 690.315429688 l 1
 219.241210938 408.563476562 l 1
355.5 187.369140625 m 2
 355.5 220.348632812 l 2
 355.5 256.049804688 346.068359375 283.01171875 328.087890625 302.731445312 c 0
 310.1640625 322.390625 286.162109375 332.384765625 254.134765625 332.384765625 c 0
 222.76953125 332.384765625 199.049804688 322.557617188 181.100585938 303.161132812 c 0
 163.173828125 283.790039062 153.739257812 257.026367188 153.739257812 221.3203125 c 2
 153.739257812 188.33984375 l 2
 153.739257812 151.923828125 163.069335938 124.41015625 180.771484375 104.385742188 c 0
 198.372070312 84.4775390625 222.143554688 74.365234375 254.133789062 74.365234375 c 0
 286.120117188 74.365234375 310.095703125 84.482421875 328.036132812 104.448242188 c 0
 346.068359375 124.516601562 355.5 151.673828125 355.5 187.369140625 c 2
EndSplineSet
EndChar

StartChar: seven
Encoding: 55 55 25
Width: 435
GlyphClass: 2
Flags: MW
HStem: 0.645508 21G<90.1875 182.721 90.1875 90.1875> 605.925 84.3906<43.1592 311.348 43.1592 403.999>
LayerCount: 2
Fore
SplineSet
403.999023438 690.315429688 m 1
 403.999023438 614.32421875 l 1
 182.720703125 0.6455078125 l 1
 90.1875 0.6455078125 l 1
 311.34765625 605.924804688 l 1
 43.1591796875 605.924804688 l 1
 43.1591796875 690.315429688 l 1
 403.999023438 690.315429688 l 1
EndSplineSet
EndChar

StartChar: eight
Encoding: 56 56 26
Width: 515
GlyphClass: 2
Flags: MW
HStem: -9.05469 83.4189<246.892 278.853 246.892 319.789> 320.744 83.4209<248.83 276.894 248.83 279.206> 616.594 83.4209<249.163 276.561>
VStem: 68.377 91.1816<184.461 185.429 185.429 208.711 208.711 209.679 168.654 226.99> 81.957 91.1807<501.651 521.051 521.051 522.021 486.794 571.458> 353.558 91.1816<501.65 521.05 484.709 522.021 484.709 536.135> 366.167 91.1836<185.429 185.431 185.431 209.679 209.679 209.681 127.511 226.819>
LayerCount: 2
Fore
SplineSet
261.895507812 -9.0546875 m 0xe2
 148.52734375 -9.0546875 68.376953125 68.201171875 68.376953125 184.4609375 c 2
 68.376953125 208.7109375 l 2xf2
 68.376953125 245.26953125 77.068359375 278.397460938 94.5576171875 307.544921875 c 0
 108.775390625 331.2421875 127.618164062 350.249023438 150.739257812 364.263671875 c 1
 123.556640625 382.26171875 81.95703125 422.704101562 81.95703125 501.651367188 c 2
 81.95703125 521.05078125 l 2
 81.95703125 621.866210938 154.520507812 700.014648438 262.864257812 700.014648438 c 0
 372.279296875 700.014648438 444.739257812 623.795898438 444.739257812 521.049804688 c 2
 444.739257812 501.650390625 l 2xec
 444.739257812 467.768554688 437.071289062 437.82421875 421.405273438 412.412109375 c 0
 409.264648438 392.716796875 393.677734375 376.560546875 374.891601562 364.184570312 c 1
 398.571289062 349.719726562 417.637695312 330.404296875 431.700195312 306.499023438 c 0
 448.8046875 277.423828125 457.350585938 244.981445312 457.350585938 209.680664062 c 2
 457.350585938 185.430664062 l 2
 457.350585938 69.5908203125 377.681640625 -9.0546875 261.895507812 -9.0546875 c 0xe2
353.557617188 501.650390625 m 2xec
 353.557617188 522.020507812 l 2
 353.557617188 550.25 345.059570312 572.479492188 328.231445312 590.178710938 c 0
 311.481445312 607.794921875 290.258789062 616.59375 262.862304688 616.59375 c 0
 235.463867188 616.59375 214.446289062 607.801757812 198.0390625 590.243164062 c 0
 181.510742188 572.5546875 173.137695312 550.291992188 173.137695312 522.020507812 c 2
 173.137695312 501.650390625 l 2
 173.137695312 471.9375 181.46875 448.811523438 197.671875 430.873046875 c 0
 213.70703125 413.120117188 234.796875 404.165039062 262.862304688 404.165039062 c 0
 290.92578125 404.165039062 312.221679688 413.125976562 328.598632812 430.939453125 c 0
 345.099609375 448.888671875 353.557617188 471.978515625 353.557617188 501.650390625 c 2xec
366.166992188 185.428710938 m 2xf2
 366.166992188 209.678710938 l 2
 366.166992188 243.959960938 356.673828125 270.44921875 338.275390625 290.600585938 c 0
 320.03515625 310.577148438 295.548828125 320.744140625 262.862304688 320.744140625 c 0
 230.921875 320.744140625 206.568359375 310.494140625 187.930664062 290.110351562 c 0
 169.147460938 269.56640625 159.55859375 243.228515625 159.55859375 209.678710938 c 2
 159.55859375 185.428710938 l 2
 159.55859375 151.879882812 169.147460938 125.541992188 187.930664062 104.998046875 c 0
 206.568359375 84.61328125 230.921875 74.3642578125 262.862304688 74.3642578125 c 0
 294.84375 74.3642578125 319.223632812 84.490234375 337.844726562 104.56640625 c 0
 356.54296875 124.7265625 366.166992188 151.18359375 366.166992188 185.428710938 c 2xf2
EndSplineSet
EndChar

StartChar: nine
Encoding: 57 57 27
Width: 496
GlyphClass: 2
Flags: MW
HStem: 0.645508 21G<151.493 247.863 151.493 151.493> 274.185 84.3906<238.122 249.37> 616.595 83.4199<238.143 270.131>
VStem: 61.5898 91.1816<466.73 470.61 470.61 499.71 499.71 503.59 452.76 520.121> 354.53 92.1494<469.64 501.65 451.277 502.62 451.277 520.828>
LayerCount: 2
Fore
SplineSet
289.131835938 282.431640625 m 1
 277.001953125 278.345703125 260.124023438 274.184570312 238.615234375 274.184570312 c 0
 186.450195312 274.184570312 143.098632812 291.931640625 110.36328125 327.422851562 c 0
 77.6259765625 362.916015625 61.58984375 409.850585938 61.58984375 466.73046875 c 2
 61.58984375 499.709960938 l 2
 61.58984375 540.53125 69.8046875 576.27734375 86.6357421875 606.50390625 c 0
 104.838867188 639.196289062 152.380859375 700.014648438 254.133789062 700.014648438 c 0
 311.864257812 700.014648438 359.192382812 682.169921875 394.329101562 646 c 0
 429.4609375 609.833984375 446.6796875 561.165039062 446.6796875 501.650390625 c 2
 446.6796875 468.669921875 l 2
 446.6796875 433.883789062 442.409179688 395.81640625 405.868164062 321.590820312 c 2
 247.86328125 0.6455078125 l 1
 151.493164062 0.6455078125 l 1
 289.131835938 282.431640625 l 1
354.530273438 469.639648438 m 2
 354.530273438 502.620117188 l 2
 354.530273438 539.036132812 345.200195312 566.549804688 327.498046875 586.57421875 c 0
 309.897460938 606.482421875 286.125976562 616.594726562 254.135742188 616.594726562 c 0
 222.149414062 616.594726562 198.173828125 606.477539062 180.233398438 586.51171875 c 0
 162.201171875 566.444335938 152.771484375 539.286132812 152.771484375 503.58984375 c 2
 152.771484375 470.610351562 l 2
 152.771484375 434.909179688 162.203125 407.947265625 180.18359375 388.228515625 c 0
 198.107421875 368.5703125 222.108398438 358.575195312 254.135742188 358.575195312 c 0
 286.208984375 358.575195312 310.033203125 368.444335938 327.598632812 387.73828125 c 0
 345.227539062 407.100585938 354.530273438 433.899414062 354.530273438 469.639648438 c 2
EndSplineSet
EndChar

StartChar: colon
Encoding: 58 58 28
Width: 203
GlyphClass: 2
Flags: MW
HStem: 0.645508 109.609<55.7695 161.499 55.7695 161.499> 328.505 109.61<55.7695 161.499 55.7695 161.499>
VStem: 55.7695 105.729<0.645508 110.255 0.645508 110.255 328.505 438.115>
LayerCount: 2
Fore
SplineSet
55.76953125 110.254882812 m 1
 161.499023438 110.254882812 l 1
 161.499023438 0.6455078125 l 1
 55.76953125 0.6455078125 l 1
 55.76953125 110.254882812 l 1
55.76953125 438.115234375 m 1
 161.499023438 438.115234375 l 1
 161.499023438 328.504882812 l 1
 55.76953125 328.504882812 l 1
 55.76953125 438.115234375 l 1
EndSplineSet
EndChar

StartChar: semicolon
Encoding: 59 59 29
Width: 203
GlyphClass: 2
Flags: MW
HStem: 328.505 109.61<55.7695 161.499 55.7695 161.499>
VStem: 55.7695 105.729<328.505 438.115> 77.1094 84.3896<-66.3232 111.225 -66.3232 111.225 -66.3232 111.225>
LayerCount: 2
Fore
SplineSet
55.76953125 438.115234375 m 1xc0
 161.499023438 438.115234375 l 1
 161.499023438 328.504882812 l 1
 55.76953125 328.504882812 l 1
 55.76953125 438.115234375 l 1xc0
77.109375 111.224609375 m 1xa0
 161.499023438 111.224609375 l 1
 161.499023438 -66.3232421875 l 1
 77.109375 -145.598632812 l 1
 77.109375 111.224609375 l 1xa0
EndSplineSet
EndChar

StartChar: less
Encoding: 60 60 30
Width: 515
GlyphClass: 2
Flags: W
LayerCount: 2
Fore
SplineSet
59.6494140625 243.583007812 m 1
 59.6494140625 314.502929688 l 1
 466.079101562 479.93359375 l 1
 466.079101562 389.001953125 l 1
 187.66796875 278.549804688 l 1
 466.079101562 168.098632812 l 1
 466.079101562 77.130859375 l 1
 59.6494140625 243.583007812 l 1
EndSplineSet
Substitution2: "'rtla' Right to Left Alternates lookup 0 subtable" greater
EndChar

StartChar: equal
Encoding: 61 61 31
Width: 515
GlyphClass: 2
Flags: MW
HStem: 143.235 84.3896<59.6494 466.079 59.6494 466.079> 328.505 85.3604<59.6494 466.079 59.6494 466.079>
LayerCount: 2
Fore
SplineSet
59.6494140625 413.865234375 m 1
 466.079101562 413.865234375 l 1
 466.079101562 328.504882812 l 1
 59.6494140625 328.504882812 l 1
 59.6494140625 413.865234375 l 1
59.6494140625 227.625 m 1
 466.079101562 227.625 l 1
 466.079101562 143.235351562 l 1
 59.6494140625 143.235351562 l 1
 59.6494140625 227.625 l 1
EndSplineSet
EndChar

StartChar: greater
Encoding: 62 62 32
Width: 515
GlyphClass: 2
Flags: W
LayerCount: 2
Fore
SplineSet
59.6494140625 389.001953125 m 1
 59.6494140625 479.93359375 l 1
 466.079101562 314.502929688 l 1
 466.079101562 243.583007812 l 1
 59.6494140625 77.130859375 l 1
 59.6494140625 168.098632812 l 1
 338.060546875 278.549804688 l 1
 59.6494140625 389.001953125 l 1
EndSplineSet
Substitution2: "'rtla' Right to Left Alternates lookup 0 subtable" less
EndChar

StartChar: question
Encoding: 63 63 33
Width: 433
GlyphClass: 2
Flags: MW
HStem: 0.644531 110.579<163.44 270.141 163.44 270.141> 509.896 21G<40.9746 131.245 40.9746 40.9746> 615.625 84.3896<191.466 245.754 191.466 254.288>
VStem: 40.9746 90.2705<509.896 509.896> 163.44 106.7<0.644531 111.224 0.644531 111.224> 171.199 91.1797<173.305 239.75 173.305 240.72 173.305 266.3> 304.09 91.1797<511.187 545.777>
LayerCount: 2
Fore
SplineSet
304.08984375 527.83984375 m 0xf6
 304.08984375 563.713867188 291.30078125 615.625 217.275390625 615.625 c 0
 133.766601562 615.625 131.95703125 548.71875 131.245117188 509.895507812 c 1
 40.974609375 509.895507812 l 1
 41.751953125 542.55078125 43.2568359375 605.77734375 88.703125 652.772460938 c 0
 119.55859375 684.680664062 163.719726562 700.014648438 219.212890625 700.014648438 c 0
 272.295898438 700.014648438 315.696289062 684.37890625 347.665039062 652.41015625 c 0
 379.51953125 620.555664062 395.26953125 578.477539062 395.26953125 527.83984375 c 0
 395.26953125 484.390625 383.876953125 448.202148438 343.915039062 391.958984375 c 2
 288.640625 314.3828125 l 2
 267.474609375 284.499023438 262.37890625 268.397460938 262.37890625 239.75 c 2
 262.37890625 173.3046875 l 1
 171.19921875 173.3046875 l 1
 171.19921875 240.719726562 l 2
 171.19921875 291.879882812 180.12109375 316.37109375 209.08203125 355.407226562 c 0
 209.090820312 355.418945312 261.501953125 426.271484375 261.501953125 426.271484375 c 2
 294.811523438 470.684570312 304.08984375 494.534179688 304.08984375 527.83984375 c 0xf6
163.440429688 111.223632812 m 1
 270.140625 111.223632812 l 1
 270.140625 0.64453125 l 1
 163.440429688 0.64453125 l 1
 163.440429688 111.223632812 l 1
EndSplineSet
EndChar

StartChar: at
Encoding: 64 64 34
Width: 866
GlyphClass: 2
Flags: MW
HStem: -123.515 83.4209<345.329 489.62 345.329 500.057> 54.9678 76.6299<418.542 449.663 418.542 455.164> 428.418 76.6299<417.388 432.03 354.725 449.832> 607.865 82.4521<401.16 523.861>
VStem: 61.5889 89.2393<252.363 318.323 318.323 320.261 167.212 354.644> 265.289 87.2998<240.723 245.573 245.573 317.353 226.09 318.323 226.09 360.499> 513.609 86.3291<240.723 320.263 320.263 369.088> 724.099 89.2402<254.301 255.272 255.272 319.291 319.291 320.263 222.918 409.737>
LayerCount: 2
Fore
SplineSet
437.462890625 -123.514648438 m 0
 219.491210938 -123.514648438 61.5888671875 24.5380859375 61.5888671875 252.36328125 c 2
 61.5888671875 318.323242188 l 2
 61.5888671875 390.963867188 77.478515625 455.686523438 109.471679688 512.0078125 c 0
 141.409179688 568.229492188 186.067382812 612.213867188 242.93359375 643.473632812 c 0
 299.86328125 674.767578125 364.85546875 690.317382812 437.463867188 690.317382812 c 0
 656.674804688 690.317382812 813.338867188 539.705078125 813.338867188 320.262695312 c 2
 813.338867188 255.272460938 l 2
 813.338867188 190.564453125 799.57421875 140.388671875 770.149414062 106.060546875 c 0
 741.09375 72.1611328125 702.65625 54.9677734375 656.684570312 54.9677734375 c 0
 626.598632812 54.9677734375 575.45703125 63.021484375 544.208984375 112.30859375 c 1
 526.0625 83.814453125 490.323242188 54.9677734375 420.00390625 54.9677734375 c 0
 368.146484375 54.9677734375 327.91796875 71.24609375 302.272460938 105.083984375 c 0
 277.15234375 138.229492188 265.2890625 183.755859375 265.2890625 240.72265625 c 2
 265.2890625 318.323242188 l 2
 265.2890625 402.674804688 291.384765625 505.047851562 418.064453125 505.047851562 c 0
 445.995117188 505.047851562 485.59765625 498.9296875 516.518554688 469.953125 c 1
 516.518554688 495.34765625 l 1
 599.938476562 495.34765625 l 1
 599.938476562 204.833007812 l 2
 599.938476562 178.462890625 605.96875 160.1796875 616.291992188 148.533203125 c 0
 626.970703125 136.484375 640.15625 130.626953125 657.653320312 130.626953125 c 0
 695.639648438 130.626953125 724.098632812 154.954101562 724.098632812 254.30078125 c 2
 724.098632812 319.291015625 l 2
 724.098632812 500.182617188 610.258789062 607.865234375 437.462890625 607.865234375 c 0
 261.571289062 607.865234375 150.828125 496.685546875 150.828125 320.260742188 c 2
 150.828125 251.390625 l 2
 150.828125 83.0341796875 253.1953125 -40.09375 437.462890625 -40.09375 c 0
 541.77734375 -40.09375 596.706054688 -15.44140625 651.079101562 13.408203125 c 1
 682.176757812 -60.4482421875 l 1
 628.383789062 -91.330078125 562.650390625 -123.514648438 437.462890625 -123.514648438 c 0
433.583984375 131.59765625 m 0
 465.7421875 131.59765625 513.609375 141.90234375 513.609375 240.72265625 c 2
 513.609375 320.262695312 l 2
 513.609375 417.9140625 466.080078125 428.41796875 433.583984375 428.41796875 c 0
 401.19140625 428.41796875 352.588867188 418.037109375 352.588867188 317.352539062 c 2
 352.588867188 245.573242188 l 2
 352.588867188 206.607421875 359.640625 177.9375 372.224609375 159.0625 c 0
 384.193359375 141.109375 403.5 131.59765625 433.583984375 131.59765625 c 0
EndSplineSet
EndChar

StartChar: A
Encoding: 65 65 35
Width: 578
GlyphClass: 2
Flags: MW
HStem: 0.645508 21G<6.78906 6.78906 6.78906 103.257 485.522 485.522 485.522 581.989> 161.665 80.5098<186.975 401.767 186.975 429.262 159.517 401.767> 670.315 20G<257.669 331.109 331.109 331.109>
LayerCount: 2
Fore
SplineSet
6.7890625 0.6455078125 m 1
 257.668945312 690.315429688 l 1
 331.109375 690.315429688 l 1
 581.989257812 0.6455078125 l 1
 485.522460938 0.6455078125 l 1
 429.26171875 161.665039062 l 1
 159.516601562 161.665039062 l 1
 103.256835938 0.6455078125 l 1
 6.7890625 0.6455078125 l 1
186.974609375 242.174804688 m 1
 401.766601562 242.174804688 l 1
 293.942382812 550.244140625 l 1
 186.974609375 242.174804688 l 1
EndSplineSet
EndChar

StartChar: B
Encoding: 66 66 36
Width: 614
GlyphClass: 2
Flags: MW
HStem: 0.645508 83.4189<173.138 334.643 334.643 343.372> 311.044 83.4199<173.138 329.792 329.792 335.612 173.138 329.792> 606.895 83.4209<173.138 330.763 173.138 173.138>
VStem: 81.957 91.1807<84.0645 311.044 394.464 606.895> 454.438 91.1807<485.531 511.049> 465.107 91.1797<164.291 210.458>
LayerCount: 2
Fore
SplineSet
460.325195312 355.547851562 m 1xf8
 499.553710938 337.669921875 556.287109375 294.475585938 556.287109375 194.159179688 c 0xf4
 556.287109375 134.422851562 537.225585938 86.2529296875 498.561523438 51.7314453125 c 0
 460.038085938 17.3359375 407.826171875 0.6455078125 343.372070312 0.6455078125 c 2
 81.95703125 0.6455078125 l 1
 81.95703125 690.315429688 l 1
 337.552734375 690.315429688 l 2
 401.888671875 690.315429688 453.286132812 674.532226562 490.295898438 641.672851562 c 0
 527.421875 608.709960938 545.618164062 561.962890625 545.618164062 503.58984375 c 0
 545.618164062 467.471679688 535.987304688 434.650390625 516.75390625 405.80078125 c 0
 502.26171875 384.0625 483.306640625 367.240234375 460.325195312 355.547851562 c 1xf8
454.4375 499.708984375 m 0xf8
 454.4375 522.388671875 453.715820312 606.89453125 330.762695312 606.89453125 c 2
 173.137695312 606.89453125 l 1
 173.137695312 394.463867188 l 1
 329.791992188 394.463867188 l 2
 370.334960938 394.463867188 400.829101562 403.670898438 422.390625 420.861328125 c 0
 443.389648438 437.604492188 454.4375 462.993164062 454.4375 499.708984375 c 0xf8
334.642578125 84.064453125 m 2
 391.267578125 84.064453125 465.107421875 102.556640625 465.107421875 199.009765625 c 0xf4
 465.107421875 221.905273438 464.422851562 311.043945312 335.612304688 311.043945312 c 2
 173.137695312 311.043945312 l 1
 173.137695312 84.064453125 l 1
 334.642578125 84.064453125 l 2
EndSplineSet
EndChar

StartChar: C
Encoding: 67 67 37
Width: 610
GlyphClass: 2
Flags: MW
HStem: -7.11523 85.3594<277.404 338.637 274.757 349.771> 614.653 84.3896<288.383 337.651>
VStem: 68.3779 91.1816<259.149 429.869> 461.229 89.2402<207.74 221.805 175.236 221.805>
LayerCount: 2
Fore
SplineSet
159.559570312 255.26953125 m 2
 159.559570312 111.73828125 234.26953125 78.244140625 315.244140625 78.244140625 c 0
 362.029296875 78.244140625 397.431640625 90.1767578125 422.915039062 112.993164062 c 0
 448.330078125 135.749023438 461.229492188 166.65625 461.229492188 207.740234375 c 2
 461.229492188 221.8046875 l 1
 550.469726562 221.8046875 l 1
 550.469726562 207.740234375 l 2
 550.469726562 142.732421875 529.069335938 89.7705078125 486.002929688 50.806640625 c 0
 443.001953125 11.900390625 385.267578125 -7.115234375 314.274414062 -7.115234375 c 0
 240.534179688 -7.115234375 180.41015625 14.1416015625 135.525390625 57.326171875 c 0
 90.0341796875 101.09375 68.3779296875 169.07421875 68.3779296875 259.149414062 c 2
 68.3779296875 432.779296875 l 2
 68.3779296875 522.853515625 90.033203125 590.833984375 135.524414062 634.602539062 c 0
 180.409179688 677.786132812 240.533203125 699.04296875 314.2734375 699.04296875 c 0
 458.416015625 699.04296875 552.409179688 613.578125 552.409179688 484.188476562 c 2
 552.409179688 471.092773438 l 1
 461.229492188 471.092773438 l 1
 461.229492188 484.188476562 l 2
 461.229492188 525.237304688 448.196289062 556.317382812 422.424804688 579.422851562 c 0
 396.592773438 602.583007812 361.028320312 614.653320312 314.274414062 614.653320312 c 0
 262.4921875 614.653320312 224.790039062 600.149414062 199.044921875 572.333007812 c 0
 173.608398438 544.8515625 159.559570312 497.889648438 159.559570312 429.869140625 c 2
 159.559570312 255.26953125 l 2
EndSplineSet
EndChar

StartChar: D
Encoding: 68 68 38
Width: 620
GlyphClass: 2
Flags: MW
HStem: 0.645508 84.3887<174.109 321.064> 605.924 84.3916<174.109 321.064 321.064 322.034 174.109 174.109>
VStem: 81.959 92.1504<85.0342 605.924 85.0342 690.315 85.0342 690.315> 470.93 92.1494<263.029 266.909 266.909 421.139 421.139 424.049>
LayerCount: 2
Fore
SplineSet
563.079101562 424.048828125 m 2
 563.079101562 266.909179688 l 2
 563.079101562 176.875976562 541.951171875 108.956054688 497.47265625 65.16796875 c 0
 453.543945312 21.9208984375 394.174804688 0.6455078125 321.064453125 0.6455078125 c 2
 81.958984375 0.6455078125 l 1
 81.958984375 690.315429688 l 1
 321.064453125 690.315429688 l 2
 394.174804688 690.315429688 453.543945312 669.038085938 497.47265625 625.791015625 c 0
 541.951171875 582.001953125 563.079101562 514.08203125 563.079101562 424.048828125 c 2
322.034179688 85.0341796875 m 2
 395.10546875 85.0341796875 470.9296875 114.586914062 470.9296875 263.029296875 c 2
 470.9296875 421.138671875 l 2
 470.9296875 487.841796875 457.233398438 534.598632812 432.26171875 562.801757812 c 0
 407.0546875 591.272460938 371.044921875 605.923828125 322.034179688 605.923828125 c 2
 174.109375 605.923828125 l 1
 174.109375 85.0341796875 l 1
 322.034179688 85.0341796875 l 2
EndSplineSet
EndChar

StartChar: E
Encoding: 69 69 39
Width: 549
GlyphClass: 2
Flags: MW
HStem: 0.645508 84.3896<173.14 508.759 173.14 508.759> 309.105 84.3896<173.14 460.259 173.14 460.259> 605.925 84.3906<173.14 508.759 173.14 173.14>
VStem: 81.959 91.1807<85.0352 85.0352 85.0352 309.105 393.495 605.925>
LayerCount: 2
Fore
SplineSet
173.139648438 85.03515625 m 1
 508.758789062 85.03515625 l 1
 508.758789062 0.6455078125 l 1
 81.958984375 0.6455078125 l 1
 81.958984375 690.315429688 l 1
 508.758789062 690.315429688 l 1
 508.758789062 605.924804688 l 1
 173.139648438 605.924804688 l 1
 173.139648438 393.495117188 l 1
 460.258789062 393.495117188 l 1
 460.258789062 309.10546875 l 1
 173.139648438 309.10546875 l 1
 173.139648438 85.03515625 l 1
EndSplineSet
EndChar

StartChar: F
Encoding: 70 70 40
Width: 541
GlyphClass: 2
Flags: MW
HStem: 0.645508 21G<81.959 173.14 81.959 81.959> 307.165 84.3896<173.14 460.259 173.14 460.259> 605.925 84.3906<173.14 508.759 173.14 173.14>
VStem: 81.959 91.1807<0.645508 307.165 0.645508 391.555 391.555 605.925>
LayerCount: 2
Fore
SplineSet
173.139648438 307.165039062 m 1
 173.139648438 0.6455078125 l 1
 81.958984375 0.6455078125 l 1
 81.958984375 690.315429688 l 1
 508.758789062 690.315429688 l 1
 508.758789062 605.924804688 l 1
 173.139648438 605.924804688 l 1
 173.139648438 391.5546875 l 1
 460.258789062 391.5546875 l 1
 460.258789062 307.165039062 l 1
 173.139648438 307.165039062 l 1
EndSplineSet
EndChar

StartChar: G
Encoding: 71 71 41
Width: 610
GlyphClass: 2
Flags: MW
HStem: -7.11523 85.3594<275.777 338.917 274.327 348.549> 283.885 81.4805<301.18 461.229 301.18 552.409> 614.655 84.3896<287.422 336.354>
VStem: 68.3779 91.1807<259.151 429.869> 461.229 91.1797<242.66 255.271 255.271 283.885 283.885 283.885>
LayerCount: 2
Fore
SplineSet
159.55859375 255.26953125 m 2
 159.55859375 111.206054688 234.380859375 78.244140625 314.2734375 78.244140625 c 0
 363.559570312 78.244140625 399.415039062 91.541015625 423.831054688 116.83984375 c 0
 447.97265625 141.853515625 461.229492188 183.196289062 461.229492188 242.66015625 c 2
 461.229492188 283.884765625 l 1
 301.1796875 283.884765625 l 1
 301.1796875 365.365234375 l 1
 552.409179688 365.365234375 l 1
 552.409179688 255.270507812 l 2
 552.409179688 165.895507812 531.454101562 98.73828125 487.228515625 55.8955078125 c 0
 443.614257812 13.64453125 384.763671875 -7.115234375 312.333984375 -7.115234375 c 0
 239.219726562 -7.115234375 179.565429688 14.1611328125 135.01171875 57.3525390625 c 0
 89.8583984375 101.127929688 68.3779296875 169.090820312 68.3779296875 259.151367188 c 2
 68.3779296875 432.78125 l 2
 68.3779296875 522.841796875 89.857421875 590.802734375 135.01171875 634.577148438 c 0
 179.564453125 677.76953125 239.21875 699.044921875 312.333007812 699.044921875 c 0
 462.086914062 699.044921875 550.46875 608.712890625 550.46875 486.129882812 c 2
 550.46875 472.065429688 l 1
 459.288085938 472.065429688 l 1
 459.288085938 486.129882812 l 2
 459.288085938 526.48828125 446.296875 557.063476562 420.533203125 579.866210938 c 0
 394.676757812 602.750976562 359.404296875 614.655273438 313.303710938 614.655273438 c 0
 261.541015625 614.655273438 224.055664062 600.014648438 198.634765625 571.93359375 c 0
 173.430664062 544.090820312 159.55859375 497.231445312 159.55859375 429.869140625 c 2
 159.55859375 255.26953125 l 2
EndSplineSet
EndChar

StartChar: H
Encoding: 72 72 42
Width: 628
GlyphClass: 2
Flags: MW
HStem: 0.645508 21G<81.959 173.14 81.959 81.959 466.079 557.259 466.079 466.079> 311.045 84.3896<173.14 466.079 173.14 466.079> 670.315 20G<81.959 173.14 173.14 173.14 466.079 557.259 557.259 557.259>
VStem: 81.959 91.1807<0.645508 311.045 0.645508 395.435 395.435 690.315> 466.079 91.1797<0.645508 311.045 311.045 311.045 395.435 690.315 0.645508 690.315>
LayerCount: 2
Fore
SplineSet
557.258789062 690.315429688 m 1
 557.258789062 0.6455078125 l 1
 466.079101562 0.6455078125 l 1
 466.079101562 311.044921875 l 1
 173.139648438 311.044921875 l 1
 173.139648438 0.6455078125 l 1
 81.958984375 0.6455078125 l 1
 81.958984375 690.315429688 l 1
 173.139648438 690.315429688 l 1
 173.139648438 395.434570312 l 1
 466.079101562 395.434570312 l 1
 466.079101562 690.315429688 l 1
 557.258789062 690.315429688 l 1
EndSplineSet
EndChar

StartChar: I
Encoding: 73 73 43
Width: 258
GlyphClass: 2
Flags: MW
HStem: 0.645508 21G<89.7197 180.899 89.7197 89.7197> 670.315 20G<89.7197 180.899 180.899 180.899>
VStem: 89.7197 91.1797<0.645508 690.315 0.645508 690.315>
LayerCount: 2
Fore
SplineSet
89.7197265625 690.315429688 m 1
 180.899414062 690.315429688 l 1
 180.899414062 0.6455078125 l 1
 89.7197265625 0.6455078125 l 1
 89.7197265625 690.315429688 l 1
EndSplineSet
EndChar

StartChar: J
Encoding: 74 74 44
Width: 320
GlyphClass: 2
Flags: MW
HStem: 0.645508 84.3896<35.3994 100.873 100.873 111.057 35.3994 111.544 35.3994 100.873> 670.315 20G<151.799 242.979 242.979 242.979>
VStem: 151.799 91.1807<148.57 690.315>
LayerCount: 2
Fore
SplineSet
242.979492188 139.83984375 m 2
 242.979492188 87.6015625 225.817382812 0.6455078125 111.543945312 0.6455078125 c 2
 35.3994140625 0.6455078125 l 1
 35.3994140625 85.03515625 l 1
 100.873046875 85.03515625 l 2
 121.240234375 85.03515625 133.284179688 90.3759765625 139.984375 98.6923828125 c 0
 147.036132812 107.446289062 151.798828125 123.756835938 151.798828125 148.5703125 c 2
 151.798828125 690.315429688 l 1
 242.979492188 690.315429688 l 1
 242.979492188 139.83984375 l 2
EndSplineSet
EndChar

StartChar: K
Encoding: 75 75 45
Width: 598
GlyphClass: 2
Flags: MW
HStem: 0.645508 21G<81.959 173.14 81.959 81.959 498.525 604.701 498.525 498.525> 670.315 20G<81.959 173.14 173.14 173.14 467.466 578.136 578.136 578.136>
VStem: 81.959 91.1807<0.645508 191.523 319.408 690.315>
LayerCount: 2
Fore
SplineSet
498.525390625 0.6455078125 m 1
 298.327148438 346.010742188 l 1
 173.139648438 191.5234375 l 1
 173.139648438 0.6455078125 l 1
 81.958984375 0.6455078125 l 1
 81.958984375 690.315429688 l 1
 173.139648438 690.315429688 l 1
 173.139648438 319.408203125 l 1
 467.465820312 690.315429688 l 1
 578.135742188 690.315429688 l 1
 357.685546875 418.291015625 l 1
 604.701171875 0.6455078125 l 1
 498.525390625 0.6455078125 l 1
EndSplineSet
EndChar

StartChar: L
Encoding: 76 76 46
Width: 531
GlyphClass: 2
Flags: MW
HStem: 0.645508 84.3896<173.14 506.819 173.14 506.819> 670.315 20G<81.959 173.14 173.14 173.14>
VStem: 81.959 91.1807<85.0352 690.315 85.0352 690.315 85.0352 690.315>
LayerCount: 2
Fore
SplineSet
81.958984375 690.315429688 m 1
 173.139648438 690.315429688 l 1
 173.139648438 85.03515625 l 1
 506.819335938 85.03515625 l 1
 506.819335938 0.6455078125 l 1
 81.958984375 0.6455078125 l 1
 81.958984375 690.315429688 l 1
EndSplineSet
EndChar

StartChar: M
Encoding: 77 77 47
Width: 749
GlyphClass: 2
Flags: MW
HStem: 0.645508 21G<81.959 173.14 81.959 81.959 586.359 677.539 586.359 586.359> 670.315 20G<81.959 169.354 169.354 169.354 590.132 677.539 677.539 677.539>
VStem: 81.959 91.1807<0.645508 490.498 0.645508 690.315> 586.359 91.1797<0.645508 490.294 490.294 490.294>
LayerCount: 2
Fore
SplineSet
677.5390625 690.315429688 m 1
 677.5390625 0.6455078125 l 1
 586.359375 0.6455078125 l 1
 586.359375 490.293945312 l 1
 413.775390625 134.504882812 l 1
 346.708007812 134.504882812 l 1
 173.139648438 490.498046875 l 1
 173.139648438 0.6455078125 l 1
 81.958984375 0.6455078125 l 1
 81.958984375 690.315429688 l 1
 169.354492188 690.315429688 l 1
 380.213867188 252.59375 l 1
 590.131835938 690.315429688 l 1
 677.5390625 690.315429688 l 1
EndSplineSet
EndChar

StartChar: N
Encoding: 78 78 48
Width: 662
GlyphClass: 2
Flags: MW
HStem: 0.645508 21G<81.959 173.14 81.959 81.959 503.681 590.239 503.681 503.681> 670.315 20G<81.959 168.507 168.507 168.507 499.06 590.239 590.239 590.239>
VStem: 81.959 91.1807<0.645508 515.438 0.645508 690.315> 499.06 91.1797<177.357 690.315 0.645508 690.315>
LayerCount: 2
Fore
SplineSet
590.239257812 690.315429688 m 1
 590.239257812 0.6455078125 l 1
 503.680664062 0.6455078125 l 1
 173.139648438 515.4375 l 1
 173.139648438 0.6455078125 l 1
 81.958984375 0.6455078125 l 1
 81.958984375 690.315429688 l 1
 168.506835938 690.315429688 l 1
 499.059570312 177.357421875 l 1
 499.059570312 690.315429688 l 1
 590.239257812 690.315429688 l 1
EndSplineSet
EndChar

StartChar: O
Encoding: 79 79 49
Width: 610
GlyphClass: 2
Flags: MW
HStem: -7.11523 85.3613<285.784 346.64> 614.657 84.3867<285.479 347.032>
VStem: 68.3799 91.1807<259.15 429.871> 461.23 91.1787<255.271 259.149 259.149 429.872 429.872 432.779>
LayerCount: 2
Fore
SplineSet
68.3798828125 259.150390625 m 2
 68.3798828125 432.780273438 l 2
 68.3798828125 522.827148438 89.6845703125 590.767578125 134.5 634.548828125 c 0
 178.740234375 677.768554688 238.251953125 699.043945312 311.364257812 699.043945312 c 0
 383.852539062 699.043945312 442.89453125 677.748046875 486.802734375 634.520507812 c 0
 531.28125 590.732421875 552.409179688 522.811523438 552.409179688 432.779296875 c 2
 552.409179688 259.149414062 l 2
 552.409179688 169.102539062 531.10546875 101.162109375 486.290039062 57.3798828125 c 0
 442.069335938 14.1806640625 382.884765625 -7.115234375 310.39453125 -7.115234375 c 0
 237.284179688 -7.115234375 177.9140625 14.1611328125 133.985351562 57.408203125 c 0
 89.5078125 101.196289062 68.3798828125 169.1171875 68.3798828125 259.150390625 c 2
311.365234375 78.24609375 m 0
 385.869140625 78.24609375 461.23046875 108.504882812 461.23046875 255.270507812 c 2
 461.23046875 429.872070312 l 2
 461.23046875 585.98828125 382.69921875 614.657226562 311.365234375 614.657226562 c 0
 259.592773438 614.657226562 222.494140625 600.013671875 197.747070312 572.025390625 c 0
 173.135742188 544.190429688 159.560546875 497.263671875 159.560546875 429.87109375 c 2
 159.560546875 255.270507812 l 2
 159.560546875 191.206054688 173.211914062 146.5078125 198.08203125 119.588867188 c 0
 223.15625 92.44921875 260.202148438 78.24609375 311.365234375 78.24609375 c 0
EndSplineSet
EndChar

StartChar: P
Encoding: 80 80 50
Width: 578
GlyphClass: 2
Flags: MW
HStem: 0.645508 21G<81.959 173.14 81.959 81.959> 277.095 84.3906<173.14 326.884 326.884 332.704 173.14 326.884> 605.925 84.3906<173.14 326.884 173.14 173.14>
VStem: 81.959 91.1807<0.645508 277.095 0.645508 361.485 361.485 605.925> 462.199 91.1797<459.612 498.642>
LayerCount: 2
Fore
SplineSet
553.37890625 480.309570312 m 0
 553.37890625 417.984375 533.512695312 367.586914062 493.283203125 331.140625 c 0
 453.178710938 294.807617188 399.159179688 277.094726562 332.704101562 277.094726562 c 2
 173.139648438 277.094726562 l 1
 173.139648438 0.6455078125 l 1
 81.958984375 0.6455078125 l 1
 81.958984375 690.315429688 l 1
 332.704101562 690.315429688 l 2
 399.796875 690.315429688 454.0234375 672.446289062 493.8359375 635.721679688 c 0
 533.849609375 598.813476562 553.37890625 546.315429688 553.37890625 480.309570312 c 0
462.19921875 480.309570312 m 0
 462.19921875 516.974609375 456.69921875 605.924804688 326.883789062 605.924804688 c 2
 173.139648438 605.924804688 l 1
 173.139648438 361.485351562 l 1
 326.883789062 361.485351562 l 2
 371.959960938 361.485351562 405.227539062 371.834960938 427.981445312 391.087890625 c 0
 450.344726562 410.010742188 462.19921875 438.9140625 462.19921875 480.309570312 c 0
EndSplineSet
EndChar

StartChar: Q
Encoding: 81 81 51
Width: 610
GlyphClass: 2
Flags: MW
HStem: -7.11328 85.3604<285.784 320.316> 614.658 84.3867<285.479 347.032>
VStem: 68.3799 91.1807<259.151 429.872> 461.23 91.1787<255.271 259.15 259.15 429.872 429.872 432.78>
LayerCount: 2
Fore
SplineSet
310.395507812 -7.11328125 m 0
 237.28515625 -7.11328125 177.915039062 14.1630859375 133.986328125 57.41015625 c 0
 89.5087890625 101.198242188 68.3798828125 169.118164062 68.3798828125 259.151367188 c 2
 68.3798828125 432.78125 l 2
 68.3798828125 522.828125 89.6845703125 590.768554688 134.5 634.549804688 c 0
 178.740234375 677.76953125 238.251953125 699.044921875 311.364257812 699.044921875 c 0
 383.852539062 699.044921875 442.89453125 677.749023438 486.802734375 634.521484375 c 0
 531.28125 590.733398438 552.409179688 522.8125 552.409179688 432.780273438 c 2
 552.409179688 259.150390625 l 2
 552.409179688 147.34375 518.05078125 68.1904296875 447.310546875 26.240234375 c 1
 520.055664062 -108.576171875 l 1
 447.028320312 -149.57421875 l 1
 367.0625 -2.4775390625 l 1
 349.12890625 -5.576171875 330.236328125 -7.11328125 310.395507812 -7.11328125 c 0
311.365234375 78.2470703125 m 0
 385.869140625 78.2470703125 461.23046875 108.505859375 461.23046875 255.271484375 c 2
 461.23046875 429.872070312 l 2
 461.23046875 585.989257812 382.69921875 614.658203125 311.365234375 614.658203125 c 0
 259.592773438 614.658203125 222.494140625 600.014648438 197.747070312 572.026367188 c 0
 173.135742188 544.19140625 159.560546875 497.264648438 159.560546875 429.872070312 c 2
 159.560546875 255.271484375 l 2
 159.560546875 191.20703125 173.211914062 146.508789062 198.08203125 119.58984375 c 0
 223.15625 92.4501953125 260.202148438 78.2470703125 311.365234375 78.2470703125 c 0
EndSplineSet
EndChar

StartChar: R
Encoding: 82 82 52
Width: 599
GlyphClass: 2
Flags: MW
HStem: 0.645508 21G<81.959 173.14 81.959 81.959 469.082 573.638 469.082 469.082> 294.555 81.4795<307.725 317.762> 605.925 84.3906<173.14 334.645 173.14 173.14>
VStem: 81.959 91.1807<0.645508 294.555 0.645508 376.035 376.035 605.925> 461.229 91.1807<467.12 506.952>
LayerCount: 2
Fore
SplineSet
469.08203125 0.6455078125 m 1
 317.76171875 294.5546875 l 1
 173.139648438 294.5546875 l 1
 173.139648438 0.6455078125 l 1
 81.958984375 0.6455078125 l 1
 81.958984375 690.315429688 l 1
 340.463867188 690.315429688 l 2
 404.93359375 690.315429688 457.029296875 673.448242188 495.240234375 638.6796875 c 0
 533.642578125 603.736328125 552.409179688 554.123046875 552.409179688 491.950195312 c 0
 552.409179688 442.2890625 539.219726562 400.323242188 512.302734375 367.194335938 c 0
 487.944335938 337.21484375 454.766601562 316.459960938 413.68359375 304.8515625 c 1
 573.637695312 0.6455078125 l 1
 469.08203125 0.6455078125 l 1
461.228515625 490.979492188 m 0
 461.228515625 522.924804688 456.099609375 605.924804688 334.64453125 605.924804688 c 2
 173.139648438 605.924804688 l 1
 173.139648438 376.03515625 l 1
 226.973632812 376.03515625 280.807617188 376.034179688 334.642578125 376.034179688 c 0
 383.68359375 376.034179688 461.228515625 391.725585938 461.228515625 490.979492188 c 0
EndSplineSet
EndChar

StartChar: S
Encoding: 83 83 53
Width: 548
GlyphClass: 2
Flags: MW
HStem: -5.1748 82.4521<224.417 306.962> 617.565 81.4805<252.32 306.101 242.277 336.201>
VStem: 49.9473 89.2422<485.02 524.045 485.02 532.256> 409.751 90.5283<492.435 492.435> 419.517 90.2119<164.527 209.723>
LayerCount: 2
Fore
SplineSet
275.471679688 77.27734375 m 0xe8
 351.41015625 77.27734375 419.516601562 102.333984375 419.516601562 192.221679688 c 0xe8
 419.516601562 227.224609375 409.838867188 251.770507812 391.826171875 268.09375 c 0
 373.231445312 284.946289062 343.834960938 297.466796875 302.888671875 304.39453125 c 0
 302.86328125 304.399414062 227.228515625 317.004882812 227.228515625 317.004882812 c 2
 171.581054688 326.279296875 127.75390625 345.491210938 96.7060546875 375.50390625 c 0
 65.208984375 405.950195312 49.947265625 448.639648438 49.947265625 501.651367188 c 0
 49.947265625 562.861328125 70.806640625 612.119140625 112.775390625 647.208007812 c 0
 154.434570312 682.037109375 209.081054688 699.045898438 275.473632812 699.045898438 c 0
 336.727539062 699.045898438 387.911132812 683.142578125 427.87109375 650.696289062 c 0
 487.856445312 601.990234375 496.13671875 528.966796875 500.279296875 492.434570312 c 1
 409.750976562 492.434570312 l 1xf0
 405.95703125 533.224609375 397.8984375 617.565429688 274.502929688 617.565429688 c 0
 230.13671875 617.565429688 197.037109375 607.106445312 173.901367188 587.484375 c 0
 150.7890625 567.883789062 139.189453125 541.590820312 139.189453125 506.5 c 0
 139.189453125 463.5390625 154.778320312 418.009765625 250.078125 401.102539062 c 0
 250.1015625 401.098632812 327.653320312 387.526367188 327.653320312 387.526367188 c 2
 385.225585938 377.600585938 430.34375 357.580078125 462.043945312 326.5703125 c 0
 494.177734375 295.134765625 509.728515625 251.014648438 509.728515625 196.099609375 c 0
 509.728515625 132.955078125 488.21484375 82.5068359375 444.873046875 47.076171875 c 0
 401.782226562 11.8515625 343.301757812 -5.1748046875 270.623046875 -5.1748046875 c 0
 178.211914062 -5.1748046875 52.0439453125 27.0654296875 36.408203125 199.049804688 c 2
 35.3974609375 210.166992188 l 1
 125.58984375 210.166992188 l 1
 129.946289062 167.52734375 139.583984375 77.27734375 275.471679688 77.27734375 c 0xe8
EndSplineSet
EndChar

StartChar: T
Encoding: 84 84 54
Width: 485
GlyphClass: 2
Flags: MW
HStem: 0.645508 21G<203.209 293.419 203.209 203.209> 605.925 84.3906<12.1191 203.209 12.1191 484.509 293.419 293.419 293.419 484.509>
VStem: 203.209 90.21<0.645508 605.925 0.645508 605.925>
LayerCount: 2
Fore
SplineSet
203.208984375 605.924804688 m 1
 12.119140625 605.924804688 l 1
 12.119140625 690.315429688 l 1
 484.508789062 690.315429688 l 1
 484.508789062 605.924804688 l 1
 293.418945312 605.924804688 l 1
 293.418945312 0.6455078125 l 1
 203.208984375 0.6455078125 l 1
 203.208984375 605.924804688 l 1
EndSplineSet
EndChar

StartChar: U
Encoding: 85 85 55
Width: 634
GlyphClass: 2
Flags: MW
HStem: -5.1748 83.4199<299.833 345.832 299.833 391.885> 670.315 20G<81.959 174.109 174.109 174.109 471.899 563.079 563.079 563.079>
VStem: 81.959 92.1504<229.08 234.9 234.9 690.315> 471.899 91.1797<234.9 690.315>
LayerCount: 2
Fore
SplineSet
323.00390625 -5.1748046875 m 0
 180.014648438 -5.1748046875 81.958984375 94.7138671875 81.958984375 229.080078125 c 2
 81.958984375 690.315429688 l 1
 174.109375 690.315429688 l 1
 174.109375 234.900390625 l 2
 174.109375 185.734375 187.8046875 148.043945312 214.447265625 120.204101562 c 0
 241.083007812 92.3720703125 276.662109375 78.2451171875 323.00390625 78.2451171875 c 0
 368.659179688 78.2451171875 404.114257812 92.34375 431.116210938 120.245117188 c 0
 458.064453125 148.092773438 471.899414062 185.760742188 471.899414062 234.900390625 c 2
 471.899414062 690.315429688 l 1
 563.079101562 690.315429688 l 1
 563.079101562 229.080078125 l 2
 563.079101562 88.2978515625 460.766601562 -5.1748046875 323.00390625 -5.1748046875 c 0
EndSplineSet
EndChar

StartChar: V
Encoding: 86 86 56
Width: 525
GlyphClass: 2
Flags: MW
HStem: 0.645508 21G<231.21 304.208 231.21 231.21> 670.315 20G<7.31738 102.541 102.541 102.541 433.845 529.101 529.101 529.101>
LayerCount: 2
Fore
SplineSet
7.3173828125 690.315429688 m 1
 102.541015625 690.315429688 l 1
 268.657226562 159.486328125 l 1
 433.844726562 690.315429688 l 1
 529.100585938 690.315429688 l 1
 304.208007812 0.6455078125 l 1
 231.209960938 0.6455078125 l 1
 7.3173828125 690.315429688 l 1
EndSplineSet
EndChar

StartChar: W
Encoding: 87 87 57
Width: 792
GlyphClass: 2
Flags: MW
HStem: 0.645508 21G<185.12 264.038 185.12 185.12 541.102 620.013 541.102 541.102> 670.315 20G<8.20508 98.1992 98.1992 98.1992 348.892 455.159 455.159 455.159 705.852 792.93 792.93 792.93>
LayerCount: 2
Fore
SplineSet
541.1015625 0.6455078125 m 1
 400.735351562 550.185546875 l 1
 264.038085938 0.6455078125 l 1
 185.120117188 0.6455078125 l 1
 8.205078125 690.315429688 l 1
 98.19921875 690.315429688 l 1
 225.82421875 168.875 l 1
 348.891601562 690.315429688 l 1
 455.159179688 690.315429688 l 1
 582.784179688 168.875 l 1
 705.8515625 690.315429688 l 1
 792.9296875 690.315429688 l 1
 620.012695312 0.6455078125 l 1
 541.1015625 0.6455078125 l 1
EndSplineSet
EndChar

StartChar: X
Encoding: 88 88 58
Width: 567
GlyphClass: 2
Flags: MW
HStem: 0.645508 21G<2.62598 2.62598 2.62598 109.415 465.8 465.8 465.8 575.441> 670.315 20G<21.0996 130.775 130.775 130.775 447.333 554.096 554.096 554.096>
LayerCount: 2
Fore
SplineSet
2.6259765625 0.6455078125 m 1
 234.255859375 359.071289062 l 1
 21.099609375 690.315429688 l 1
 130.775390625 690.315429688 l 1
 289.0546875 436.506835938 l 1
 447.333007812 690.315429688 l 1
 554.095703125 690.315429688 l 1
 342.875 361.971679688 l 1
 575.44140625 0.6455078125 l 1
 465.799804688 0.6455078125 l 1
 287.13671875 283.68359375 l 1
 109.415039062 0.6455078125 l 1
 2.6259765625 0.6455078125 l 1
EndSplineSet
EndChar

StartChar: Y
Encoding: 89 89 59
Width: 501
GlyphClass: 2
Flags: MW
HStem: 0.645508 21G<210.97 302.149 210.97 210.97> 670.315 20G<4.63184 104.303 104.303 104.303 408.833 508.468 508.468 508.468>
VStem: 210.97 91.1797<0.645508 288.695 0.645508 289.66 0.645508 289.66>
LayerCount: 2
Fore
SplineSet
508.467773438 690.315429688 m 1
 302.149414062 288.6953125 l 1
 302.149414062 0.6455078125 l 1
 210.969726562 0.6455078125 l 1
 210.969726562 289.66015625 l 1
 4.6318359375 690.315429688 l 1
 104.302734375 690.315429688 l 1
 256.102539062 382.059570312 l 1
 408.833007812 690.315429688 l 1
 508.467773438 690.315429688 l 1
EndSplineSet
EndChar

StartChar: Z
Encoding: 90 90 60
Width: 519
GlyphClass: 2
Flags: MW
HStem: 0.645508 84.3896<152.377 490.329 152.377 490.329> 605.925 84.3906<55.7695 378.201 55.7695 487.419>
LayerCount: 2
Fore
SplineSet
490.329101562 85.03515625 m 1
 490.329101562 0.6455078125 l 1
 43.1591796875 0.6455078125 l 1
 43.1591796875 77.8076171875 l 1
 378.201171875 605.924804688 l 1
 55.76953125 605.924804688 l 1
 55.76953125 690.315429688 l 1
 487.418945312 690.315429688 l 1
 487.418945312 613.15234375 l 1
 152.376953125 85.03515625 l 1
 490.329101562 85.03515625 l 1
EndSplineSet
EndChar

StartChar: bracketleft
Encoding: 91 91 61
Width: 302
GlyphClass: 2
Flags: MW
HStem: -80.835 84.3896<170.229 253.649 170.229 253.649> 654.425 84.3906<170.229 253.649 170.229 170.229>
VStem: 81.959 88.2705<3.55469 654.425 3.55469 738.815 3.55469 738.815> 81.959 171.69<-80.835 3.55469 654.425 738.815>
LayerCount: 2
Fore
SplineSet
81.958984375 738.815429688 m 1xd0
 253.649414062 738.815429688 l 1
 253.649414062 654.424804688 l 1xd0
 170.229492188 654.424804688 l 1
 170.229492188 3.5546875 l 1xe0
 253.649414062 3.5546875 l 1
 253.649414062 -80.8349609375 l 1
 81.958984375 -80.8349609375 l 1
 81.958984375 738.815429688 l 1xd0
EndSplineSet
Substitution2: "'rtla' Right to Left Alternates lookup 0 subtable" bracketright
EndChar

StartChar: backslash
Encoding: 92 92 62
Width: 397
GlyphClass: 2
Flags: MW
HStem: 670.315 20G<58.0078 137.513 137.513 137.513>
VStem: 58.0078 293.312
LayerCount: 2
Fore
SplineSet
58.0078125 690.315429688 m 1
 137.512695312 690.315429688 l 1
 351.3203125 -9.0546875 l 1
 271.815429688 -9.0546875 l 1
 58.0078125 690.315429688 l 1
EndSplineSet
EndChar

StartChar: bracketright
Encoding: 93 93 63
Width: 302
GlyphClass: 2
Flags: MW
HStem: -80.835 84.3896<61.5889 145.009 61.5889 233.279 61.5889 145.009> 654.425 84.3906<61.5889 145.009 61.5889 233.279>
VStem: 61.5889 171.69<-80.835 3.55469 3.55469 3.55469 654.425 738.815 -80.835 738.815> 145.009 88.2705<3.55469 654.425 654.425 654.425>
LayerCount: 2
Fore
SplineSet
145.008789062 654.424804688 m 1xd0
 61.5888671875 654.424804688 l 1
 61.5888671875 738.815429688 l 1
 233.279296875 738.815429688 l 1
 233.279296875 -80.8349609375 l 1
 61.5888671875 -80.8349609375 l 1
 61.5888671875 3.5546875 l 1xe0
 145.008789062 3.5546875 l 1
 145.008789062 654.424804688 l 1xd0
EndSplineSet
Substitution2: "'rtla' Right to Left Alternates lookup 0 subtable" bracketleft
EndChar

StartChar: asciicircum
Encoding: 94 94 64
Width: 515
GlyphClass: 2
Flags: MW
HStem: 670.315 20G<228.008 298.69 298.69 298.69>
LayerCount: 2
Fore
SplineSet
228.0078125 690.315429688 m 1
 298.690429688 690.315429688 l 1
 475.202148438 277.094726562 l 1
 394.799804688 277.094726562 l 1
 262.897460938 591.630859375 l 1
 131.91796875 277.094726562 l 1
 51.4970703125 277.094726562 l 1
 228.0078125 690.315429688 l 1
EndSplineSet
EndChar

StartChar: underscore
Encoding: 95 95 65
Width: 460
GlyphClass: 2
Flags: MW
HStem: -100.235 68.8701<4.35938 468.02 4.35938 468.02>
LayerCount: 2
Fore
SplineSet
4.359375 -31.365234375 m 1
 468.01953125 -31.365234375 l 1
 468.01953125 -100.235351562 l 1
 4.359375 -100.235351562 l 1
 4.359375 -31.365234375 l 1
EndSplineSet
EndChar

StartChar: grave
Encoding: 96 96 66
Width: 502
GlyphClass: 2
Flags: MW
HStem: 555.485 141.62<134.211 356.671 134.211 270.166>
VStem: 134.211 222.46<555.485 697.105>
LayerCount: 2
Fore
SplineSet
134.2109375 697.10546875 m 1
 244.5078125 697.10546875 l 1
 356.670898438 555.485351562 l 1
 270.166015625 555.485351562 l 1
 134.2109375 697.10546875 l 1
EndSplineSet
EndChar

StartChar: a
Encoding: 97 97 67
Width: 499
GlyphClass: 2
Flags: MW
HStem: -5.17578 73.7207<196.452 255.066> 231.505 68.8691<225.035 234.735 234.735 347.74> 443.935 75.6602<230.303 261.703 218.104 295.408>
VStem: 49.9502 86.3301<130.9 169.32 130.9 172.673> 64.499 84.3906<355.665 368.76 355.665 370.7 355.665 393.02> 347.74 86.3301<177.67 231.505 231.505 231.505 300.374 345.48 0.645508 346.449 0.645508 359.191>
LayerCount: 2
Fore
SplineSet
245.404296875 519.594726562 m 0xec
 278.001953125 519.594726562 434.0703125 518.876953125 434.0703125 345.48046875 c 2
 434.0703125 0.6455078125 l 1
 348.709960938 0.6455078125 l 1
 348.709960938 36.4970703125 l 1
 323.71875 13.134765625 287.037109375 -5.17578125 223.094726562 -5.17578125 c 0
 169.80859375 -5.17578125 127.043945312 7.4892578125 96.1630859375 34.158203125 c 0
 65.025390625 61.0498046875 49.9501953125 100.288085938 49.9501953125 149.5390625 c 0xf4
 49.9501953125 195.806640625 65.400390625 233.51953125 96.6416015625 260.548828125 c 0
 127.848632812 287.547851562 171.1015625 300.374023438 225.03515625 300.374023438 c 2
 347.740234375 300.374023438 l 1
 347.740234375 346.44921875 l 2
 347.740234375 371.93359375 344.44140625 443.934570312 246.375 443.934570312 c 0
 214.23046875 443.934570312 190.361328125 436.661132812 173.658203125 423.354492188 c 0
 157.077148438 410.146484375 148.889648438 392.684570312 148.889648438 368.759765625 c 2
 148.889648438 355.665039062 l 1
 64.4990234375 355.665039062 l 1
 64.4990234375 370.700195312 l 2
 64.4990234375 415.33984375 81.0361328125 452.252929688 113.776367188 479.420898438 c 0
 146.516601562 506.588867188 190.8046875 519.594726562 245.404296875 519.594726562 c 0xec
233.765625 68.544921875 m 0
 305.811523438 68.544921875 347.740234375 95.3203125 347.740234375 177.669921875 c 2
 347.740234375 231.504882812 l 1
 234.735351562 231.504882812 l 2
 149.73828125 231.504882812 136.280273438 188.130859375 136.280273438 150.509765625 c 0
 136.280273438 111.290039062 150.611328125 68.544921875 233.765625 68.544921875 c 0
EndSplineSet
EndChar

StartChar: b
Encoding: 98 98 68
Width: 513
GlyphClass: 2
Flags: MW
HStem: -5.1748 79.541<260.238 296.884 257.608 311.592> 439.085 80.5098<254.076 294.944> 670.316 20G<77.1104 163.44 163.44 163.44>
VStem: 77.1104 86.3301<0.645508 10.8311 190.779 211.621 211.621 297.951 466.677 690.316> 375.87 86.3291<210.651 303.771 303.771 307.65>
LayerCount: 2
Fore
SplineSet
163.440429688 466.676757812 m 1
 185.955078125 493.48046875 222.875976562 519.594726562 281.293945312 519.594726562 c 0
 334.018554688 519.594726562 378.076171875 502.264648438 411.79296875 467.515625 c 0
 446.1171875 432.140625 462.19921875 378.247070312 462.19921875 307.650390625 c 2
 462.19921875 206.770507812 l 2
 462.19921875 136.20703125 446.471679688 82.369140625 412.836914062 46.9814453125 c 0
 379.826171875 12.2509765625 337.040039062 -5.1748046875 286.14453125 -5.1748046875 c 0
 234.331054688 -5.1748046875 192.8203125 11.3349609375 163.439453125 44.2451171875 c 1
 163.439453125 33.107421875 163.440429688 21.96875 163.440429688 10.8310546875 c 2
 163.440429688 0.6455078125 l 1
 77.1103515625 0.6455078125 l 1
 77.1103515625 690.31640625 l 1
 163.440429688 690.31640625 l 1
 163.440429688 466.676757812 l 1
276.4453125 74.3662109375 m 0
 317.322265625 74.3662109375 375.870117188 88.599609375 375.870117188 210.651367188 c 2
 375.870117188 303.770507812 l 2
 375.870117188 422.889648438 317.321289062 439.084960938 272.56640625 439.084960938 c 0
 235.584960938 439.084960938 209.497070312 426.643554688 191.55859375 402.051757812 c 0
 173.155273438 376.821289062 163.440429688 342.415039062 163.440429688 297.951171875 c 2
 163.440429688 211.62109375 l 2
 163.440429688 169.9375 173.494140625 136.928710938 192.875 111.584960938 c 0
 211.770507812 86.8759765625 238.771484375 74.3662109375 276.4453125 74.3662109375 c 0
EndSplineSet
EndChar

StartChar: c
Encoding: 99 99 69
Width: 506
GlyphClass: 2
Flags: MW
HStem: -5.1748 79.54<245.664 282.081 245.664 292.239> 439.084 80.5098<246.635 282.706>
VStem: 61.5889 86.3311<206.77 210.65 210.65 303.771> 371.021 84.3896<167.97 168.94 168.94 183.005 142.874 183.005>
LayerCount: 2
Fore
SplineSet
61.5888671875 206.76953125 m 2
 61.5888671875 307.649414062 l 2
 61.5888671875 379.0234375 79.25390625 433.337890625 116.717773438 468.350585938 c 0
 153.538085938 502.76171875 202.770507812 519.59375 262.864257812 519.59375 c 0
 320.904296875 519.59375 368.147460938 504.151367188 403.09375 472.319335938 c 0
 438.029296875 440.497070312 455.409179688 397.583984375 455.409179688 345.479492188 c 2
 455.409179688 330.444335938 l 1
 371.01953125 330.444335938 l 1
 371.01953125 345.479492188 l 2
 371.01953125 376.290039062 361.624023438 398.55078125 343.461914062 414.442382812 c 0
 325.0703125 430.536132812 299.63671875 439.083984375 265.774414062 439.083984375 c 0
 227.49609375 439.083984375 199.036132812 428.857421875 178.725585938 409.416992188 c 0
 159.250976562 390.776367188 147.919921875 356.290039062 147.919921875 303.770507812 c 2
 147.919921875 210.650390625 l 2
 147.919921875 157.434570312 159.139648438 122.580078125 178.29296875 103.981445312 c 0
 198.258789062 84.5947265625 226.521484375 74.365234375 264.805664062 74.365234375 c 0
 299.356445312 74.365234375 325.110351562 82.947265625 343.462890625 99.0068359375 c 0
 361.625 114.8984375 371.020507812 137.159179688 371.020507812 167.969726562 c 2
 371.020507812 183.004882812 l 1
 455.41015625 183.004882812 l 1
 455.41015625 168.940429688 l 2
 455.41015625 116.807617188 437.840820312 73.876953125 402.572265625 42.0654296875 c 0
 367.37109375 10.314453125 320.642578125 -5.1748046875 263.834960938 -5.1748046875 c 0
 203.14453125 -5.1748046875 153.60546875 11.4541015625 116.755859375 45.548828125 c 0
 79.2265625 80.271484375 61.5888671875 134.779296875 61.5888671875 206.76953125 c 2
EndSplineSet
EndChar

StartChar: d
Encoding: 100 100 70
Width: 514
GlyphClass: 2
Flags: MW
HStem: -5.1748 79.54<227.322 266.553 227.322 267.635> 439.085 80.5098<229.324 264.022 212.863 269.715> 670.315 20G<360.35 447.649 447.649 447.649>
VStem: 61.5898 87.3008<206.771 210.65 210.65 303.771> 360.35 87.2998<0.645508 43.8311 43.8311 43.8311 466.348 690.315 0.645508 690.315>
LayerCount: 2
Fore
SplineSet
360.349609375 43.8310546875 m 1
 335.912109375 16.3896484375 297.625976562 -5.1748046875 237.64453125 -5.1748046875 c 0
 186.749023438 -5.1748046875 143.961914062 12.2509765625 110.952148438 46.9814453125 c 0
 77.31640625 82.369140625 61.58984375 136.20703125 61.58984375 206.770507812 c 2
 61.58984375 307.650390625 l 2
 61.58984375 378.212890625 77.3173828125 432.051757812 110.953125 467.439453125 c 0
 143.9921875 502.19921875 187.111328125 519.594726562 238.615234375 519.594726562 c 0
 289.4296875 519.594726562 330.53515625 501.616210938 360.349609375 466.34765625 c 1
 360.349609375 690.315429688 l 1
 447.649414062 690.315429688 l 1
 447.649414062 0.6455078125 l 1
 360.349609375 0.6455078125 l 1
 360.349609375 43.8310546875 l 1
148.890625 210.650390625 m 2
 148.890625 88.1923828125 207.298828125 74.365234375 247.345703125 74.365234375 c 0
 285.760742188 74.365234375 312.8828125 86.7939453125 331.388671875 111.083984375 c 0
 350.411132812 136.05078125 360.350585938 169.229492188 360.350585938 211.620117188 c 2
 360.350585938 297.950195312 l 2
 360.350585938 342.415039062 350.635742188 376.821289062 332.231445312 402.051757812 c 0
 314.293945312 426.643554688 288.205078125 439.084960938 251.225585938 439.084960938 c 0
 207.421875 439.084960938 148.890625 423.3828125 148.890625 303.770507812 c 2
 148.890625 210.650390625 l 2
EndSplineSet
EndChar

StartChar: e
Encoding: 101 101 71
Width: 506
GlyphClass: 2
Flags: MW
HStem: -5.1748 79.54<246.667 282.439 246.667 289.873> 233.445 69.8398<147.919 369.079 147.919 369.079 147.919 455.409> 439.085 80.5098<241.567 276.806>
VStem: 61.5889 86.3301<216.47 233.445 187.272 301.83 303.285 303.771> 367.139 84.3896<159.24 172.335 133.097 172.335>
LayerCount: 2
Fore
SplineSet
147.918945312 233.4453125 m 1
 147.918945312 214.530273438 l 2
 147.918945312 160.014648438 159.307617188 124.14453125 178.83203125 104.897460938 c 0
 199.1640625 84.8564453125 227.559570312 74.365234375 265.7734375 74.365234375 c 0
 299.104492188 74.365234375 323.787109375 82.36328125 341.13671875 97.1533203125 c 0
 358.376953125 111.849609375 367.138671875 131.825195312 367.138671875 159.240234375 c 2
 367.138671875 172.334960938 l 1
 451.528320312 172.334960938 l 1
 451.528320312 157.299804688 l 2
 451.528320312 108.893554688 434.301757812 68.82421875 400.002929688 39.029296875 c 0
 365.640625 9.1787109375 318.823242188 -5.1748046875 260.922851562 -5.1748046875 c 0
 201.313476562 -5.1748046875 152.4296875 12.7744140625 115.983398438 49.2197265625 c 0
 79.0205078125 86.1826171875 61.5888671875 142.580078125 61.5888671875 216.469726562 c 2
 61.5888671875 301.830078125 l 2
 61.5888671875 373.840820312 79.078125 429.127929688 116.018554688 465.719726562 c 0
 152.421875 501.780273438 200.629882812 519.594726562 258.984375 519.594726562 c 0
 317.336914062 519.594726562 365.40625 501.779296875 401.5 465.685546875 c 0
 438.098632812 429.0859375 455.409179688 373.823242188 455.409179688 301.830078125 c 2
 455.409179688 233.4453125 l 1
 147.918945312 233.4453125 l 1
147.918945312 303.770507812 m 2
 147.918945312 303.28515625 l 1
 369.079101562 303.28515625 l 1
 369.079101562 310.559570312 l 2
 369.079101562 360.504882812 358.384765625 393.251953125 340.166015625 410.918945312 c 0
 321.122070312 429.385742188 294.627929688 439.084960938 258.984375 439.084960938 c 0
 224.149414062 439.084960938 197.666992188 429.036132812 177.860351562 409.520507812 c 0
 158.967773438 390.90625 147.918945312 356.331054688 147.918945312 303.770507812 c 2
EndSplineSet
EndChar

StartChar: f
Encoding: 102 102 72
Width: 333
GlyphClass: 2
Flags: MW
HStem: 0.645508 21G<114.939 202.239 114.939 114.939> 440.055 72.75<52.8594 114.939 52.8594 114.939 202.239 305.06> 617.565 72.75<243.464 254.134 254.134 305.06>
VStem: 114.939 87.2998<0.645508 440.055 0.645508 440.055 512.805 557.91 557.91 560.82>
LayerCount: 2
Fore
SplineSet
254.133789062 617.565429688 m 2
 225.810546875 617.565429688 202.239257812 607.05859375 202.239257812 560.8203125 c 2
 202.239257812 512.8046875 l 1
 305.059570312 512.8046875 l 1
 305.059570312 440.0546875 l 1
 202.239257812 440.0546875 l 1
 202.239257812 0.6455078125 l 1
 114.939453125 0.6455078125 l 1
 114.939453125 440.0546875 l 1
 52.859375 440.0546875 l 1
 52.859375 512.8046875 l 1
 114.939453125 512.8046875 l 1
 114.939453125 557.91015625 l 2
 114.939453125 597.326171875 126.12890625 629.959960938 149.287109375 654.184570312 c 0
 172.532226562 678.502929688 204.556640625 690.315429688 243.463867188 690.315429688 c 2
 305.059570312 690.315429688 l 1
 305.059570312 617.565429688 l 1
 254.133789062 617.565429688 l 2
EndSplineSet
EndChar

StartChar: g
Encoding: 103 103 73
Width: 514
GlyphClass: 2
Flags: MW
HStem: -152.615 77.5996<240.297 282.386 240.297 284.899> -23.2363 20G<69.4502 155.224 155.224 155.224> 30.7139 80.5098<227.321 266.552 227.321 267.398> 442.964 79.54<229.478 264.16 212.876 269.714>
VStem: 61.5889 87.3008<243.629 247.509 247.509 306.679 186.28 311.529 186.28 346.808> 69.4502 85.7734<-3.23633 -3.23633> 360.35 87.2998<43.8096 49.6289 49.6289 80.6113 80.6113 80.6113 248.479 301.829 301.829 324.062 470.245 516.684>
LayerCount: 2
Fore
SplineSet
360.349609375 80.611328125 m 1xf6
 335.555664062 52.5908203125 297.15234375 30.7138671875 237.64453125 30.7138671875 c 0
 186.749023438 30.7138671875 143.961914062 48.140625 110.952148438 82.8701171875 c 0
 77.2958984375 118.279296875 61.5888671875 172.440429688 61.5888671875 243.62890625 c 2
 61.5888671875 311.529296875 l 2xfa
 61.5888671875 382.0859375 77.3095703125 435.7890625 110.987304688 470.870117188 c 0
 144.036132812 505.294921875 187.138671875 522.50390625 238.614257812 522.50390625 c 0
 289.705078125 522.50390625 330.83984375 504.905273438 360.349609375 470.245117188 c 1
 360.349609375 516.68359375 l 1
 447.649414062 516.68359375 l 1
 447.649414062 49.62890625 l 2
 447.649414062 -11.677734375 431.043945312 -61.4033203125 396.893554688 -97.96875 c 0
 362.622070312 -134.662109375 314.693359375 -152.615234375 255.104492188 -152.615234375 c 0
 201.876953125 -152.615234375 158.278320312 -140.635742188 125.286132812 -115.631835938 c 0
 75.57421875 -77.9560546875 71.7412109375 -31.189453125 69.4501953125 -3.236328125 c 1
 155.223632812 -3.236328125 l 1
 158.020507812 -21.69921875 160.728515625 -39.5712890625 185.731445312 -56.9462890625 c 0
 202.622070312 -68.6845703125 225.489257812 -75.015625 255.104492188 -75.015625 c 0
 309.66796875 -75.015625 360.349609375 -53.384765625 360.349609375 43.8095703125 c 2
 360.349609375 80.611328125 l 1xf6
148.889648438 247.508789062 m 2
 148.889648438 125.051757812 207.297851562 111.223632812 247.344726562 111.223632812 c 0
 285.759765625 111.223632812 312.881835938 123.653320312 331.387695312 147.943359375 c 0
 350.41015625 172.91015625 360.349609375 206.088867188 360.349609375 248.479492188 c 2
 360.349609375 301.829101562 l 2
 360.349609375 346.293945312 350.634765625 380.701171875 332.23046875 405.930664062 c 0
 314.29296875 430.522460938 288.204101562 442.963867188 251.224609375 442.963867188 c 0
 207.73046875 442.963867188 148.889648438 427.422851562 148.889648438 306.678710938 c 2
 148.889648438 247.508789062 l 2
EndSplineSet
EndChar

StartChar: h
Encoding: 104 104 74
Width: 524
GlyphClass: 2
Flags: MW
HStem: 0.645508 21G<77.1094 163.439 77.1094 77.1094> 439.084 79.5391<260.175 285.438> 670.315 20G<77.1094 163.438 163.438 163.438>
VStem: 77.1094 86.3301<0.645508 324.14 0.645508 690.315> 371.989 86.3301<0.644531 324.139 324.139 333.839 0.644531 343.712>
LayerCount: 2
Fore
SplineSet
163.438476562 690.315429688 m 1
 163.438476562 471.18359375 l 1
 194.088867188 502.752929688 235.176757812 518.623046875 285.172851562 518.623046875 c 0
 338.297851562 518.623046875 381.341796875 502.61328125 412.365234375 469.84765625 c 0
 443.415039062 437.053710938 458.319335938 391.163085938 458.319335938 333.838867188 c 2
 458.319335938 0.64453125 l 1
 371.989257812 0.64453125 l 1
 371.989257812 324.138671875 l 2
 371.989257812 363.286132812 362.37890625 391.44921875 344.680664062 410.2890625 c 0
 326.87109375 429.247070312 302.19140625 439.083984375 268.684570312 439.083984375 c 0
 235.926757812 439.083984375 210.982421875 429.159179688 192.088867188 409.684570312 c 0
 173.41015625 390.431640625 163.439453125 362.5 163.439453125 324.139648438 c 2
 163.439453125 0.6455078125 l 1
 77.109375 0.6455078125 l 1
 77.109375 690.315429688 l 1
 163.438476562 690.315429688 l 1
EndSplineSet
EndChar

StartChar: i
Encoding: 105 105 75
Width: 243
GlyphClass: 2
Flags: MW
HStem: 0.645508 21G<84.8691 171.199 84.8691 84.8691> 492.805 20G<84.8691 171.199 171.199 171.199> 572.945 107.67<82.9297 173.14 82.9297 173.14>
VStem: 84.8691 86.3301<0.645508 512.805 0.645508 512.805>
LayerCount: 2
Fore
SplineSet
84.869140625 512.8046875 m 1
 171.19921875 512.8046875 l 1
 171.19921875 0.6455078125 l 1
 84.869140625 0.6455078125 l 1
 84.869140625 512.8046875 l 1
82.9296875 680.615234375 m 1
 173.139648438 680.615234375 l 1
 173.139648438 572.9453125 l 1
 82.9296875 572.9453125 l 1
 82.9296875 680.615234375 l 1
EndSplineSet
EndChar

StartChar: j
Encoding: 106 106 76
Width: 235
GlyphClass: 2
Flags: MW
HStem: -146.795 80.5098<-24.7412 25.2139 25.2139 32.0039 -24.7412 25.2139> 492.805 20G<77.1094 163.439 163.439 163.439> 582.646 107.67<74.1992 164.409 74.1992 164.409>
VStem: 77.1094 86.3301<-3.71973 512.805>
LayerCount: 2
Fore
SplineSet
74.19921875 690.315429688 m 1
 164.409179688 690.315429688 l 1
 164.409179688 582.645507812 l 1
 74.19921875 582.645507812 l 1
 74.19921875 690.315429688 l 1
163.439453125 -7.599609375 m 2
 163.439453125 -59.837890625 146.27734375 -146.794921875 32.00390625 -146.794921875 c 2
 -24.7412109375 -146.794921875 l 1
 -24.7412109375 -66.28515625 l 1
 25.2138671875 -66.28515625 l 2
 45.55859375 -66.28515625 57.8662109375 -60.95703125 64.9169921875 -52.49609375 c 0
 72.2607421875 -43.68359375 77.109375 -27.80078125 77.109375 -3.7197265625 c 2
 77.109375 512.8046875 l 1
 163.439453125 512.8046875 l 1
 163.439453125 -7.599609375 l 2
EndSplineSet
EndChar

StartChar: k
Encoding: 107 107 77
Width: 496
GlyphClass: 2
Flags: MW
HStem: 0.645508 21G<77.1094 163.439 77.1094 77.1094 388.945 493.43 388.945 388.945> 492.805 20G<362.801 469.169 469.169 469.169> 670.315 20G<77.1094 163.439 163.439 163.439>
VStem: 77.1094 86.3301<0.645508 153.565 269.241 690.315>
LayerCount: 2
Fore
SplineSet
388.9453125 0.6455078125 m 1
 243.875 248.39453125 l 1
 163.439453125 153.565429688 l 1
 163.439453125 0.6455078125 l 1
 77.109375 0.6455078125 l 1
 77.109375 690.315429688 l 1
 163.439453125 690.315429688 l 1
 163.439453125 269.241210938 l 1
 362.80078125 512.8046875 l 1
 469.168945312 512.8046875 l 1
 301.580078125 315.399414062 l 1
 493.4296875 0.6455078125 l 1
 388.9453125 0.6455078125 l 1
EndSplineSet
EndChar

StartChar: l
Encoding: 108 108 78
Width: 281
GlyphClass: 2
Flags: MW
HStem: 0.645508 80.5098<197.458 265.289 215.334 265.289 215.334 265.289> 670.315 20G<77.1094 163.439 163.439 163.439>
VStem: 77.1094 86.3301<139.84 143.72 143.72 690.315>
LayerCount: 2
Fore
SplineSet
208.543945312 0.6455078125 m 2
 186.373046875 0.6455078125 77.109375 1.06640625 77.109375 139.83984375 c 2
 77.109375 690.315429688 l 1
 163.439453125 690.315429688 l 1
 163.439453125 143.719726562 l 2
 163.439453125 119.638671875 168.288085938 103.756835938 175.631835938 94.9443359375 c 0
 182.682617188 86.4833984375 194.989257812 81.1552734375 215.333984375 81.1552734375 c 2
 265.2890625 81.1552734375 l 1
 265.2890625 0.6455078125 l 1
 208.543945312 0.6455078125 l 2
EndSplineSet
EndChar

StartChar: m
Encoding: 109 109 79
Width: 820
GlyphClass: 2
Flags: MW
HStem: 0.644531 21G<371.02 458.319 371.02 371.02> 439.084 79.5391<253.055 307.904 253.055 318.91>
VStem: 77.1094 86.3301<0.645508 324.14 0.645508 512.806> 371.02 87.2998<0.644531 324.139 324.139 327.049 0.644531 336.467> 665.899 86.3301<0.643555 324.138 324.138 333.838 0.643555 336.466>
CounterMasks: 1 38
LayerCount: 2
Fore
SplineSet
371.01953125 324.138671875 m 2
 371.01953125 348.795898438 369.134765625 439.083984375 268.684570312 439.083984375 c 0
 235.926757812 439.083984375 210.982421875 429.159179688 192.088867188 409.684570312 c 0
 173.41015625 390.431640625 163.439453125 362.5 163.439453125 324.139648438 c 2
 163.439453125 0.6455078125 l 1
 77.109375 0.6455078125 l 1
 77.109375 512.805664062 l 1
 162.467773438 512.805664062 l 1
 162.467773438 471.088867188 l 1
 182.087890625 490.956054688 220.9375 518.623046875 285.172851562 518.623046875 c 0
 330.635742188 518.623046875 390.352539062 505.462890625 427.4765625 445.799804688 c 1
 461.723632812 494.115234375 512.051757812 518.623046875 576.173828125 518.623046875 c 0
 630.551757812 518.623046875 674.41015625 502.486328125 705.788085938 469.365234375 c 0
 737.115234375 436.296875 752.229492188 390.572265625 752.229492188 333.837890625 c 2
 752.229492188 0.6435546875 l 1
 665.899414062 0.6435546875 l 1
 665.899414062 324.137695312 l 2
 665.899414062 348.794921875 664.014648438 439.083007812 563.564453125 439.083007812 c 0
 529.40234375 439.083007812 504.237304688 429.077148438 486.109375 409.798828125 c 0
 467.920898438 390.456054688 458.319335938 363.41015625 458.319335938 327.048828125 c 2
 458.319335938 0.64453125 l 1
 371.01953125 0.64453125 l 1
 371.01953125 324.138671875 l 2
EndSplineSet
EndChar

StartChar: n
Encoding: 110 110 80
Width: 524
GlyphClass: 2
Flags: MW
HStem: 0.645508 21G<77.1094 163.439 77.1094 77.1094> 439.084 79.54<252.535 285.438>
VStem: 77.1094 86.3301<0.645508 324.14 0.645508 512.806> 371.989 86.3301<0.644531 324.139 324.139 333.839 0.644531 343.712>
LayerCount: 2
Fore
SplineSet
162.469726562 471.603515625 m 1
 181.552734375 491.220703125 219.896484375 518.624023438 285.173828125 518.624023438 c 0
 339.5390625 518.624023438 383.002929688 502.487304688 413.451171875 469.239257812 c 0
 443.751953125 436.15234375 458.319335938 390.50390625 458.319335938 333.838867188 c 2
 458.319335938 0.64453125 l 1
 371.989257812 0.64453125 l 1
 371.989257812 324.138671875 l 2
 371.989257812 363.286132812 362.37890625 391.44921875 344.680664062 410.2890625 c 0
 326.87109375 429.247070312 302.19140625 439.083984375 268.684570312 439.083984375 c 0
 235.926757812 439.083984375 210.982421875 429.159179688 192.088867188 409.684570312 c 0
 173.41015625 390.431640625 163.439453125 362.5 163.439453125 324.139648438 c 2
 163.439453125 0.6455078125 l 1
 77.109375 0.6455078125 l 1
 77.109375 512.805664062 l 1
 162.469726562 512.805664062 l 1
 162.469726562 471.603515625 l 1
EndSplineSet
EndChar

StartChar: o
Encoding: 111 111 81
Width: 508
GlyphClass: 2
Flags: MW
HStem: -5.1748 79.54<242.814 278.344 242.814 290.041> 439.084 80.5107<242.814 278.344>
VStem: 61.5889 86.3301<206.771 210.65 210.65 303.771> 371.02 86.3291<210.649 303.77 303.77 307.65>
LayerCount: 2
Fore
SplineSet
61.5888671875 206.770507812 m 2
 61.5888671875 307.650390625 l 2
 61.5888671875 379.005859375 79.0751953125 433.296875 116.198242188 468.318359375 c 0
 152.684570312 502.740234375 201.451171875 519.594726562 260.922851562 519.594726562 c 0
 319.158203125 519.594726562 367.130859375 502.693359375 403.259765625 468.28515625 c 0
 440.04296875 433.25390625 457.348632812 378.987304688 457.348632812 307.650390625 c 2
 457.348632812 206.770507812 l 2
 457.348632812 135.432617188 440.04296875 81.166015625 403.259765625 46.134765625 c 0
 367.130859375 11.7265625 319.158203125 -5.1748046875 260.922851562 -5.1748046875 c 0
 201.473632812 -5.1748046875 152.728515625 11.498046875 116.235351562 45.5810546875 c 0
 79.046875 80.314453125 61.5888671875 134.797851562 61.5888671875 206.770507812 c 2
371.01953125 210.649414062 m 2
 371.01953125 303.76953125 l 2
 371.01953125 356.350585938 360.111328125 390.970703125 341.508789062 409.573242188 c 0
 322.046875 429.03515625 295.763671875 439.083984375 260.923828125 439.083984375 c 0
 224.704101562 439.083984375 197.591796875 428.959960938 177.860351562 409.51953125 c 0
 158.967773438 390.905273438 147.918945312 356.331054688 147.918945312 303.770507812 c 2
 147.918945312 210.650390625 l 2
 147.918945312 157.415039062 158.997070312 122.515625 177.860351562 103.928710938 c 0
 197.591796875 84.4892578125 224.704101562 74.365234375 260.923828125 74.365234375 c 0
 295.763671875 74.365234375 322.046875 84.4140625 341.508789062 103.875976562 c 0
 360.083007812 122.450195312 371.01953125 157.39453125 371.01953125 210.649414062 c 2
EndSplineSet
EndChar

StartChar: p
Encoding: 112 112 82
Width: 513
GlyphClass: 2
Flags: MW
HStem: -5.1748 79.5391<260.238 296.883 257.607 311.578> 439.083 79.541<254.075 294.77>
VStem: 77.1094 86.3301<-146.795 44.2461 190.777 211.619 211.619 297.949 467.237 512.805> 375.869 86.3301<210.649 302.798 302.798 307.65>
LayerCount: 2
Fore
SplineSet
163.439453125 467.237304688 m 1
 175.275390625 481.287109375 210.594726562 518.624023438 281.293945312 518.624023438 c 0
 333.991210938 518.624023438 378.03125 501.479492188 411.7578125 467.06640625 c 0
 446.124023438 431.999023438 462.19921875 378.240234375 462.19921875 307.650390625 c 2
 462.19921875 206.770507812 l 2
 462.19921875 135.587890625 446.5 81.5615234375 412.80078125 46.458984375 c 0
 379.78125 12.0634765625 337.01171875 -5.1748046875 286.14453125 -5.1748046875 c 0
 234.331054688 -5.1748046875 192.819335938 11.3349609375 163.439453125 44.24609375 c 1
 163.439453125 -146.794921875 l 1
 77.109375 -146.794921875 l 1
 77.109375 512.8046875 l 1
 163.439453125 512.8046875 l 1
 163.439453125 467.237304688 l 1
276.444335938 74.3642578125 m 0
 317.321289062 74.3642578125 375.869140625 88.59765625 375.869140625 210.649414062 c 2
 375.869140625 302.797851562 l 2
 375.869140625 423.079101562 316.974609375 439.083007812 272.565429688 439.083007812 c 0
 235.583984375 439.083007812 209.49609375 426.641601562 191.557617188 402.049804688 c 0
 173.154296875 376.819335938 163.439453125 342.413085938 163.439453125 297.94921875 c 2
 163.439453125 211.619140625 l 2
 163.439453125 169.935546875 173.493164062 136.926757812 192.874023438 111.583007812 c 0
 211.76953125 86.8740234375 238.770507812 74.3642578125 276.444335938 74.3642578125 c 0
EndSplineSet
EndChar

StartChar: q
Encoding: 113 113 83
Width: 514
GlyphClass: 2
Flags: MW
HStem: -5.1748 79.54<227.321 263.551> 439.085 79.54<229.478 252.108 216.146 269.714>
VStem: 61.5889 87.3008<206.771 210.65 210.65 302.8> 360.35 87.2998<-146.795 44.2461 44.2461 44.2461 211.62 297.95 297.95 320.183 467.237 512.805 -146.795 512.805>
LayerCount: 2
Fore
SplineSet
242.494140625 518.625 m 0
 261.721679688 518.625 318.897460938 516.443359375 360.349609375 467.237304688 c 1
 360.349609375 512.8046875 l 1
 447.649414062 512.8046875 l 1
 447.649414062 -146.794921875 l 1
 360.349609375 -146.794921875 l 1
 360.349609375 44.24609375 l 1
 330.96875 11.3349609375 289.458007812 -5.1748046875 237.64453125 -5.1748046875 c 0
 186.776367188 -5.1748046875 144.006835938 12.0634765625 110.987304688 46.458984375 c 0
 77.2890625 81.5615234375 61.5888671875 135.587890625 61.5888671875 206.770507812 c 2
 61.5888671875 307.650390625 l 2
 61.5888671875 378.241210938 77.6650390625 432 112.03125 467.067382812 c 0
 145.756835938 501.48046875 189.796875 518.625 242.494140625 518.625 c 0
148.889648438 210.650390625 m 2
 148.889648438 88.1923828125 207.297851562 74.365234375 247.344726562 74.365234375 c 0
 285.759765625 74.365234375 312.881835938 86.7939453125 331.387695312 111.083984375 c 0
 350.41015625 136.05078125 360.349609375 169.229492188 360.349609375 211.620117188 c 2
 360.349609375 297.950195312 l 2
 360.349609375 342.415039062 350.634765625 376.821289062 332.23046875 402.051757812 c 0
 314.29296875 426.643554688 288.204101562 439.084960938 251.224609375 439.084960938 c 0
 207.73046875 439.084960938 148.889648438 423.543945312 148.889648438 302.799804688 c 2
 148.889648438 210.650390625 l 2
EndSplineSet
EndChar

StartChar: r
Encoding: 114 114 84
Width: 343
GlyphClass: 2
Flags: MW
HStem: 0.645508 21G<77.1094 163.439 77.1094 77.1094> 438.115 81.4795<251.169 279.495>
VStem: 77.1094 86.3301<0.645508 322.2 0.645508 512.805>
LayerCount: 2
Fore
SplineSet
162.470703125 469.180664062 m 1
 180.29296875 489.791992188 217.151367188 519.594726562 281.294921875 519.594726562 c 0
 300.576171875 519.594726562 311.975585938 517.6953125 327.370117188 515.12890625 c 1
 327.370117188 426.407226562 l 1
 304.645507812 433.981445312 292.245117188 438.115234375 266.745117188 438.115234375 c 0
 235.592773438 438.115234375 211.390625 427.661132812 192.340820312 406.559570312 c 0
 173.262695312 385.427734375 163.439453125 357.78125 163.439453125 322.200195312 c 2
 163.439453125 0.6455078125 l 1
 77.109375 0.6455078125 l 1
 77.109375 512.8046875 l 1
 162.470703125 512.8046875 l 1
 162.470703125 469.180664062 l 1
EndSplineSet
EndChar

StartChar: s
Encoding: 115 115 85
Width: 465
GlyphClass: 2
Flags: MW
HStem: -5.1748 76.6279<223.508 260.023 223.508 294.336> 444.904 74.6895<224.122 257.316>
VStem: 49.9473 84.3896<148.568 149.538 149.538 162.633 137.377 162.633> 57.708 84.3906<357.485 383.268 357.485 391.446> 348.708 84.3906<114.22 158.906>
LayerCount: 2
Fore
SplineSet
433.098632812 151.48046875 m 0xd8
 433.098632812 48.1845703125 351.029296875 -5.1748046875 237.643554688 -5.1748046875 c 0
 182.354492188 -5.1748046875 136.857421875 8.189453125 102.279296875 35.853515625 c 0
 67.5244140625 63.6572265625 49.947265625 101.93359375 49.947265625 148.568359375 c 2
 49.947265625 162.6328125 l 1
 134.336914062 162.6328125 l 1
 134.336914062 149.538085938 l 2xe8
 134.336914062 125.215820312 143.251953125 107.15234375 161.799804688 93.1708984375 c 0
 180.532226562 79.0498046875 206.461914062 71.453125 240.553710938 71.453125 c 0
 279.493164062 71.453125 348.708007812 80.8427734375 348.708007812 147.59765625 c 0
 348.708007812 170.213867188 342.232421875 184.745117188 330.712890625 193.9609375 c 0
 318.348632812 203.852539062 296.500976562 212.401367188 264.982421875 218.075195312 c 0
 264.9296875 218.083984375 203.862304688 228.747070312 203.862304688 228.747070312 c 2
 103.064453125 246.455078125 57.7080078125 287.91796875 57.7080078125 368.758789062 c 0
 57.7080078125 414.1328125 74.98046875 451.573242188 109.038085938 479.02734375 c 0
 142.881835938 506.30859375 186.452148438 519.59375 238.61328125 519.59375 c 0
 294.458007812 519.59375 340.1953125 506.784179688 374.798828125 480.138671875 c 0
 409.41796875 453.481445312 427.278320312 417.654296875 427.278320312 374.579101562 c 2
 427.278320312 358.57421875 l 1
 342.888671875 358.57421875 l 1
 342.888671875 371.668945312 l 2
 342.888671875 394.692382812 334.475585938 411.586914062 316.943359375 424.594726562 c 0
 299.239257812 437.729492188 274.078125 444.904296875 240.553710938 444.904296875 c 0
 207.690429688 444.904296875 183.4453125 437.733398438 166.783203125 424.7421875 c 0
 150.204101562 411.817382812 142.098632812 394.866210938 142.098632812 371.668945312 c 0
 142.098632812 343.301757812 153.184570312 317.494140625 219.104492188 306.030273438 c 2
 283.170898438 294.381835938 l 2
 332.64453125 285.147460938 370.166015625 270.09765625 395.233398438 247.85546875 c 0
 420.8203125 225.151367188 433.098632812 192.279296875 433.098632812 151.48046875 c 0xd8
EndSplineSet
EndChar

StartChar: t
Encoding: 116 116 86
Width: 346
GlyphClass: 2
Flags: MW
HStem: 0.645508 78.5703<223.73 303.12 254.135 303.12 254.135 303.12> 440.055 72.75<37.3389 113.97 37.3389 113.97 201.27 311.85>
VStem: 113.97 87.3008<133.05 186.643 113.276 440.055>
LayerCount: 2
Fore
SplineSet
201.270507812 135.9609375 m 0
 201.270507812 90.591796875 224.319335938 79.2158203125 254.134765625 79.2158203125 c 2
 303.120117188 79.2158203125 l 1
 303.120117188 0.6455078125 l 1
 243.46484375 0.6455078125 l 2
 203.995117188 0.6455078125 171.66796875 12.2216796875 148.370117188 36.236328125 c 0
 125.12109375 60.19921875 113.969726562 93.0380859375 113.969726562 133.049804688 c 2
 113.969726562 440.0546875 l 1
 37.3388671875 440.0546875 l 1
 37.3388671875 512.8046875 l 1
 113.969726562 512.8046875 l 1
 113.969726562 621.64453125 l 1
 201.26953125 662.131835938 l 1
 201.26953125 512.8046875 l 1
 311.849609375 512.8046875 l 1
 311.849609375 440.0546875 l 1
 201.26953125 440.0546875 l 1
 201.26953125 338.690429688 201.270507812 237.325195312 201.270507812 135.9609375 c 0
EndSplineSet
EndChar

StartChar: u
Encoding: 117 117 87
Width: 524
GlyphClass: 2
Flags: MW
HStem: -5.1748 79.54<247.865 287.598 247.865 346.391> 492.805 20G<77.1094 163.439 163.439 163.439 371.989 458.319 458.319 458.319>
VStem: 77.1094 86.3301<191.25 199.98 199.98 512.805> 371.989 86.3301<199.98 512.805>
LayerCount: 2
Fore
SplineSet
458.319335938 191.25 m 2
 458.319335938 103.311523438 426.038085938 -5.1748046875 266.744140625 -5.1748046875 c 0
 205.494140625 -5.1748046875 157.528320312 11.4013671875 124.975585938 46.0546875 c 0
 92.5908203125 80.529296875 77.109375 129.478515625 77.109375 191.25 c 2
 77.109375 512.8046875 l 1
 163.439453125 512.8046875 l 1
 163.439453125 199.98046875 l 2
 163.439453125 155.90625 172.094726562 124.329101562 187.512695312 104.342773438 c 0
 202.341796875 85.12109375 228.016601562 74.365234375 267.713867188 74.365234375 c 0
 307.481445312 74.365234375 333.223632812 84.8740234375 348.00390625 103.486328125 c 0
 363.259765625 122.696289062 371.989257812 154.544921875 371.989257812 199.98046875 c 2
 371.989257812 512.8046875 l 1
 458.319335938 512.8046875 l 1
 458.319335938 191.25 l 2
EndSplineSet
EndChar

StartChar: v
Encoding: 118 118 88
Width: 443
GlyphClass: 2
Flags: MW
HStem: 0.645508 21G<190.613 264.306 190.613 190.613> 492.805 20G<13.832 107.311 107.311 107.311 348.578 441.087 441.087 441.087>
LayerCount: 2
Fore
SplineSet
13.83203125 512.8046875 m 1
 107.310546875 512.8046875 l 1
 227.944335938 140.850585938 l 1
 348.578125 512.8046875 l 1
 441.086914062 512.8046875 l 1
 264.305664062 0.6455078125 l 1
 190.61328125 0.6455078125 l 1
 13.83203125 512.8046875 l 1
EndSplineSet
EndChar

StartChar: w
Encoding: 119 119 89
Width: 712
GlyphClass: 2
Flags: MW
HStem: 0.645508 21G<169.951 244.179 169.951 169.951 476.537 551.717 476.537 476.537> 492.805 20G<14.3838 107.625 107.625 107.625 325.199 395.5 395.5 395.5 614.062 707.284 707.284 707.284>
LayerCount: 2
Fore
SplineSet
14.3837890625 512.8046875 m 1
 107.625 512.8046875 l 1
 210.97265625 144.743164062 l 1
 325.19921875 512.8046875 l 1
 395.5 512.8046875 l 1
 509.768554688 144.60546875 l 1
 614.061523438 512.8046875 l 1
 707.284179688 512.8046875 l 1
 551.716796875 0.6455078125 l 1
 476.537109375 0.6455078125 l 1
 359.90234375 373.331054688 l 1
 244.178710938 0.6455078125 l 1
 169.951171875 0.6455078125 l 1
 14.3837890625 512.8046875 l 1
EndSplineSet
EndChar

StartChar: x
Encoding: 120 120 90
Width: 425
GlyphClass: 2
Flags: MW
HStem: 0.645508 21G<9.93457 104.672 9.93457 9.93457 332.811 427.498 332.811 332.811> 492.805 20G<19.6846 114.344 114.344 114.344 323.036 418.059 418.059 418.059>
LayerCount: 2
Fore
SplineSet
332.810546875 0.6455078125 m 1
 218.279296875 188.14453125 l 1
 104.671875 0.6455078125 l 1
 9.9345703125 0.6455078125 l 1
 171.38671875 264.014648438 l 1
 19.6845703125 512.8046875 l 1
 114.34375 512.8046875 l 1
 220.069335938 339.966796875 l 1
 323.036132812 512.8046875 l 1
 418.05859375 512.8046875 l 1
 264.17578125 267.807617188 l 1
 427.498046875 0.6455078125 l 1
 332.810546875 0.6455078125 l 1
EndSplineSet
EndChar

StartChar: y
Encoding: 121 121 91
Width: 443
GlyphClass: 2
Flags: MW
HStem: -146.795 80.5098<69.3496 103.784 103.784 108.634 69.3496 103.784> 492.805 20G<13.8125 107.271 107.271 107.271 350.559 441.111 441.111 441.111>
LayerCount: 2
Fore
SplineSet
108.633789062 -146.794921875 m 2
 69.349609375 -146.794921875 l 1
 69.349609375 -66.28515625 l 1
 103.784179688 -66.28515625 l 2
 126.454101562 -66.28515625 141.897460938 -61.5576171875 151.211914062 -54.0048828125 c 0
 161.037109375 -46.0390625 170.159179688 -32.0283203125 177.551757812 -11.1318359375 c 2
 186.163085938 15.564453125 l 1
 13.8125 512.8046875 l 1
 107.270507812 512.8046875 l 1
 228.9140625 144.21484375 l 1
 350.55859375 512.8046875 l 1
 441.111328125 512.8046875 l 1
 247.251953125 -45.90625 l 2
 222.745117188 -115.341796875 180.4453125 -146.794921875 108.633789062 -146.794921875 c 2
EndSplineSet
EndChar

StartChar: z
Encoding: 122 122 92
Width: 459
GlyphClass: 2
Flags: MW
HStem: 0.645508 81.4795<164.857 409.819 164.857 409.819> 431.325 81.4795<61.5889 409.819 61.5889 304.694>
LayerCount: 2
Fore
SplineSet
61.5888671875 431.325195312 m 1
 61.5888671875 512.8046875 l 1
 409.819335938 512.8046875 l 1
 409.819335938 438.34765625 l 1
 164.857421875 82.125 l 1
 409.819335938 82.125 l 1
 409.819335938 0.6455078125 l 1
 61.5888671875 0.6455078125 l 1
 61.5888671875 75.0830078125 l 1
 304.694335938 431.325195312 l 1
 61.5888671875 431.325195312 l 1
EndSplineSet
EndChar

StartChar: braceleft
Encoding: 123 123 93
Width: 346
GlyphClass: 2
Flags: MW
HStem: -80.835 79.54<208.728 297.299 253.164 297.299 253.164 297.299> 289.97 82.8906<61.5889 61.5889> 659.275 79.54<241.747 253.164 253.164 297.299>
VStem: 129.489 89.2402<36.0498 37.9902 37.9902 216.47 441.51 446.36 446.36 619.99>
LayerCount: 2
Fore
SplineSet
238.614257812 -80.8349609375 m 2
 178.840820312 -80.8349609375 129.489257812 -53.6689453125 129.489257812 36.0498046875 c 2
 129.489257812 221.3203125 l 2
 129.489257812 248.078125 124.215820312 265.336914062 116.448242188 274.317382812 c 0
 103.874023438 288.856445312 81.607421875 289.442382812 61.5888671875 289.969726562 c 1
 61.5888671875 372.860351562 l 1
 81.607421875 373.387695312 103.874023438 373.973632812 116.448242188 388.512695312 c 0
 124.215820312 397.493164062 129.489257812 414.751953125 129.489257812 441.509765625 c 2
 129.489257812 621.9296875 l 2
 129.489257812 660.12109375 137.087890625 738.815429688 238.614257812 738.815429688 c 2
 297.298828125 738.815429688 l 1
 297.298828125 659.275390625 l 1
 253.1640625 659.275390625 l 2
 230.330078125 659.275390625 218.729492188 651.379882812 218.729492188 619.990234375 c 2
 218.729492188 446.360351562 l 2
 218.729492188 381.252929688 206.306640625 350.712890625 174.2265625 331.071289062 c 1
 205.18359375 312.677734375 218.729492188 284.07421875 218.729492188 216.469726562 c 2
 218.729492188 37.990234375 l 2
 218.729492188 6.59765625 230.333007812 -1.294921875 253.1640625 -1.294921875 c 2
 297.298828125 -1.294921875 l 1
 297.298828125 -80.8349609375 l 1
 238.614257812 -80.8349609375 l 2
EndSplineSet
Substitution2: "'rtla' Right to Left Alternates lookup 0 subtable" braceright
EndChar

StartChar: bar
Encoding: 124 124 94
Width: 310
GlyphClass: 2
Flags: MW
VStem: 118.819 85.3604<-79.8652 738.815 -79.8652 738.815>
LayerCount: 2
Fore
SplineSet
118.819335938 738.815429688 m 1
 204.1796875 738.815429688 l 1
 204.1796875 -79.865234375 l 1
 118.819335938 -79.865234375 l 1
 118.819335938 738.815429688 l 1
EndSplineSet
EndChar

StartChar: braceright
Encoding: 125 125 95
Width: 346
GlyphClass: 2
Flags: MW
HStem: -80.835 79.54<61.5889 105.725 105.725 117.142 61.5889 120.274 61.5889 105.725> 289.97 82.8906<297.299 297.299> 659.275 79.54<61.5889 105.725 61.5889 120.274>
VStem: 140.159 89.2402<37.9902 216.47 216.47 221.32 446.36 619.99 619.99 621.93>
LayerCount: 2
Fore
SplineSet
229.399414062 36.0498046875 m 2
 229.399414062 -2.1416015625 221.80078125 -80.8349609375 120.274414062 -80.8349609375 c 2
 61.5888671875 -80.8349609375 l 1
 61.5888671875 -1.294921875 l 1
 105.724609375 -1.294921875 l 2
 128.55859375 -1.294921875 140.159179688 6.599609375 140.159179688 37.990234375 c 2
 140.159179688 216.469726562 l 2
 140.159179688 284.091796875 153.713867188 312.682617188 184.662109375 331.071289062 c 1
 152.571289062 350.719726562 140.159179688 381.274414062 140.159179688 446.360351562 c 2
 140.159179688 619.990234375 l 2
 140.159179688 651.3828125 128.555664062 659.275390625 105.724609375 659.275390625 c 2
 61.5888671875 659.275390625 l 1
 61.5888671875 738.815429688 l 1
 120.274414062 738.815429688 l 2
 180.047851562 738.815429688 229.399414062 711.649414062 229.399414062 621.9296875 c 2
 229.399414062 441.509765625 l 2
 229.399414062 414.751953125 234.672851562 397.493164062 242.439453125 388.512695312 c 0
 255.014648438 373.973632812 277.28125 373.387695312 297.298828125 372.860351562 c 1
 297.298828125 289.969726562 l 1
 277.28125 289.442382812 255.014648438 288.856445312 242.439453125 274.317382812 c 0
 234.672851562 265.336914062 229.399414062 248.078125 229.399414062 221.3203125 c 2
 229.399414062 36.0498046875 l 2
EndSplineSet
Substitution2: "'rtla' Right to Left Alternates lookup 0 subtable" braceleft
EndChar

StartChar: asciitilde
Encoding: 126 126 96
Width: 515
GlyphClass: 2
Flags: MW
HStem: 206.285 82.4502<334.162 354.456> 268.365 81.4795<169.355 189.441>
LayerCount: 2
Fore
SplineSet
182.353515625 268.365234375 m 0x40
 150.263671875 268.365234375 136.411132812 249.1328125 111.186523438 206.25 c 1
 47.12109375 245.473632812 l 1
 56.849609375 266.78515625 72.369140625 300.779296875 106.614257812 325.166992188 c 0
 129.583007812 341.5234375 155.38671875 349.844726562 183.323242188 349.844726562 c 0x40
 210.625976562 349.844726562 229.430664062 344.392578125 278.73046875 314.469726562 c 0
 319.463867188 290.713867188 326.890625 288.735351562 341.43359375 288.735351562 c 0
 375.962890625 288.735351562 391.696289062 313.05078125 413.565429688 351.034179688 c 1
 477.784179688 310.40625 l 1
 467.490234375 289.3515625 451.32421875 256.28515625 417.255859375 231.5078125 c 0
 394.287109375 214.803710938 368.448242188 206.28515625 340.463867188 206.28515625 c 0x80
 315.158203125 206.28515625 291.491210938 211.2890625 244.700195312 241.8828125 c 0
 207.813476562 265.939453125 196.528320312 268.365234375 182.353515625 268.365234375 c 0x40
EndSplineSet
EndChar

StartChar: exclamdown
Encoding: 161 161 98
Width: 248
GlyphClass: 2
Flags: MW
HStem: 401.255 111.55<77.1094 184.779 77.1094 184.779>
VStem: 77.1094 107.67<401.255 512.805 401.255 512.805> 93.9023 74.084<322.685 322.685>
LayerCount: 2
Fore
SplineSet
77.109375 512.8046875 m 1xc0
 184.779296875 512.8046875 l 1
 184.779296875 401.254882812 l 1
 77.109375 401.254882812 l 1
 77.109375 512.8046875 l 1xc0
167.986328125 322.684570312 m 1xa0
 182.181640625 -146.794921875 l 1
 79.70703125 -146.794921875 l 1
 93.90234375 322.684570312 l 1
 167.986328125 322.684570312 l 1xa0
EndSplineSet
EndChar

StartChar: cent
Encoding: 162 162 99
Width: 506
GlyphClass: 2
Flags: MW
HStem: -3.52637 80.1299<291.479 291.479> 436.883 81.0635<291.479 291.479>
VStem: 61.5889 86.3301<206.771 210.651 210.651 303.771> 214.851 76.6289<81.3174 431.85 431.85 431.85> 371.02 84.3896<167.97 168.94 168.94 183.005 144.246 183.005 330.445 345.48>
LayerCount: 2
Fore
SplineSet
291.479492188 76.603515625 m 1
 321.385742188 81.2353515625 371.01953125 99.271484375 371.01953125 167.969726562 c 2
 371.01953125 183.004882812 l 1
 455.409179688 183.004882812 l 1
 455.409179688 168.940429688 l 2
 455.409179688 119.55078125 439.786132812 78.291015625 408.290039062 46.794921875 c 0
 378.748046875 17.2529296875 339.397460938 0.6396484375 291.479492188 -3.5263671875 c 1
 291.479492188 -96.3544921875 l 1
 214.849609375 -96.3544921875 l 1
 214.849609375 -0.8037109375 l 1
 169.672851562 7.07421875 132.751953125 26.9970703125 105.26953125 59.005859375 c 0
 75.578125 93.587890625 61.5888671875 143.287109375 61.5888671875 206.770507812 c 2
 61.5888671875 307.650390625 l 2
 61.5888671875 371.120117188 75.4072265625 420.926757812 104.712890625 455.814453125 c 0
 131.938476562 488.225585938 169.071289062 508.328125 214.849609375 516.2109375 c 1
 214.849609375 609.8046875 l 1
 291.479492188 609.8046875 l 1
 291.479492188 517.946289062 l 1
 339.397460938 513.780273438 378.748046875 497.16796875 408.290039062 467.625976562 c 0
 439.786132812 436.12890625 455.409179688 394.869140625 455.409179688 345.48046875 c 2
 455.409179688 330.4453125 l 1
 371.01953125 330.4453125 l 1
 371.01953125 345.481445312 l 2
 371.01953125 378.501953125 359.0078125 426.71875 291.479492188 436.8828125 c 1
 291.479492188 76.603515625 l 1
214.850585938 431.849609375 m 1
 158.693359375 412.060546875 147.918945312 357.814453125 147.918945312 303.770507812 c 2
 147.918945312 210.651367188 l 2
 147.918945312 157.008789062 158.301757812 100.059570312 214.850585938 81.3173828125 c 1
 214.850585938 431.849609375 l 1
EndSplineSet
EndChar

StartChar: sterling
Encoding: 163 163 100
Width: 440
GlyphClass: 2
Flags: MW
HStem: 0.645508 86.3291<170.664 415.64 170.664 415.64> 281.945 84.3896<192.539 327.369 192.539 327.369> 613.686 86.3301<244.588 280.727 233.939 286.145>
VStem: 100.39 92.1494<170.881 179.61 179.61 281.945 366.336 522.991 522.991 533.66> 321.549 90.21<532.206 542.391 532.206 553.167>
LayerCount: 2
Fore
SplineSet
192.5390625 179.610351562 m 2
 192.5390625 136.091796875 183.944335938 108.294921875 170.6640625 86.974609375 c 1
 415.639648438 86.974609375 l 1
 415.639648438 0.6455078125 l 1
 56.7392578125 0.6455078125 l 1
 56.7392578125 76.615234375 l 1
 77.9375 89.8642578125 100.389648438 105.203125 100.389648438 170.880859375 c 2
 100.389648438 281.946289062 l 1
 36.369140625 281.946289062 l 1
 36.369140625 366.3359375 l 1
 100.389648438 366.3359375 l 1
 100.389648438 522.991210938 l 2
 100.389648438 577.02734375 113.94921875 620.668945312 142.25 652.462890625 c 0
 170.590820312 684.302734375 209.864257812 700.015625 258.014648438 700.015625 c 0
 303.438476562 700.015625 341.16015625 686.076171875 369.489257812 657.74609375 c 0
 397.947265625 629.2890625 411.758789062 590.244140625 411.758789062 542.390625 c 2
 411.758789062 532.206054688 l 1
 321.548828125 532.206054688 l 1
 321.548828125 542.390625 l 2
 321.548828125 563.942382812 315.245117188 613.685546875 257.043945312 613.685546875 c 0
 232.131835938 613.685546875 192.5390625 605.17578125 192.5390625 533.66015625 c 2
 192.5390625 366.334960938 l 1
 327.369140625 366.334960938 l 1
 327.369140625 281.9453125 l 1
 192.5390625 281.9453125 l 1
 192.5390625 179.610351562 l 2
EndSplineSet
EndChar

StartChar: currency
Encoding: 164 164 101
Width: 613
GlyphClass: 2
Flags: MW
HStem: 126.745 79.54<294.155 328.57 294.155 331.54> 449.755 79.54<294.155 328.57>
VStem: 110.088 82.4492<310.429 345.611 310.429 348.463> 430.188 82.4521<310.429 345.611>
LayerCount: 2
Fore
SplineSet
110.087890625 328.020507812 m 0
 110.087890625 368.905273438 120.716796875 405.623046875 141.985351562 437.4921875 c 1
 73.01953125 507.444335938 l 1
 131.784179688 567.487304688 l 1
 201.970703125 498.2890625 l 1
 233.838867188 518.975585938 270.518554688 529.294921875 311.36328125 529.294921875 c 0
 351.633789062 529.294921875 387.98828125 518.959960938 419.7890625 498.291015625 c 1
 489.895507812 567.41015625 l 1
 549.834960938 507.469726562 l 1
 480.627929688 438.262695312 l 1
 501.904296875 404.853515625 512.639648438 367.922851562 512.639648438 328.020507812 c 0
 512.639648438 287.685546875 501.987304688 251.036132812 480.759765625 218.700195312 c 1
 550.780273438 149.666992188 l 1
 490.890625 88.5029296875 l 1
 420.735351562 158.658203125 l 1
 388.38671875 137.408203125 351.717773438 126.745117188 311.362304688 126.745117188 c 0
 270.43359375 126.745117188 233.439453125 137.392578125 201.024414062 158.66015625 c 1
 131.758789062 89.39453125 l 1
 73.0439453125 150.661132812 l 1
 141.158203125 218.775390625 l 1
 120.485351562 251.618164062 110.087890625 288.21875 110.087890625 328.020507812 c 0
430.1875 328.020507812 m 0
 430.1875 363.202148438 418.909179688 391.715820312 396.217773438 415.004882812 c 0
 373.551757812 438.267578125 345.778320312 449.754882812 311.362304688 449.754882812 c 0
 276.947265625 449.754882812 249.172851562 438.267578125 226.506835938 415.004882812 c 0
 203.815429688 391.715820312 192.537109375 363.202148438 192.537109375 328.020507812 c 0
 192.537109375 292.837890625 203.815429688 264.32421875 226.506835938 241.03515625 c 0
 249.172851562 217.772460938 276.947265625 206.28515625 311.362304688 206.28515625 c 0
 345.778320312 206.28515625 373.551757812 217.772460938 396.217773438 241.03515625 c 0
 418.909179688 264.32421875 430.1875 292.837890625 430.1875 328.020507812 c 0
EndSplineSet
EndChar

StartChar: yen
Encoding: 165 165 102
Width: 457
GlyphClass: 2
Flags: MW
HStem: 0.645508 21G<189.629 280.81 189.629 189.629> 150.995 74.6895<51.8896 189.629 51.8896 189.629 280.81 417.579> 270.305 75.6602<51.8896 165.54 51.8896 189.629 51.8896 165.54 304.858 417.579> 670.315 20G<8.39941 110.564 110.564 110.564 359.854 461.028 461.028 461.028>
VStem: 189.629 91.1807<0.645508 150.995 0.645508 150.995 225.685 270.305>
LayerCount: 2
Fore
SplineSet
280.809570312 150.995117188 m 1
 280.809570312 0.6455078125 l 1
 189.62890625 0.6455078125 l 1
 189.62890625 150.995117188 l 1
 51.8896484375 150.995117188 l 1
 51.8896484375 225.684570312 l 1
 189.62890625 225.684570312 l 1
 189.62890625 270.3046875 l 1
 51.8896484375 270.3046875 l 1
 51.8896484375 345.96484375 l 1
 165.540039062 345.96484375 l 1
 8.3994140625 690.315429688 l 1
 110.564453125 690.315429688 l 1
 235.669921875 391.3515625 l 1
 359.854492188 690.315429688 l 1
 461.028320312 690.315429688 l 1
 304.858398438 345.96484375 l 1
 417.579101562 345.96484375 l 1
 417.579101562 270.3046875 l 1
 280.809570312 270.3046875 l 1
 280.809570312 225.684570312 l 1
 417.579101562 225.684570312 l 1
 417.579101562 150.995117188 l 1
 280.809570312 150.995117188 l 1
EndSplineSet
EndChar

StartChar: brokenbar
Encoding: 166 166 103
Width: 310
GlyphClass: 2
Flags: MW
VStem: 118.819 85.3604<-79.8652 283.885 -79.8652 283.885 377.005 738.815>
LayerCount: 2
Fore
SplineSet
118.819335938 738.815429688 m 1
 204.1796875 738.815429688 l 1
 204.1796875 377.004882812 l 1
 118.819335938 377.004882812 l 1
 118.819335938 738.815429688 l 1
118.819335938 283.884765625 m 1
 204.1796875 283.884765625 l 1
 204.1796875 -79.865234375 l 1
 118.819335938 -79.865234375 l 1
 118.819335938 283.884765625 l 1
EndSplineSet
EndChar

StartChar: section
Encoding: 167 167 104
Width: 514
GlyphClass: 2
Flags: MW
HStem: -162.315 82.4502<239.014 276.148 230.649 285.185> 631.146 82.4502<258.86 284.984>
VStem: 81.957 90.208<260.639 296.021> 94.5654 87.2998<6.9502 17.1348 -20.2275 17.1348> 103.298 90.2109<546.305 582.041> 337.066 90.2129<-29.771 9.14111> 352.586 90.2129<260.621 288.89>
LayerCount: 2
Fore
SplineSet
260.923828125 -162.315429688 m 0xc4
 217.103515625 -162.315429688 94.5654296875 -154.147460938 94.5654296875 6.9501953125 c 2
 94.5654296875 17.134765625 l 1
 181.865234375 17.134765625 l 1
 181.865234375 6.9501953125 l 2xd4
 181.865234375 -47.4052734375 201.34765625 -79.865234375 259.950195312 -79.865234375 c 0
 292.345703125 -79.865234375 337.06640625 -68.3388671875 337.06640625 -4.6904296875 c 0
 337.06640625 22.97265625 328.885742188 42.677734375 313.3125 56.58203125 c 0
 297.431640625 70.76171875 267.63671875 83.83984375 223.755859375 94.015625 c 0
 169.211914062 106.307617188 81.95703125 141.124023438 81.95703125 277.58203125 c 0xe4
 81.95703125 314.459960938 90.931640625 396.225585938 166.118164062 434.10546875 c 1
 130.508789062 456.870117188 103.297851562 490.6875 103.297851562 559.8515625 c 0
 103.297851562 604.23046875 118.252929688 641.658203125 148.122070312 670.485351562 c 0
 178.060546875 699.37890625 217.482421875 713.596679688 264.803710938 713.596679688 c 0
 316.989257812 713.596679688 357.909179688 699.450195312 385.317382812 669.55078125 c 0
 412.327148438 640.084960938 425.337890625 600.100585938 425.337890625 551.122070312 c 2
 425.337890625 540.936523438 l 1
 338.038085938 540.936523438 l 1
 338.038085938 551.122070312 l 2
 338.038085938 616.403320312 304.1953125 631.146484375 265.7734375 631.146484375 c 0
 251.947265625 631.146484375 193.508789062 630.07421875 193.508789062 559.850585938 c 0
 193.508789062 532.758789062 201.288085938 513.252929688 216.014648438 499.359375 c 0
 230.8828125 485.33203125 259.493164062 472.266601562 302.033203125 462.1015625 c 0
 363.368164062 448.264648438 442.798828125 410.591796875 442.798828125 277.580078125 c 0xca
 442.798828125 207.778320312 413.024414062 149.483398438 362.362304688 123.26171875 c 1
 402.7890625 98.564453125 427.279296875 60.1748046875 427.279296875 -6.630859375 c 0
 427.279296875 -52.9111328125 411.84765625 -91.2705078125 380.827148438 -119.8515625 c 0
 349.90234375 -148.342773438 309.4453125 -162.315429688 260.923828125 -162.315429688 c 0xc4
262.860351562 380.883789062 m 0
 229.493164062 380.883789062 172.165039062 367.76171875 172.165039062 277.580078125 c 0
 172.165039062 243.698242188 180.727539062 218.866210938 196.643554688 201.529296875 c 0
 212.614257812 184.1328125 234.040039062 175.245117188 262.860351562 175.245117188 c 0
 291.685546875 175.245117188 312.903320312 184.129882812 328.530273438 201.4609375 c 0
 344.154296875 218.790039062 352.5859375 243.663085938 352.5859375 277.579101562 c 0xe2
 352.5859375 300.200195312 350.0703125 380.883789062 262.860351562 380.883789062 c 0
244.430664062 696.619140625 m 1024
EndSplineSet
EndChar

StartChar: dieresis
Encoding: 168 168 105
Width: 502
GlyphClass: 2
Flags: MW
HStem: 561.305 103.79<126.579 220.669 126.579 220.669 126.579 292.449 292.449 386.539>
VStem: 126.579 94.0898<561.305 665.095 561.305 665.095> 292.449 94.0898<561.305 665.095 561.305 665.095>
LayerCount: 2
Fore
SplineSet
126.579101562 665.094726562 m 1
 220.668945312 665.094726562 l 1
 220.668945312 561.3046875 l 1
 126.579101562 561.3046875 l 1
 126.579101562 665.094726562 l 1
292.44921875 665.094726562 m 1
 386.5390625 665.094726562 l 1
 386.5390625 561.3046875 l 1
 292.44921875 561.3046875 l 1
 292.44921875 665.094726562 l 1
EndSplineSet
EndChar

StartChar: copyright
Encoding: 169 169 106
Width: 816
GlyphClass: 2
Flags: MW
HStem: -9.05469 71.7783<378.827 491.483 331.924 515.945> 144.204 66.9307<404.075 429.36 404.075 460.943> 474.004 67.9004<404.074 438.018 393.214 449.892> 618.536 71.7783<378.827 491.476>
VStem: 68.3789 75.6602<306.913 374.346> 262.378 72.75<305.708 308.619 308.619 377.489 289.108 380.398 289.108 407.655> 491.299 70.8105<277.58 291.646 236.515 291.646> 681.419 75.6592<253.885 427.381>
LayerCount: 2
Fore
SplineSet
757.078125 340.62890625 m 0
 757.078125 136.451171875 619.646484375 -9.0546875 412.244140625 -9.0546875 c 0
 345.409179688 -9.0546875 285.690429688 5.7109375 233.578125 35.4423828125 c 0
 181.551757812 65.1240234375 140.806640625 106.716796875 111.818359375 159.696289062 c 0
 82.794921875 212.73828125 68.37890625 273.196289062 68.37890625 340.62890625 c 0
 68.37890625 408.0625 82.794921875 468.51953125 111.818359375 521.5625 c 0
 140.806640625 574.541015625 181.551757812 616.134765625 233.578125 645.817382812 c 0
 285.690429688 675.547851562 345.409179688 690.314453125 412.244140625 690.314453125 c 0
 615.505859375 690.314453125 757.078125 547.420898438 757.078125 340.62890625 c 0
412.244140625 62.7236328125 m 0
 570.72265625 62.7236328125 681.418945312 167.140625 681.418945312 340.629882812 c 0
 681.418945312 514.131835938 570.708007812 618.536132812 412.243164062 618.536132812 c 0
 251.590820312 618.536132812 144.0390625 511.092773438 144.0390625 340.629882812 c 0
 144.0390625 170.155273438 251.603515625 62.7236328125 412.244140625 62.7236328125 c 0
562.109375 276.610351562 m 2
 562.109375 196.418945312 505.76171875 144.204101562 416.124023438 144.204101562 c 0
 370.306640625 144.204101562 332.571289062 156.791992188 304.452148438 182.801757812 c 0
 275.635742188 209.456054688 262.377929688 251.194335938 262.377929688 305.708007812 c 2
 262.377929688 380.3984375 l 2
 262.377929688 434.912109375 275.634765625 476.651367188 304.451171875 503.306640625 c 0
 332.5703125 529.31640625 370.305664062 541.904296875 416.123046875 541.904296875 c 0
 459.912109375 541.904296875 495.831054688 530.362304688 522.385742188 506.28515625 c 0
 548.96484375 482.186523438 562.108398438 449.2734375 562.108398438 409.499023438 c 2
 562.108398438 394.463867188 l 1
 491.297851562 394.463867188 l 1
 491.297851562 407.55859375 l 2
 491.297851562 432.525390625 481.719726562 474.00390625 418.063476562 474.00390625 c 0
 390.084960938 474.00390625 370.095703125 466.650390625 356.3203125 453.150390625 c 0
 343.271484375 440.36328125 335.127929688 415.828125 335.127929688 377.489257812 c 2
 335.127929688 308.619140625 l 2
 335.127929688 269.596679688 343.310546875 244.737304688 356.3203125 231.98828125 c 0
 370.096679688 218.48828125 390.0859375 211.134765625 418.064453125 211.134765625 c 0
 440.65625 211.134765625 491.298828125 217.801757812 491.298828125 277.580078125 c 2
 491.298828125 291.645507812 l 1
 562.109375 291.645507812 l 1
 562.109375 276.610351562 l 2
EndSplineSet
EndChar

StartChar: ordfeminine
Encoding: 170 170 107
Width: 336
GlyphClass: 2
Flags: MW
HStem: 413.865 71.7803<141.378 163.371> 551.605 64.0195<151.313 161.015 161.015 210.969 151.313 210.97> 678.675 67.9004<157.128 185.67>
VStem: 38.3086 80.5107<511.662 525.66 511.662 532.921> 46.0693 78.5703<633.085 645.21 633.085 673.631> 210.969 82.4502<615.625 632.6 417.745 635.51 417.745 645.478>
LayerCount: 2
Fore
SplineSet
166.833007812 746.575195312 m 0xec
 214.684570312 746.575195312 293.418945312 731.541992188 293.418945312 632.599609375 c 2
 293.418945312 417.745117188 l 1
 212.909179688 417.745117188 l 1
 212.909179688 433.415039062 l 1
 198.577148438 422.346679688 179.306640625 413.865234375 147.434570312 413.865234375 c 0
 114.029296875 413.865234375 86.689453125 422.633789062 67.138671875 441.446289062 c 0
 47.6142578125 460.233398438 38.30859375 486.439453125 38.30859375 518.139648438 c 0xf4
 38.30859375 547.703125 48.6884765625 572.357421875 69.583984375 589.953125 c 0
 90.326171875 607.420898438 117.994140625 615.625 151.313476562 615.625 c 2
 210.96875 615.625 l 1
 210.96875 635.509765625 l 2
 210.96875 655.4453125 204.506835938 678.674804688 166.833007812 678.674804688 c 0
 147.423828125 678.674804688 124.639648438 672.798828125 124.639648438 645.209960938 c 2
 124.639648438 633.084960938 l 1
 46.0693359375 633.084960938 l 1
 46.0693359375 645.209960938 l 2
 46.0693359375 702.051757812 86.9853515625 746.575195312 166.833007812 746.575195312 c 0xec
160.043945312 485.645507812 m 0
 195.362304688 485.645507812 210.969726562 498.938476562 210.969726562 534.629882812 c 2
 210.969726562 551.60546875 l 1
 161.014648438 551.60546875 l 2
 121.63671875 551.60546875 118.819335938 532.209960938 118.819335938 519.110351562 c 0
 118.819335938 504.212890625 122.711914062 485.645507812 160.043945312 485.645507812 c 0
174.594726562 832.419921875 m 1024
EndSplineSet
EndChar

StartChar: guillemotleft
Encoding: 171 171 108
Width: 481
GlyphClass: 2
Flags: W
LayerCount: 2
Fore
SplineSet
238.12890625 483.82421875 m 1
 238.12890625 374.295898438 l 1
 132.610351562 266.91015625 l 1
 238.12890625 159.5234375 l 1
 238.12890625 49.99609375 l 1
 24.501953125 266.91015625 l 1
 238.12890625 483.82421875 l 1
415.639648438 483.82421875 m 1
 415.639648438 374.295898438 l 1
 310.120117188 266.91015625 l 1
 415.639648438 159.5234375 l 1
 415.639648438 49.99609375 l 1
 202.01171875 266.91015625 l 1
 415.639648438 483.82421875 l 1
EndSplineSet
EndChar

StartChar: logicalnot
Encoding: 172 172 109
Width: 515
GlyphClass: 2
Flags: MW
HStem: 256.725 80.5107<58.6797 379.749 58.6797 467.049>
VStem: 379.749 87.2998<126.745 256.725 256.725 256.725>
LayerCount: 2
Fore
SplineSet
379.749023438 256.724609375 m 1
 58.6796875 256.724609375 l 1
 58.6796875 337.235351562 l 1
 467.048828125 337.235351562 l 1
 467.048828125 126.745117188 l 1
 379.749023438 126.745117188 l 1
 379.749023438 256.724609375 l 1
EndSplineSet
EndChar

StartChar: uni00AD
Encoding: 173 173 110
Width: 398
GlyphClass: 2
Flags: MW
HStem: 305.225 84.3906<61.5889 348.709 61.5889 348.709>
VStem: 61.5889 287.12<305.225 389.615 305.225 389.615>
LayerCount: 2
Fore
SplineSet
61.5888671875 389.615234375 m 1
 348.708984375 389.615234375 l 1
 348.708984375 305.224609375 l 1
 61.5888671875 305.224609375 l 1
 61.5888671875 389.615234375 l 1
EndSplineSet
EndChar

StartChar: registered
Encoding: 174 174 111
Width: 539
GlyphClass: 2
Flags: MW
HStem: 297.465 50.4404<254.036 295.302 254.036 329.597> 466.245 51.4102<251.709 273.898 251.709 285.174> 557.425 51.4102<251.709 285.174 251.709 251.709> 638.905 50.4395<254.036 313.917>
VStem: 81.959 53.3506<472.004 515.434 472.004 550.351> 196.419 55.29<380.885 466.245 380.885 517.655 517.655 557.425> 309.909 54.3203<533.074 542.006> 415.64 52.3799<472.362 538.112>
LayerCount: 2
Fore
SplineSet
274.50390625 297.46484375 m 0
 163.80078125 297.46484375 81.958984375 382.068359375 81.958984375 493.889648438 c 0
 81.958984375 606.811523438 165.68359375 689.344726562 274.50390625 689.344726562 c 0
 386.49609375 689.344726562 468.01953125 605.0078125 468.01953125 493.889648438 c 0
 468.01953125 379.555664062 384.689453125 297.46484375 274.50390625 297.46484375 c 0
415.639648438 493.889648438 m 0
 415.639648438 582.334960938 353.331054688 638.905273438 274.50390625 638.905273438 c 0
 233.567382812 638.905273438 200.81640625 625.440429688 174.641601562 598.36328125 c 0
 148.4765625 571.295898438 135.309570312 536.977539062 135.309570312 493.889648438 c 0
 135.309570312 450.118164062 148.505859375 415.483398438 174.641601562 388.446289062 c 0
 200.81640625 361.369140625 233.567382812 347.905273438 274.50390625 347.905273438 c 0
 316.099609375 347.905273438 349.333007812 361.540039062 375.823242188 388.932617188 c 0
 402.333984375 416.346679688 415.639648438 450.833984375 415.639648438 493.889648438 c 0
364.229492188 537.540039062 m 0
 364.229492188 518.268554688 358.541992188 490.90234375 329.88671875 475.331054688 c 1
 375.056640625 380.884765625 l 1
 358.89453125 380.884765625 l 1
 321.064453125 380.884765625 l 1
 314.638671875 380.884765625 l 1
 273.8984375 466.245117188 l 1
 251.708984375 466.245117188 l 1
 251.708984375 380.884765625 l 1
 196.418945312 380.884765625 l 1
 196.418945312 608.834960938 l 1
 286.14453125 608.834960938 l 2
 309.139648438 608.834960938 328.536132812 603.03515625 342.874023438 590.247070312 c 0
 357.342773438 577.342773438 364.229492188 559.0625 364.229492188 537.540039062 c 0
309.909179688 537.540039062 m 0
 309.909179688 546.47265625 308.278320312 557.424804688 285.173828125 557.424804688 c 2
 251.708984375 557.424804688 l 1
 251.708984375 517.655273438 l 1
 285.173828125 517.655273438 l 2
 308.278320312 517.655273438 309.909179688 528.607421875 309.909179688 537.540039062 c 0
EndSplineSet
EndChar

StartChar: macron
Encoding: 175 175 112
Width: 502
GlyphClass: 2
Flags: MW
HStem: 572.945 80.5098<120.759 393.329 120.759 393.329>
VStem: 120.759 272.57<572.945 653.455 572.945 653.455>
LayerCount: 2
Fore
SplineSet
120.758789062 653.455078125 m 1
 393.329101562 653.455078125 l 1
 393.329101562 572.9453125 l 1
 120.758789062 572.9453125 l 1
 120.758789062 653.455078125 l 1
EndSplineSet
EndChar

StartChar: degree
Encoding: 176 176 113
Width: 416
GlyphClass: 2
Flags: MW
HStem: 408.045 67.9004<202.938 225.429 202.938 234.65> 633.085 66.9297<202.938 225.429>
VStem: 68.3789 69.8408<542.553 565.866 542.553 574.599> 289.539 69.8398<542.553 565.866>
LayerCount: 2
Fore
SplineSet
68.37890625 554.030273438 m 0
 68.37890625 595.166992188 82.1748046875 630.377929688 109.6328125 658.184570312 c 0
 137.157226562 686.057617188 172.594726562 700.014648438 214.364257812 700.014648438 c 0
 254.936523438 700.014648438 289.833984375 685.991210938 317.594726562 658.23046875 c 0
 345.390625 630.434570312 359.37890625 595.201171875 359.37890625 554.030273438 c 0
 359.37890625 512.858398438 345.390625 477.625976562 317.594726562 449.829101562 c 0
 289.833984375 422.069335938 254.936523438 408.044921875 214.364257812 408.044921875 c 0
 172.594726562 408.044921875 137.157226562 422.002929688 109.6328125 449.875 c 0
 82.1748046875 477.681640625 68.37890625 512.893554688 68.37890625 554.030273438 c 0
289.5390625 554.030273438 m 0
 289.5390625 577.701171875 282.364257812 596.193359375 268.1328125 610.993164062 c 0
 253.888671875 625.806640625 236.493164062 633.084960938 214.364257812 633.084960938 c 0
 191.51171875 633.084960938 173.814453125 625.749023438 159.625 610.993164062 c 0
 145.39453125 596.193359375 138.219726562 577.701171875 138.219726562 554.030273438 c 0
 138.219726562 531.075195312 145.342773438 512.890625 159.625 498.037109375 c 0
 173.814453125 483.28125 191.51171875 475.9453125 214.364257812 475.9453125 c 0
 236.493164062 475.9453125 253.888671875 483.22265625 268.1328125 498.037109375 c 0
 282.416015625 512.890625 289.5390625 531.075195312 289.5390625 554.030273438 c 0
EndSplineSet
EndChar

StartChar: plusminus
Encoding: 177 177 114
Width: 515
GlyphClass: 2
Flags: MW
HStem: -3.23535 84.3906<59.6494 466.079 59.6494 466.079> 271.275 84.3896<59.6494 220.669 59.6494 220.669 305.06 466.079>
VStem: 220.669 84.3906<110.255 271.275 110.255 271.275 355.665 516.685>
LayerCount: 2
Fore
SplineSet
305.059570312 271.275390625 m 1
 305.059570312 110.254882812 l 1
 220.668945312 110.254882812 l 1
 220.668945312 271.275390625 l 1
 59.6494140625 271.275390625 l 1
 59.6494140625 355.665039062 l 1
 220.668945312 355.665039062 l 1
 220.668945312 516.684570312 l 1
 305.059570312 516.684570312 l 1
 305.059570312 355.665039062 l 1
 466.079101562 355.665039062 l 1
 466.079101562 271.275390625 l 1
 305.059570312 271.275390625 l 1
59.6494140625 81.1552734375 m 1
 466.079101562 81.1552734375 l 1
 466.079101562 -3.2353515625 l 1
 59.6494140625 -3.2353515625 l 1
 59.6494140625 81.1552734375 l 1
EndSplineSet
EndChar

StartChar: uni00B2
Encoding: 178 178 115
Width: 327
GlyphClass: 2
Flags: MW
HStem: 417.745 77.5996<162.594 295.359 162.594 295.359> 774.705 74.6904<156.824 185.567>
VStem: 45.0996 84.3896<705.835 726.69 705.835 730.57 705.835 766.277> 207.089 87.2998<723.78 731.54 731.54 734.45 708.059 739.317>
LayerCount: 2
Fore
SplineSet
170.713867188 849.395507812 m 0
 247.924804688 849.395507812 294.388671875 799.919921875 294.388671875 734.450195312 c 2
 294.388671875 723.780273438 l 2
 294.388671875 692.336914062 284.828125 663.2734375 254.53515625 621.65625 c 2
 162.59375 495.344726562 l 1
 295.359375 495.344726562 l 1
 295.359375 417.745117188 l 1
 48.0087890625 417.745117188 l 1
 48.0087890625 481.724609375 l 1
 184.762695312 666.684570312 l 2
 203.418945312 692.515625 207.088867188 708.23828125 207.088867188 723.780273438 c 2
 207.088867188 731.540039062 l 2
 207.088867188 747.094726562 202.359375 774.705078125 168.774414062 774.705078125 c 0
 144.874023438 774.705078125 129.489257812 761.603515625 129.489257812 726.690429688 c 2
 129.489257812 705.834960938 l 1
 45.099609375 705.834960938 l 1
 45.099609375 730.5703125 l 2
 45.099609375 801.983398438 94.4267578125 849.395507812 170.713867188 849.395507812 c 0
EndSplineSet
EndChar

StartChar: uni00B3
Encoding: 179 179 116
Width: 325
GlyphClass: 2
Flags: MW
HStem: 411.925 73.7207<147.218 173.726 144.708 184.372> 600.105 74.6895<130.459 161.015 130.459 161.015> 774.704 74.6904<155.334 180.504>
VStem: 42.1895 78.5693<525.9 526.87 526.87 546.755 521.272 546.755> 209.999 83.4209<535.6 547.24 517.651 548.21 517.651 556.61>
LayerCount: 2
Fore
SplineSet
248.119140625 643.126953125 m 1
 262.708007812 633.459960938 293.419921875 606.1171875 293.419921875 547.240234375 c 2
 293.419921875 535.599609375 l 2
 293.419921875 499.703125 281.596679688 469.3828125 257.830078125 446.325195312 c 0
 234.060546875 423.264648438 202.877929688 411.924804688 165.865234375 411.924804688 c 0
 128.571289062 411.924804688 97.951171875 421.666992188 75.5546875 442.255859375 c 0
 53.1259765625 462.875976562 42.189453125 491.419921875 42.189453125 525.900390625 c 2
 42.189453125 546.754882812 l 1
 120.758789062 546.754882812 l 1
 120.758789062 526.870117188 l 2
 120.758789062 515.673828125 124.522460938 485.645507812 164.89453125 485.645507812 c 0
 182.556640625 485.645507812 209.999023438 492.569335938 209.999023438 535.599609375 c 2
 209.999023438 548.209960938 l 2
 209.999023438 565.010742188 205.377929688 577.19921875 196.768554688 586.331054688 c 0
 188.240234375 595.375976562 176.944335938 600.10546875 161.014648438 600.10546875 c 2
 130.458984375 600.10546875 l 1
 130.458984375 674.794921875 l 1
 161.014648438 674.794921875 l 2
 172.803710938 674.794921875 203.208984375 678.78125 203.208984375 719.899414062 c 2
 203.208984375 729.598632812 l 2
 203.208984375 748.763671875 197.084960938 774.704101562 163.923828125 774.704101562 c 0
 146.745117188 774.704101562 123.668945312 768.387695312 123.668945312 734.44921875 c 2
 123.668945312 714.564453125 l 1
 44.12890625 714.564453125 l 1
 44.12890625 735.418945312 l 2
 44.12890625 802.865234375 89.4951171875 849.39453125 165.864257812 849.39453125 c 0
 202.030273438 849.39453125 232.068359375 839.188476562 254.362304688 817.971679688 c 0
 276.573242188 796.8359375 287.599609375 768.732421875 287.599609375 735.418945312 c 2
 287.599609375 725.71875 l 2
 287.599609375 701.818359375 280.71875 668.208007812 248.119140625 643.126953125 c 1
EndSplineSet
EndChar

StartChar: acute
Encoding: 180 180 117
Width: 502
GlyphClass: 2
Flags: MW
HStem: 555.485 141.62<157.417 379.878 157.417 379.878>
VStem: 157.417 222.461<555.485 697.105>
LayerCount: 2
Fore
SplineSet
269.580078125 697.10546875 m 1
 379.877929688 697.10546875 l 1
 243.922851562 555.485351562 l 1
 157.416992188 555.485351562 l 1
 269.580078125 697.10546875 l 1
EndSplineSet
EndChar

StartChar: uni00B5
Encoding: 181 181 118
Width: 518
GlyphClass: 2
Flags: MW
HStem: -7.11523 80.5107<246.126 276.91 246.126 279.686> 0.645508 21G<365.199 451.529 365.199 365.199> 492.805 20G<77.1094 163.439 163.439 163.439 364.229 451.529 451.529 451.529>
VStem: 77.1094 86.3301<-146.795 18.2363 164.559 183.49 183.49 512.805> 364.229 87.2998<183.49 512.805 0.645508 512.805>
LayerCount: 2
Fore
SplineSet
365.19921875 38.9169921875 m 1x78
 345.020507812 17.3984375 309.1171875 -7.115234375 250.25390625 -7.115234375 c 0
 216.046875 -7.115234375 186.783203125 1.2275390625 163.439453125 18.236328125 c 1
 163.439453125 -146.794921875 l 1
 77.109375 -146.794921875 l 1
 77.109375 512.8046875 l 1
 163.439453125 512.8046875 l 1
 163.439453125 183.490234375 l 2
 163.439453125 145.627929688 172.733398438 118.631835938 189.729492188 100.786132812 c 0
 206.930664062 82.7255859375 230.357421875 73.3955078125 261.89453125 73.3955078125 c 0xb8
 291.92578125 73.3955078125 315.881835938 82.9072265625 335.259765625 101.990234375 c 0
 354.231445312 120.67578125 364.229492188 147.21875 364.229492188 183.490234375 c 2
 364.229492188 512.8046875 l 1
 451.529296875 512.8046875 l 1
 451.529296875 0.6455078125 l 1
 365.19921875 0.6455078125 l 1
 365.19921875 38.9169921875 l 1x78
EndSplineSet
EndChar

StartChar: paragraph
Encoding: 182 182 119
Width: 613
GlyphClass: 2
Flags: MW
HStem: 606.896 83.4199<349.68 417.579 349.68 349.68>
VStem: 81.959 267.721<448.237 534.839> 264.319 85.3604<-146.795 265.351 265.351 265.351> 417.579 85.3604<-146.795 606.896 606.896 606.896>
LayerCount: 2
Fore
SplineSet
81.958984375 477.400390625 m 0xd0
 81.958984375 592.278320312 157.508789062 690.315429688 302.633789062 690.315429688 c 2
 502.939453125 690.315429688 l 1
 502.939453125 -146.794921875 l 1
 417.579101562 -146.794921875 l 1
 417.579101562 606.895507812 l 1
 349.6796875 606.895507812 l 1
 349.6796875 -146.794921875 l 1
 264.319335938 -146.794921875 l 1
 264.319335938 265.350585938 l 1xb0
 211.40625 271.03515625 167.68359375 292.598632812 134.481445312 329.9921875 c 0
 99.3984375 369.50390625 81.958984375 419.073242188 81.958984375 477.400390625 c 0xd0
EndSplineSet
EndChar

StartChar: periodcentered
Encoding: 183 183 120
Width: 203
GlyphClass: 2
Flags: MW
HStem: 216.955 109.61<55.7695 161.499 55.7695 161.499>
VStem: 55.7695 105.729<216.955 326.565 216.955 326.565>
LayerCount: 2
Fore
SplineSet
55.76953125 326.565429688 m 1
 161.499023438 326.565429688 l 1
 161.499023438 216.955078125 l 1
 55.76953125 216.955078125 l 1
 55.76953125 326.565429688 l 1
EndSplineSet
EndChar

StartChar: cedilla
Encoding: 184 184 121
Width: 502
GlyphClass: 2
Flags: MW
HStem: -144.854 177.51<251.045 273.16 182.014 331.234>
VStem: 182.014 149.221
LayerCount: 2
Fore
SplineSet
331.234375 32.6552734375 m 1
 273.16015625 -144.854492188 l 1
 182.013671875 -144.854492188 l 1
 251.044921875 32.6552734375 l 1
 331.234375 32.6552734375 l 1
EndSplineSet
EndChar

StartChar: uni00B9
Encoding: 185 185 122
Width: 231
GlyphClass: 2
Flags: MW
VStem: 100.39 87.2998<417.745 741.186 741.186 741.186>
LayerCount: 2
Fore
SplineSet
29.5791015625 687.8359375 m 1
 29.5791015625 785.172851562 l 1
 107.21875 842.60546875 l 1
 187.689453125 842.60546875 l 1
 187.689453125 417.745117188 l 1
 100.389648438 417.745117188 l 1
 100.389648438 741.185546875 l 1
 29.5791015625 687.8359375 l 1
EndSplineSet
EndChar

StartChar: ordmasculine
Encoding: 186 186 123
Width: 336
GlyphClass: 2
Flags: MW
HStem: 413.865 76.6299<164.316 184.873 164.316 194.28> 669.945 76.6299<164.316 184.874>
VStem: 44.1289 82.4502<551.12 609.32 523.772 631.755> 222.609 82.4502<551.12 609.32 528.685 636.668>
LayerCount: 2
Fore
SplineSet
44.12890625 551.120117188 m 2
 44.12890625 609.3203125 l 2
 44.12890625 654.189453125 55.1708984375 689.325195312 79.236328125 712.661132812 c 0
 102.872070312 735.581054688 135.223632812 746.575195312 174.594726562 746.575195312 c 0
 213.96484375 746.575195312 246.31640625 735.581054688 269.952148438 712.661132812 c 0
 294.017578125 689.325195312 305.059570312 654.189453125 305.059570312 609.3203125 c 2
 305.059570312 551.120117188 l 2
 305.059570312 506.25 294.017578125 471.114257812 269.952148438 447.778320312 c 0
 246.31640625 424.859375 213.96484375 413.865234375 174.594726562 413.865234375 c 0
 135.223632812 413.865234375 102.872070312 424.859375 79.236328125 447.779296875 c 0
 55.1708984375 471.115234375 44.12890625 506.250976562 44.12890625 551.120117188 c 2
174.594726562 490.495117188 m 0
 195.151367188 490.495117188 222.609375 496.423828125 222.609375 551.120117188 c 2
 222.609375 609.3203125 l 2
 222.609375 664.015625 195.15234375 669.9453125 174.594726562 669.9453125 c 0
 154.037109375 669.9453125 126.579101562 664.016601562 126.579101562 609.3203125 c 2
 126.579101562 551.120117188 l 2
 126.579101562 496.423828125 154.037109375 490.495117188 174.594726562 490.495117188 c 0
174.594726562 832.419921875 m 1024
EndSplineSet
EndChar

StartChar: guillemotright
Encoding: 187 187 124
Width: 481
GlyphClass: 2
Flags: W
LayerCount: 2
Fore
SplineSet
77.109375 374.295898438 m 1
 77.109375 483.82421875 l 1
 290.736328125 266.91015625 l 1
 77.109375 49.99609375 l 1
 77.109375 159.5234375 l 1
 182.627929688 266.91015625 l 1
 77.109375 374.295898438 l 1
253.649414062 374.270507812 m 1
 253.649414062 483.733398438 l 1
 468.282226562 266.91015625 l 1
 253.649414062 50.0869140625 l 1
 253.649414062 159.549804688 l 1
 360.076171875 266.91015625 l 1
 253.649414062 374.270507812 l 1
EndSplineSet
EndChar

StartChar: onequarter
Encoding: 188 188 125
Width: 727
GlyphClass: 3
Flags: MW
HStem: 0.645508 21G<86.7002 170.967 86.7002 86.7002 577.629 664.93 577.629 577.629> 73.3955 77.5996<517.639 577.629 517.639 577.629 664.93 702.759> 670.315 20G<107.219 187.689 187.689 187.689 459.521 543.788 543.788 543.788>
VStem: 100.39 87.2998<265.455 588.896 588.896 588.896> 577.629 87.3008<0.645508 73.3955 0.645508 73.3955 150.995 246.055>
LayerCount: 2
Fore
SplineSet
29.5791015625 535.545898438 m 1
 29.5791015625 632.8828125 l 1
 107.21875 690.315429688 l 1
 187.689453125 690.315429688 l 1
 187.689453125 265.455078125 l 1
 100.389648438 265.455078125 l 1
 100.389648438 588.895507812 l 1
 29.5791015625 535.545898438 l 1
664.9296875 150.995117188 m 1
 702.758789062 150.995117188 l 1
 702.758789062 73.3955078125 l 1
 664.9296875 73.3955078125 l 1
 664.9296875 0.6455078125 l 1
 577.62890625 0.6455078125 l 1
 577.62890625 73.3955078125 l 1
 425.338867188 73.3955078125 l 1
 425.338867188 142.836914062 l 1
 542.202148438 425.504882812 l 1
 630.158203125 425.504882812 l 1
 517.638671875 150.995117188 l 1
 577.62890625 150.995117188 l 1
 577.62890625 246.0546875 l 1
 664.9296875 246.0546875 l 1
 664.9296875 150.995117188 l 1
459.521484375 690.315429688 m 1
 543.788085938 690.315429688 l 1
 170.966796875 0.6455078125 l 1
 86.7001953125 0.6455078125 l 1
 459.521484375 690.315429688 l 1
EndSplineSet
Ligature2: "'frac' Diagonal Fractions lookup 2 subtable" one slash four
EndChar

StartChar: onehalf
Encoding: 189 189 126
Width: 716
GlyphClass: 3
Flags: MW
HStem: 0.645508 77.5996<548.654 681.419 548.654 681.419> 357.605 74.6895<542.885 571.627> 670.315 20G<107.219 187.689 187.689 187.689 459.522 543.789 543.789 543.789>
VStem: 100.39 87.2998<265.455 588.896 588.896 588.896> 431.16 84.3896<288.735 309.59 288.735 313.47 288.735 349.176> 593.15 87.2988<306.68 314.44 314.44 317.35 290.963 322.218>
LayerCount: 2
Fore
SplineSet
29.5791015625 535.545898438 m 1
 29.5791015625 632.8828125 l 1
 107.21875 690.315429688 l 1
 187.689453125 690.315429688 l 1
 187.689453125 265.455078125 l 1
 100.389648438 265.455078125 l 1
 100.389648438 588.895507812 l 1
 29.5791015625 535.545898438 l 1
556.775390625 432.294921875 m 0
 633.985351562 432.294921875 680.44921875 382.8203125 680.44921875 317.349609375 c 2
 680.44921875 306.6796875 l 2
 680.44921875 275.247070312 670.90234375 246.193359375 640.594726562 204.556640625 c 2
 548.654296875 78.2451171875 l 1
 681.418945312 78.2451171875 l 1
 681.418945312 0.6455078125 l 1
 434.069335938 0.6455078125 l 1
 434.069335938 64.6240234375 l 1
 570.823242188 249.583984375 l 2
 589.479492188 275.415039062 593.150390625 291.138671875 593.150390625 306.6796875 c 2
 593.150390625 314.440429688 l 2
 593.150390625 329.995117188 588.419921875 357.60546875 554.834960938 357.60546875 c 0
 530.935546875 357.60546875 515.549804688 344.502929688 515.549804688 309.58984375 c 2
 515.549804688 288.735351562 l 1
 431.16015625 288.735351562 l 1
 431.16015625 313.469726562 l 2
 431.16015625 384.8828125 480.48828125 432.294921875 556.775390625 432.294921875 c 0
459.522460938 690.315429688 m 1
 543.7890625 690.315429688 l 1
 170.967773438 0.6455078125 l 1
 86.701171875 0.6455078125 l 1
 459.522460938 690.315429688 l 1
EndSplineSet
Ligature2: "'frac' Diagonal Fractions lookup 2 subtable" one slash two
EndChar

StartChar: threequarters
Encoding: 190 190 127
Width: 822
GlyphClass: 3
Flags: MW
HStem: 0.644531 21G<180.79 265.057 180.79 180.79 671.72 759.02 671.72 671.72> 73.3945 77.5996<611.729 671.72 611.729 671.72 759.02 796.85> 259.635 73.7197<147.218 173.726 144.708 184.372> 447.814 74.6895<130.459 161.015 130.459 161.015> 622.413 74.6904<155.334 180.504>
VStem: 42.1895 78.5693<373.609 374.579 374.579 394.464 368.981 394.464> 209.999 83.4209<383.309 383.31 383.31 394.95 365.361 395.919 365.361 404.319> 671.72 87.2998<0.644531 73.3945 0.644531 73.3945 150.994 246.054>
LayerCount: 2
Fore
SplineSet
248.12109375 490.837890625 m 1
 273.880859375 473.770507812 293.419921875 441.267578125 293.419921875 394.950195312 c 2
 293.419921875 383.309570312 l 2
 293.419921875 347.413085938 281.596679688 317.092773438 257.830078125 294.03515625 c 0
 234.060546875 270.974609375 202.877929688 259.634765625 165.865234375 259.634765625 c 0
 128.571289062 259.634765625 97.951171875 269.376953125 75.5546875 289.966796875 c 0
 53.126953125 310.5859375 42.189453125 339.12890625 42.189453125 373.609375 c 2
 42.189453125 394.463867188 l 1
 120.758789062 394.463867188 l 1
 120.758789062 374.579101562 l 2
 120.758789062 363.3828125 124.522460938 333.354492188 164.89453125 333.354492188 c 0
 182.556640625 333.354492188 209.999023438 340.278320312 209.999023438 383.30859375 c 2
 209.999023438 395.918945312 l 2
 209.999023438 412.719726562 205.377929688 424.908203125 196.768554688 434.040039062 c 0
 188.240234375 443.084960938 176.944335938 447.814453125 161.014648438 447.814453125 c 2
 130.458984375 447.814453125 l 1
 130.458984375 522.50390625 l 1
 161.014648438 522.50390625 l 2
 172.803710938 522.50390625 203.208984375 526.490234375 203.208984375 567.608398438 c 2
 203.208984375 577.30859375 l 2
 203.208984375 596.47265625 197.084960938 622.413085938 163.923828125 622.413085938 c 0
 146.745117188 622.413085938 123.668945312 616.096679688 123.668945312 582.158203125 c 2
 123.668945312 562.2734375 l 1
 44.12890625 562.2734375 l 1
 44.12890625 583.127929688 l 2
 44.12890625 650.57421875 89.4951171875 697.103515625 165.864257812 697.103515625 c 0
 202.030273438 697.103515625 232.068359375 686.897460938 254.362304688 665.681640625 c 0
 276.573242188 644.544921875 287.599609375 616.44140625 287.599609375 583.127929688 c 2
 287.599609375 573.427734375 l 2
 287.599609375 549.52734375 280.71875 515.918945312 248.12109375 490.837890625 c 1
759.01953125 150.994140625 m 1
 796.849609375 150.994140625 l 1
 796.849609375 73.39453125 l 1
 759.01953125 73.39453125 l 1
 759.01953125 0.64453125 l 1
 671.719726562 0.64453125 l 1
 671.719726562 73.39453125 l 1
 519.4296875 73.39453125 l 1
 519.4296875 142.8359375 l 1
 636.291992188 425.50390625 l 1
 724.248046875 425.50390625 l 1
 611.728515625 150.994140625 l 1
 671.719726562 150.994140625 l 1
 671.719726562 246.053710938 l 1
 759.01953125 246.053710938 l 1
 759.01953125 150.994140625 l 1
553.611328125 690.314453125 m 1
 637.87890625 690.314453125 l 1
 265.056640625 0.64453125 l 1
 180.790039062 0.64453125 l 1
 553.611328125 690.314453125 l 1
EndSplineSet
Ligature2: "'frac' Diagonal Fractions lookup 2 subtable" three slash four
EndChar

StartChar: questiondown
Encoding: 191 191 128
Width: 433
GlyphClass: 2
Flags: MW
HStem: -156.495 84.3906<200.432 254.709> 402.225 110.58<176.049 282.749 176.049 282.749>
VStem: 49.9482 91.1787<1.21973 34.5181 1.21973 41.167> 176.049 106.7<402.225 512.805 402.225 512.805> 182.837 91.1807<298.92 343.055 270.733 343.055> 313.973 91.2373<33.625 33.625>
LayerCount: 2
Fore
SplineSet
176.048828125 512.8046875 m 1xf4
 282.749023438 512.8046875 l 1
 282.749023438 402.224609375 l 1
 176.048828125 402.224609375 l 1
 176.048828125 512.8046875 l 1xf4
141.126953125 15.6796875 m 0
 141.126953125 -13.240234375 150.73046875 -72.1044921875 228.912109375 -72.1044921875 c 0
 311.352539062 -72.1044921875 313.255859375 -5.421875 313.97265625 33.625 c 1
 405.209960938 33.625 l 1
 404.435546875 0.7060546875 402.930664062 -63.2578125 357.4453125 -109.778320312 c 0
 326.580078125 -141.345703125 282.443359375 -156.495117188 226.974609375 -156.495117188 c 0
 173.888671875 -156.495117188 130.354492188 -140.859375 98.078125 -108.9296875 c 0
 65.88671875 -77.083984375 49.9482421875 -34.984375 49.9482421875 15.6806640625 c 0
 49.9482421875 66.6533203125 65.8505859375 103.546875 107.400390625 156.783203125 c 2
 107.400390625 156.783203125 152.990234375 214.983398438 153.0859375 215.102539062 c 0
 177.166015625 244.916015625 182.836914062 260.274414062 182.836914062 298.919921875 c 2
 182.836914062 343.0546875 l 1
 274.017578125 343.0546875 l 1
 274.017578125 297.950195312 l 2xec
 274.017578125 243.515625 263.604492188 216.694335938 229.069335938 173.205078125 c 2
 183.448242188 116.907226562 l 2
 151.803710938 78.23046875 141.126953125 53.3564453125 141.126953125 15.6796875 c 0
EndSplineSet
EndChar

StartChar: Agrave
Encoding: 192 192 129
Width: 578
GlyphClass: 2
Flags: MW
HStem: 0.645508 21G<6.78906 6.78906 6.78906 103.257 485.522 485.522 485.522 581.989> 161.665 80.5098<186.975 401.767 186.975 429.262 159.517 401.767> 670.315 20G<257.669 331.109 331.109 331.109>
LayerCount: 2
Fore
SplineSet
6.7890625 0.6455078125 m 1
 257.668945312 690.315429688 l 1
 331.109375 690.315429688 l 1
 581.989257812 0.6455078125 l 1
 485.522460938 0.6455078125 l 1
 429.26171875 161.665039062 l 1
 159.516601562 161.665039062 l 1
 103.256835938 0.6455078125 l 1
 6.7890625 0.6455078125 l 1
186.974609375 242.174804688 m 1
 401.766601562 242.174804688 l 1
 293.942382812 550.244140625 l 1
 186.974609375 242.174804688 l 1
148.760742188 874.615234375 m 1
 259.05859375 874.615234375 l 1
 371.221679688 732.995117188 l 1
 284.715820312 732.995117188 l 1
 148.760742188 874.615234375 l 1
EndSplineSet
EndChar

StartChar: Aacute
Encoding: 193 193 130
Width: 578
GlyphClass: 2
Flags: MW
HStem: 0.645508 21G<6.78906 6.78906 6.78906 103.257 485.522 485.522 485.522 581.989> 161.665 80.5098<186.975 401.767 186.975 429.262 159.517 401.767> 670.315 20G<257.669 331.109 331.109 331.109>
LayerCount: 2
Fore
SplineSet
6.7890625 0.6455078125 m 1
 257.668945312 690.315429688 l 1
 331.109375 690.315429688 l 1
 581.989257812 0.6455078125 l 1
 485.522460938 0.6455078125 l 1
 429.26171875 161.665039062 l 1
 159.516601562 161.665039062 l 1
 103.256835938 0.6455078125 l 1
 6.7890625 0.6455078125 l 1
186.974609375 242.174804688 m 1
 401.766601562 242.174804688 l 1
 293.942382812 550.244140625 l 1
 186.974609375 242.174804688 l 1
313.23046875 874.615234375 m 1
 423.52734375 874.615234375 l 1
 287.572265625 732.995117188 l 1
 201.067382812 732.995117188 l 1
 313.23046875 874.615234375 l 1
EndSplineSet
EndChar

StartChar: Acircumflex
Encoding: 194 194 131
Width: 578
GlyphClass: 2
Flags: MW
HStem: 0.645508 21G<6.78906 6.78906 6.78906 103.257 485.522 485.522 485.522 581.989> 161.665 80.5098<186.975 401.767 186.975 429.262 159.517 401.767> 670.315 20G<257.669 331.109 331.109 331.109>
LayerCount: 2
Fore
SplineSet
6.7890625 0.6455078125 m 1
 257.668945312 690.315429688 l 1
 331.109375 690.315429688 l 1
 581.989257812 0.6455078125 l 1
 485.522460938 0.6455078125 l 1
 429.26171875 161.665039062 l 1
 159.516601562 161.665039062 l 1
 103.256835938 0.6455078125 l 1
 6.7890625 0.6455078125 l 1
186.974609375 242.174804688 m 1
 401.766601562 242.174804688 l 1
 293.942382812 550.244140625 l 1
 186.974609375 242.174804688 l 1
262.594726562 883.344726562 m 1
 326.18359375 883.344726562 l 1
 445.109375 723.294921875 l 1
 359.655273438 723.294921875 l 1
 294.818359375 808.84375 l 1
 229.081054688 723.294921875 l 1
 143.668945312 723.294921875 l 1
 262.594726562 883.344726562 l 1
EndSplineSet
EndChar

StartChar: Atilde
Encoding: 195 195 132
Width: 578
GlyphClass: 2
Flags: MW
HStem: 0.645508 21G<6.78906 6.78906 6.78906 103.257 485.522 485.522 485.522 581.989> 161.665 80.5098<186.975 401.767 186.975 429.262 159.517 401.767> 670.315 20G<257.669 331.109 331.109 331.109> 731.058 77.6006<344.974 361.941 344.974 367.528> 767.916 78.5723<226.536 248.875>
LayerCount: 2
Fore
SplineSet
6.7890625 0.6455078125 m 1xe0
 257.668945312 690.315429688 l 1
 331.109375 690.315429688 l 1
 581.989257812 0.6455078125 l 1
 485.522460938 0.6455078125 l 1
 429.26171875 161.665039062 l 1
 159.516601562 161.665039062 l 1
 103.256835938 0.6455078125 l 1
 6.7890625 0.6455078125 l 1xe0
186.974609375 242.174804688 m 1
 401.766601562 242.174804688 l 1
 293.942382812 550.244140625 l 1
 186.974609375 242.174804688 l 1
241.525390625 846.48828125 m 0xe8
 260.047851562 846.48828125 273.966796875 842.866210938 304.80859375 825.73046875 c 0
 331.374023438 809.791015625 339.783203125 808.658203125 350.165039062 808.658203125 c 0
 373.717773438 808.658203125 383.119140625 818.505859375 424.370117188 861.719726562 c 1
 424.370117188 773.342773438 l 1
 413.868164062 761.19921875 387.80078125 731.057617188 347.254882812 731.057617188 c 0xf0
 326.2734375 731.057617188 312.084960938 735.38671875 281.744140625 752.952148438 c 0
 281.37109375 753.200195312 258.166015625 767.916015625 239.583984375 767.916015625 c 0
 213.487304688 767.916015625 203.916992188 757.387695312 164.409179688 713.927734375 c 1
 164.409179688 803.180664062 l 1
 183.029296875 825.087890625 204.3515625 846.48828125 241.525390625 846.48828125 c 0xe8
EndSplineSet
EndChar

StartChar: Adieresis
Encoding: 196 196 133
Width: 578
GlyphClass: 2
Flags: MW
HStem: 0.645508 21G<6.78906 6.78906 6.78906 103.257 485.522 485.522 485.522 581.989> 161.665 80.5098<186.975 401.767 186.975 429.262 159.517 401.767> 670.315 20G<257.669 331.109 331.109 331.109> 738.815 103.79<164.409 258.499 164.409 258.499 164.409 330.279 330.279 424.369>
VStem: 164.409 94.0898<738.815 842.605 738.815 842.605> 330.279 94.0898<738.815 842.605 738.815 842.605>
LayerCount: 2
Fore
SplineSet
6.7890625 0.6455078125 m 1
 257.668945312 690.315429688 l 1
 331.109375 690.315429688 l 1
 581.989257812 0.6455078125 l 1
 485.522460938 0.6455078125 l 1
 429.26171875 161.665039062 l 1
 159.516601562 161.665039062 l 1
 103.256835938 0.6455078125 l 1
 6.7890625 0.6455078125 l 1
186.974609375 242.174804688 m 1
 401.766601562 242.174804688 l 1
 293.942382812 550.244140625 l 1
 186.974609375 242.174804688 l 1
164.409179688 842.60546875 m 1
 258.499023438 842.60546875 l 1
 258.499023438 738.815429688 l 1
 164.409179688 738.815429688 l 1
 164.409179688 842.60546875 l 1
330.279296875 842.60546875 m 1
 424.369140625 842.60546875 l 1
 424.369140625 738.815429688 l 1
 330.279296875 738.815429688 l 1
 330.279296875 842.60546875 l 1
EndSplineSet
EndChar

StartChar: Aring
Encoding: 197 197 134
Width: 578
GlyphClass: 2
Flags: MW
HStem: 0.645508 21G<6.78223 103.257 6.78223 6.78223 485.522 581.996 485.522 485.522> 161.665 80.5107<186.975 401.767 186.975 429.262 159.517 401.767> 804.775 57.2295<289.026 300.722>
VStem: 196.419 58.2002<756.298 768.857 756.298 791.136> 335.129 58.2002<756.299 768.861>
LayerCount: 2
Fore
SplineSet
393.329101562 762.580078125 m 0
 393.329101562 718.578125 366.587890625 686.868164062 336.940429688 673.328125 c 1
 581.99609375 0.6455078125 l 1
 485.522460938 0.6455078125 l 1
 429.26171875 161.665039062 l 1
 159.516601562 161.665039062 l 1
 103.256835938 0.6455078125 l 1
 6.7822265625 0.6455078125 l 1
 251.83984375 673.333984375 l 1
 236.752929688 680.25 224.080078125 690.8671875 214.267578125 704.841796875 c 0
 202.390625 721.759765625 196.418945312 741.254882812 196.418945312 762.580078125 c 0
 196.418945312 819.692382812 236.681640625 862.004882812 294.874023438 862.004882812 c 0
 322.465820312 862.004882812 346.3828125 852.54296875 365.125 833.80078125 c 0
 383.920898438 815.004882812 393.329101562 790.74609375 393.329101562 762.580078125 c 0
294.874023438 721.356445312 m 0
 306.666015625 721.356445312 315.745117188 725.103515625 323.563476562 732.921875 c 0
 331.288085938 740.645507812 335.12890625 750.016601562 335.12890625 762.581054688 c 0
 335.12890625 775.141601562 331.276367188 784.752929688 323.446289062 792.844726562 c 0
 315.598632812 800.953125 306.5703125 804.775390625 294.874023438 804.775390625 c 0
 283.177734375 804.775390625 274.150390625 800.953125 266.302734375 792.844726562 c 0
 258.46875 784.745117188 254.619140625 775.133789062 254.619140625 762.580078125 c 0
 254.619140625 750.015625 258.4609375 740.64453125 266.184570312 732.920898438 c 0
 274.002929688 725.102539062 283.08203125 721.356445312 294.874023438 721.356445312 c 0
186.974609375 242.17578125 m 1
 401.766601562 242.17578125 l 1
 293.942382812 550.245117188 l 1
 186.974609375 242.17578125 l 1
300.694335938 680.130859375 m 1024
EndSplineSet
EndChar

StartChar: AE
Encoding: 198 198 135
Width: 860
GlyphClass: 2
Flags: MW
HStem: 0.645508 84.3896<507.789 818.189 507.789 818.189> 166.515 80.5107<237.269 416.609 237.269 416.609 193.291 416.609> 309.105 84.3896<507.789 768.72 507.789 768.72> 605.925 84.3906<507.789 818.189 507.789 507.789>
VStem: 416.609 91.1797<85.0352 166.515 166.515 166.515 247.025 309.105 393.495 578.763 578.763 578.763>
LayerCount: 2
Fore
SplineSet
4.2060546875 0.6455078125 m 1
 379.02734375 690.315429688 l 1
 818.189453125 690.315429688 l 1
 818.189453125 605.924804688 l 1
 507.7890625 605.924804688 l 1
 507.7890625 393.495117188 l 1
 768.719726562 393.495117188 l 1
 768.719726562 309.10546875 l 1
 507.7890625 309.10546875 l 1
 507.7890625 85.03515625 l 1
 818.189453125 85.03515625 l 1
 818.189453125 0.6455078125 l 1
 416.609375 0.6455078125 l 1
 416.609375 166.514648438 l 1
 193.291015625 166.514648438 l 1
 104.05078125 0.6455078125 l 1
 4.2060546875 0.6455078125 l 1
416.609375 247.025390625 m 1
 416.609375 578.762695312 l 1
 237.268554688 247.025390625 l 1
 416.609375 247.025390625 l 1
EndSplineSet
EndChar

StartChar: Ccedilla
Encoding: 199 199 136
Width: 610
GlyphClass: 2
Flags: MW
HStem: 614.654 84.3906<288.382 337.65>
VStem: 68.3779 91.1807<259.151 429.87> 461.229 89.2402<207.741 221.806 179.591 221.806>
LayerCount: 2
Fore
SplineSet
314.2734375 699.044921875 m 0
 458.416015625 699.044921875 552.409179688 613.580078125 552.409179688 484.190429688 c 2
 552.409179688 471.094726562 l 1
 461.232421875 471.094726562 l 1
 461.232421875 484.189453125 l 2
 461.232421875 525.23828125 448.1953125 556.318359375 422.423828125 579.423828125 c 0
 396.591796875 602.583984375 361.02734375 614.654296875 314.2734375 614.654296875 c 0
 262.491210938 614.654296875 224.7890625 600.150390625 199.043945312 572.333984375 c 0
 173.607421875 544.852539062 159.55859375 497.890625 159.55859375 429.870117188 c 2
 159.55859375 255.270507812 l 2
 159.55859375 111.739257812 234.268554688 78.2451171875 315.243164062 78.2451171875 c 0
 362.028320312 78.2451171875 397.430664062 90.177734375 422.9140625 112.994140625 c 0
 448.329101562 135.75 461.228515625 166.657226562 461.228515625 207.741210938 c 2
 461.228515625 221.805664062 l 1
 550.46875 221.805664062 l 1
 550.46875 207.741210938 l 2
 550.46875 151.440429688 534.227539062 103.977539062 501.368164062 66.6689453125 c 0
 469.76953125 30.7919921875 426.74609375 7.96484375 373.458007812 -2.0166015625 c 1
 326.498046875 -144.853515625 l 1
 235.383789062 -144.853515625 l 1
 289.005859375 -6.4130859375 l 1
 224.965820312 -1.955078125 172.34765625 20.185546875 132.444335938 60.4052734375 c 0
 89.033203125 104.161132812 68.3779296875 171.045898438 68.3779296875 259.151367188 c 2
 68.3779296875 432.78125 l 2
 68.3779296875 522.85546875 90.033203125 590.8359375 135.524414062 634.604492188 c 0
 180.409179688 677.788085938 240.533203125 699.044921875 314.2734375 699.044921875 c 0
EndSplineSet
EndChar

StartChar: Egrave
Encoding: 200 200 137
Width: 549
GlyphClass: 2
Flags: MW
HStem: 0.645508 84.3896<173.14 508.759 173.14 508.759> 309.105 84.3896<173.14 460.259 173.14 460.259> 605.925 84.3906<173.14 508.759 173.14 173.14>
VStem: 81.959 91.1807<85.0352 85.0352 85.0352 309.105 393.495 605.925>
LayerCount: 2
Fore
SplineSet
173.139648438 85.03515625 m 1
 508.758789062 85.03515625 l 1
 508.758789062 0.6455078125 l 1
 81.958984375 0.6455078125 l 1
 81.958984375 690.315429688 l 1
 508.758789062 690.315429688 l 1
 508.758789062 605.924804688 l 1
 173.139648438 605.924804688 l 1
 173.139648438 393.495117188 l 1
 460.258789062 393.495117188 l 1
 460.258789062 309.10546875 l 1
 173.139648438 309.10546875 l 1
 173.139648438 85.03515625 l 1
140.03125 874.615234375 m 1
 250.328125 874.615234375 l 1
 362.491210938 732.995117188 l 1
 275.986328125 732.995117188 l 1
 140.03125 874.615234375 l 1
EndSplineSet
EndChar

StartChar: Eacute
Encoding: 201 201 138
Width: 549
GlyphClass: 2
Flags: MW
HStem: 0.645508 84.3896<173.14 508.759 173.14 508.759> 309.105 84.3896<173.14 460.259 173.14 460.259> 605.925 84.3906<173.14 508.759 173.14 173.14>
VStem: 81.959 91.1807<85.0352 85.0352 85.0352 309.105 393.495 605.925>
LayerCount: 2
Fore
SplineSet
173.139648438 85.03515625 m 1
 508.758789062 85.03515625 l 1
 508.758789062 0.6455078125 l 1
 81.958984375 0.6455078125 l 1
 81.958984375 690.315429688 l 1
 508.758789062 690.315429688 l 1
 508.758789062 605.924804688 l 1
 173.139648438 605.924804688 l 1
 173.139648438 393.495117188 l 1
 460.258789062 393.495117188 l 1
 460.258789062 309.10546875 l 1
 173.139648438 309.10546875 l 1
 173.139648438 85.03515625 l 1
414.797851562 874.615234375 m 1
 278.842773438 732.995117188 l 1
 192.336914062 732.995117188 l 1
 304.5 874.615234375 l 1
 414.797851562 874.615234375 l 1
EndSplineSet
EndChar

StartChar: Ecircumflex
Encoding: 202 202 139
Width: 549
GlyphClass: 2
Flags: MW
HStem: 0.645508 84.3896<173.14 508.759 173.14 508.759> 309.105 84.3896<173.14 460.259 173.14 460.259> 605.925 84.3906<173.14 508.759 173.14 173.14>
VStem: 81.959 91.1807<85.0352 85.0352 85.0352 309.105 393.495 605.925>
LayerCount: 2
Fore
SplineSet
173.139648438 85.03515625 m 1
 508.758789062 85.03515625 l 1
 508.758789062 0.6455078125 l 1
 81.958984375 0.6455078125 l 1
 81.958984375 690.315429688 l 1
 508.758789062 690.315429688 l 1
 508.758789062 605.924804688 l 1
 173.139648438 605.924804688 l 1
 173.139648438 393.495117188 l 1
 460.258789062 393.495117188 l 1
 460.258789062 309.10546875 l 1
 173.139648438 309.10546875 l 1
 173.139648438 85.03515625 l 1
317.454101562 883.344726562 m 1
 436.379882812 723.294921875 l 1
 350.92578125 723.294921875 l 1
 286.088867188 808.84375 l 1
 220.350585938 723.294921875 l 1
 134.938476562 723.294921875 l 1
 253.865234375 883.344726562 l 1
 317.454101562 883.344726562 l 1
EndSplineSet
EndChar

StartChar: Edieresis
Encoding: 203 203 140
Width: 549
GlyphClass: 2
Flags: MW
HStem: 0.645508 84.3896<173.14 508.759 173.14 508.759> 309.105 84.3896<173.14 460.259 173.14 460.259> 605.925 84.3906<173.14 508.759 173.14 173.14> 738.815 103.79<155.68 249.77 155.68 249.77 155.68 321.549 321.549 415.64>
VStem: 81.959 91.1807<85.0352 85.0352 85.0352 309.105 393.495 605.925> 155.68 94.0898<738.815 842.605 738.815 842.605> 321.549 94.0908<738.815 842.605 738.815 842.605>
LayerCount: 2
Fore
SplineSet
173.139648438 85.03515625 m 1xfa
 508.758789062 85.03515625 l 1
 508.758789062 0.6455078125 l 1
 81.958984375 0.6455078125 l 1
 81.958984375 690.315429688 l 1
 508.758789062 690.315429688 l 1
 508.758789062 605.924804688 l 1
 173.139648438 605.924804688 l 1
 173.139648438 393.495117188 l 1
 460.258789062 393.495117188 l 1
 460.258789062 309.10546875 l 1
 173.139648438 309.10546875 l 1
 173.139648438 85.03515625 l 1xfa
155.6796875 842.60546875 m 1xf6
 249.76953125 842.60546875 l 1
 249.76953125 738.815429688 l 1
 155.6796875 738.815429688 l 1
 155.6796875 842.60546875 l 1xf6
321.548828125 842.60546875 m 1
 415.639648438 842.60546875 l 1
 415.639648438 738.815429688 l 1
 321.548828125 738.815429688 l 1
 321.548828125 842.60546875 l 1
EndSplineSet
EndChar

StartChar: Igrave
Encoding: 204 204 141
Width: 258
GlyphClass: 2
Flags: MW
HStem: 0.645508 21G<89.7197 180.899 89.7197 89.7197> 670.315 20G<89.7197 180.899 180.899 180.899>
VStem: 89.7197 91.1797<0.645508 690.315 0.645508 690.315>
LayerCount: 2
Fore
SplineSet
89.7197265625 690.315429688 m 1
 180.899414062 690.315429688 l 1
 180.899414062 0.6455078125 l 1
 89.7197265625 0.6455078125 l 1
 89.7197265625 690.315429688 l 1
-10.3193359375 874.615234375 m 1
 99.978515625 874.615234375 l 1
 212.141601562 732.995117188 l 1
 125.635742188 732.995117188 l 1
 -10.3193359375 874.615234375 l 1
EndSplineSet
EndChar

StartChar: Iacute
Encoding: 205 205 142
Width: 258
GlyphClass: 2
Flags: MW
HStem: 0.645508 21G<89.7197 180.899 89.7197 89.7197> 670.315 20G<89.7197 180.899 180.899 180.899>
VStem: 89.7197 91.1797<0.645508 690.315 0.645508 690.315>
LayerCount: 2
Fore
SplineSet
89.7197265625 690.315429688 m 1
 180.899414062 690.315429688 l 1
 180.899414062 0.6455078125 l 1
 89.7197265625 0.6455078125 l 1
 89.7197265625 690.315429688 l 1
154.150390625 874.615234375 m 1
 264.448242188 874.615234375 l 1
 128.4921875 732.995117188 l 1
 41.9873046875 732.995117188 l 1
 154.150390625 874.615234375 l 1
EndSplineSet
EndChar

StartChar: Icircumflex
Encoding: 206 206 143
Width: 258
GlyphClass: 2
Flags: MW
HStem: 0.645508 21G<89.7197 180.899 89.7197 89.7197> 670.315 20G<89.7197 180.899 180.899 180.899>
VStem: 89.7197 91.1797<0.645508 690.315 0.645508 690.315>
LayerCount: 2
Fore
SplineSet
89.7197265625 690.315429688 m 1
 180.899414062 690.315429688 l 1
 180.899414062 0.6455078125 l 1
 89.7197265625 0.6455078125 l 1
 89.7197265625 690.315429688 l 1
103.514648438 883.344726562 m 1
 167.103515625 883.344726562 l 1
 286.029296875 723.294921875 l 1
 200.575195312 723.294921875 l 1
 135.73828125 808.84375 l 1
 70.0009765625 723.294921875 l 1
 -15.4111328125 723.294921875 l 1
 103.514648438 883.344726562 l 1
EndSplineSet
EndChar

StartChar: Idieresis
Encoding: 207 207 144
Width: 258
GlyphClass: 2
Flags: MW
HStem: 0.645508 21G<89.7197 180.899 89.7197 89.7197> 670.315 20G<89.7197 180.899 180.899 180.899> 738.815 103.79<5.3291 99.4189 5.3291 99.4189 5.3291 171.199 171.199 265.289>
VStem: 5.3291 94.0898<738.815 842.605 738.815 842.605> 89.7197 91.1797<0.645508 690.315 0.645508 690.315> 171.199 94.0898<738.815 842.605 738.815 842.605>
LayerCount: 2
Fore
SplineSet
89.7197265625 690.315429688 m 1xe8
 180.899414062 690.315429688 l 1
 180.899414062 0.6455078125 l 1
 89.7197265625 0.6455078125 l 1
 89.7197265625 690.315429688 l 1xe8
5.3291015625 842.60546875 m 1xf0
 99.4189453125 842.60546875 l 1
 99.4189453125 738.815429688 l 1
 5.3291015625 738.815429688 l 1
 5.3291015625 842.60546875 l 1xf0
171.19921875 842.60546875 m 1xe4
 265.2890625 842.60546875 l 1
 265.2890625 738.815429688 l 1
 171.19921875 738.815429688 l 1
 171.19921875 842.60546875 l 1xe4
EndSplineSet
EndChar

StartChar: Eth
Encoding: 208 208 145
Width: 668
GlyphClass: 2
Flags: MW
HStem: 0.645508 84.3887<220.669 367.624> 307.164 84.3896<220.669 356.47 220.669 356.47> 605.924 84.3916<220.669 367.624 367.624 368.595 220.669 220.669>
VStem: 128.52 92.1494<85.0342 307.164 85.0342 307.165 85.0342 307.165 391.555 605.924> 517.489 92.1504<263.029 266.909 266.909 421.139 421.139 424.049>
LayerCount: 2
Fore
SplineSet
609.639648438 424.048828125 m 2
 609.639648438 266.909179688 l 2
 609.639648438 176.875976562 588.510742188 108.956054688 544.033203125 65.16796875 c 0
 500.104492188 21.9208984375 440.734375 0.6455078125 367.624023438 0.6455078125 c 2
 128.51953125 0.6455078125 l 1
 128.51953125 307.165039062 l 1
 41.2197265625 307.165039062 l 1
 41.2197265625 391.5546875 l 1
 128.51953125 391.5546875 l 1
 128.51953125 690.315429688 l 1
 367.624023438 690.315429688 l 2
 440.734375 690.315429688 500.104492188 669.0390625 544.033203125 625.791992188 c 0
 588.510742188 582.002929688 609.639648438 514.08203125 609.639648438 424.048828125 c 2
368.594726562 85.0341796875 m 2
 441.666015625 85.0341796875 517.489257812 114.586914062 517.489257812 263.029296875 c 2
 517.489257812 421.138671875 l 2
 517.489257812 487.841796875 503.793945312 534.598632812 478.822265625 562.801757812 c 0
 453.614257812 591.272460938 417.604492188 605.923828125 368.594726562 605.923828125 c 2
 220.668945312 605.923828125 l 1
 220.668945312 391.553710938 l 1
 356.469726562 391.553710938 l 1
 356.469726562 307.1640625 l 1
 220.668945312 307.1640625 l 1
 220.668945312 85.0341796875 l 1
 368.594726562 85.0341796875 l 2
EndSplineSet
EndChar

StartChar: Ntilde
Encoding: 209 209 146
Width: 662
GlyphClass: 2
Flags: MW
HStem: 0.645508 21G<81.959 173.14 81.959 81.959 503.681 590.239 503.681 503.681> 670.315 20G<81.959 168.507 168.507 168.507 499.06 590.239 590.239 590.239> 731.058 77.6006<385.713 402.681 385.713 408.267> 767.916 78.5723<267.276 289.615>
VStem: 81.959 91.1807<0.645508 515.438 0.645508 690.315> 499.06 91.1797<177.357 690.315 0.645508 690.315>
LayerCount: 2
Fore
SplineSet
590.239257812 690.315429688 m 1xcc
 590.239257812 0.6455078125 l 1
 503.680664062 0.6455078125 l 1
 173.139648438 515.4375 l 1
 173.139648438 0.6455078125 l 1
 81.958984375 0.6455078125 l 1
 81.958984375 690.315429688 l 1
 168.506835938 690.315429688 l 1
 499.059570312 177.357421875 l 1
 499.059570312 690.315429688 l 1
 590.239257812 690.315429688 l 1xcc
282.263671875 846.48828125 m 0xdc
 300.787109375 846.48828125 314.706054688 842.865234375 345.547851562 825.73046875 c 0
 372.11328125 809.791015625 380.522460938 808.658203125 390.904296875 808.658203125 c 0
 414.45703125 808.658203125 423.858398438 818.505859375 465.109375 861.719726562 c 1
 465.109375 773.342773438 l 1
 454.607421875 761.19921875 428.540039062 731.057617188 387.994140625 731.057617188 c 0xec
 367.129882812 731.057617188 352.975585938 735.297851562 322.483398438 752.952148438 c 0
 322.111328125 753.200195312 298.90625 767.916015625 280.32421875 767.916015625 c 0
 254.227539062 767.916015625 244.657226562 757.387695312 205.149414062 713.927734375 c 1
 205.149414062 803.180664062 l 1
 223.768554688 825.086914062 245.087890625 846.48828125 282.263671875 846.48828125 c 0xdc
EndSplineSet
EndChar

StartChar: Ograve
Encoding: 210 210 147
Width: 610
GlyphClass: 2
Flags: MW
HStem: -7.11523 85.3613<285.784 346.64> 614.657 84.3867<285.479 347.032>
VStem: 68.3799 91.1807<259.15 429.871> 461.23 91.1787<255.271 259.149 259.149 429.872 429.872 432.779>
LayerCount: 2
Fore
SplineSet
68.3798828125 259.150390625 m 2
 68.3798828125 432.780273438 l 2
 68.3798828125 522.827148438 89.6845703125 590.767578125 134.5 634.548828125 c 0
 178.740234375 677.768554688 238.251953125 699.043945312 311.364257812 699.043945312 c 0
 383.852539062 699.043945312 442.89453125 677.748046875 486.802734375 634.520507812 c 0
 531.28125 590.732421875 552.409179688 522.811523438 552.409179688 432.779296875 c 2
 552.409179688 259.149414062 l 2
 552.409179688 169.102539062 531.10546875 101.162109375 486.290039062 57.3798828125 c 0
 442.069335938 14.1806640625 382.884765625 -7.115234375 310.39453125 -7.115234375 c 0
 237.284179688 -7.115234375 177.9140625 14.1611328125 133.985351562 57.408203125 c 0
 89.5078125 101.196289062 68.3798828125 169.1171875 68.3798828125 259.150390625 c 2
311.365234375 78.24609375 m 0
 385.869140625 78.24609375 461.23046875 108.504882812 461.23046875 255.270507812 c 2
 461.23046875 429.872070312 l 2
 461.23046875 585.98828125 382.69921875 614.657226562 311.365234375 614.657226562 c 0
 259.592773438 614.657226562 222.494140625 600.013671875 197.747070312 572.025390625 c 0
 173.135742188 544.190429688 159.560546875 497.263671875 159.560546875 429.87109375 c 2
 159.560546875 255.270507812 l 2
 159.560546875 191.206054688 173.211914062 146.5078125 198.08203125 119.588867188 c 0
 223.15625 92.44921875 260.202148438 78.24609375 311.365234375 78.24609375 c 0
164.28125 874.6171875 m 1
 274.579101562 874.6171875 l 1
 386.7421875 732.997070312 l 1
 300.237304688 732.997070312 l 1
 164.28125 874.6171875 l 1
EndSplineSet
EndChar

StartChar: Oacute
Encoding: 211 211 148
Width: 610
GlyphClass: 2
Flags: MW
HStem: -7.11523 85.3613<285.784 346.64> 614.657 84.3867<285.479 347.032>
VStem: 68.3799 91.1807<259.15 429.871> 461.23 91.1787<255.271 259.149 259.149 429.872 429.872 432.779>
LayerCount: 2
Fore
SplineSet
68.3798828125 259.150390625 m 2
 68.3798828125 432.780273438 l 2
 68.3798828125 522.827148438 89.6845703125 590.767578125 134.5 634.548828125 c 0
 178.740234375 677.768554688 238.251953125 699.043945312 311.364257812 699.043945312 c 0
 383.852539062 699.043945312 442.89453125 677.748046875 486.802734375 634.520507812 c 0
 531.28125 590.732421875 552.409179688 522.811523438 552.409179688 432.779296875 c 2
 552.409179688 259.149414062 l 2
 552.409179688 169.102539062 531.10546875 101.162109375 486.290039062 57.3798828125 c 0
 442.069335938 14.1806640625 382.884765625 -7.115234375 310.39453125 -7.115234375 c 0
 237.284179688 -7.115234375 177.9140625 14.1611328125 133.985351562 57.408203125 c 0
 89.5078125 101.196289062 68.3798828125 169.1171875 68.3798828125 259.150390625 c 2
311.365234375 78.24609375 m 0
 385.869140625 78.24609375 461.23046875 108.504882812 461.23046875 255.270507812 c 2
 461.23046875 429.872070312 l 2
 461.23046875 585.98828125 382.69921875 614.657226562 311.365234375 614.657226562 c 0
 259.592773438 614.657226562 222.494140625 600.013671875 197.747070312 572.025390625 c 0
 173.135742188 544.190429688 159.560546875 497.263671875 159.560546875 429.87109375 c 2
 159.560546875 255.270507812 l 2
 159.560546875 191.206054688 173.211914062 146.5078125 198.08203125 119.588867188 c 0
 223.15625 92.44921875 260.202148438 78.24609375 311.365234375 78.24609375 c 0
328.750976562 874.6171875 m 1
 439.048828125 874.6171875 l 1
 303.09375 732.997070312 l 1
 216.587890625 732.997070312 l 1
 328.750976562 874.6171875 l 1
EndSplineSet
EndChar

StartChar: Ocircumflex
Encoding: 212 212 149
Width: 610
GlyphClass: 2
Flags: MW
HStem: -7.11523 85.3613<285.784 346.64> 614.657 84.3867<285.479 347.032>
VStem: 68.3799 91.1807<259.15 429.871> 461.23 91.1787<255.271 259.149 259.149 429.872 429.872 432.779>
LayerCount: 2
Fore
SplineSet
68.3798828125 259.150390625 m 2
 68.3798828125 432.780273438 l 2
 68.3798828125 522.827148438 89.6845703125 590.767578125 134.5 634.548828125 c 0
 178.740234375 677.768554688 238.251953125 699.043945312 311.364257812 699.043945312 c 0
 383.852539062 699.043945312 442.89453125 677.748046875 486.802734375 634.520507812 c 0
 531.28125 590.732421875 552.409179688 522.811523438 552.409179688 432.779296875 c 2
 552.409179688 259.149414062 l 2
 552.409179688 169.102539062 531.10546875 101.162109375 486.290039062 57.3798828125 c 0
 442.069335938 14.1806640625 382.884765625 -7.115234375 310.39453125 -7.115234375 c 0
 237.284179688 -7.115234375 177.9140625 14.1611328125 133.985351562 57.408203125 c 0
 89.5078125 101.196289062 68.3798828125 169.1171875 68.3798828125 259.150390625 c 2
311.365234375 78.24609375 m 0
 385.869140625 78.24609375 461.23046875 108.504882812 461.23046875 255.270507812 c 2
 461.23046875 429.872070312 l 2
 461.23046875 585.98828125 382.69921875 614.657226562 311.365234375 614.657226562 c 0
 259.592773438 614.657226562 222.494140625 600.013671875 197.747070312 572.025390625 c 0
 173.135742188 544.190429688 159.560546875 497.263671875 159.560546875 429.87109375 c 2
 159.560546875 255.270507812 l 2
 159.560546875 191.206054688 173.211914062 146.5078125 198.08203125 119.588867188 c 0
 223.15625 92.44921875 260.202148438 78.24609375 311.365234375 78.24609375 c 0
341.705078125 883.346679688 m 1
 460.630859375 723.296875 l 1
 375.176757812 723.296875 l 1
 310.338867188 808.845703125 l 1
 244.6015625 723.296875 l 1
 159.189453125 723.296875 l 1
 278.116210938 883.346679688 l 1
 341.705078125 883.346679688 l 1
EndSplineSet
EndChar

StartChar: Otilde
Encoding: 213 213 150
Width: 610
GlyphClass: 2
Flags: MW
HStem: -7.11523 85.3613<285.784 346.64> 614.657 84.3867<285.479 347.032> 731.06 77.6006<360.495 377.462 360.495 383.048> 767.918 78.5723<242.057 264.396>
VStem: 68.3799 91.1807<259.15 429.871> 461.23 91.1787<255.271 259.149 259.149 429.872 429.872 432.779>
LayerCount: 2
Fore
SplineSet
68.3798828125 259.150390625 m 2xcc
 68.3798828125 432.780273438 l 2
 68.3798828125 522.827148438 89.6845703125 590.767578125 134.5 634.548828125 c 0
 178.740234375 677.768554688 238.251953125 699.043945312 311.364257812 699.043945312 c 0
 383.852539062 699.043945312 442.89453125 677.748046875 486.802734375 634.520507812 c 0
 531.28125 590.732421875 552.409179688 522.811523438 552.409179688 432.779296875 c 2
 552.409179688 259.149414062 l 2
 552.409179688 169.102539062 531.10546875 101.162109375 486.290039062 57.3798828125 c 0
 442.069335938 14.1806640625 382.884765625 -7.115234375 310.39453125 -7.115234375 c 0
 237.284179688 -7.115234375 177.9140625 14.1611328125 133.985351562 57.408203125 c 0
 89.5078125 101.196289062 68.3798828125 169.1171875 68.3798828125 259.150390625 c 2xcc
311.365234375 78.24609375 m 0
 385.869140625 78.24609375 461.23046875 108.504882812 461.23046875 255.270507812 c 2
 461.23046875 429.872070312 l 2
 461.23046875 585.98828125 382.69921875 614.657226562 311.365234375 614.657226562 c 0
 259.592773438 614.657226562 222.494140625 600.013671875 197.747070312 572.025390625 c 0
 173.135742188 544.190429688 159.560546875 497.263671875 159.560546875 429.87109375 c 2
 159.560546875 255.270507812 l 2
 159.560546875 191.206054688 173.211914062 146.5078125 198.08203125 119.588867188 c 0
 223.15625 92.44921875 260.202148438 78.24609375 311.365234375 78.24609375 c 0
257.043945312 846.490234375 m 0xdc
 275.567382812 846.490234375 289.487304688 842.8671875 320.329101562 825.732421875 c 0
 346.89453125 809.79296875 355.303710938 808.66015625 365.685546875 808.66015625 c 0
 389.23828125 808.66015625 398.638671875 818.5078125 439.890625 861.721679688 c 1
 439.890625 773.34375 l 1
 429.387695312 761.201171875 403.321289062 731.059570312 362.775390625 731.059570312 c 0xec
 341.911132812 731.059570312 327.755859375 735.299804688 297.264648438 752.954101562 c 0
 296.892578125 753.202148438 273.6875 767.91796875 255.10546875 767.91796875 c 0
 229.008789062 767.91796875 219.4375 757.389648438 179.930664062 713.9296875 c 1
 179.930664062 803.182617188 l 1
 198.549804688 825.087890625 219.868164062 846.490234375 257.043945312 846.490234375 c 0xdc
EndSplineSet
EndChar

StartChar: Odieresis
Encoding: 214 214 151
Width: 610
GlyphClass: 2
Flags: MW
HStem: -7.11523 85.3613<285.784 346.64> 614.657 84.3867<285.479 347.032> 738.817 103.789<179.931 274.021 179.931 274.021 179.931 345.8 345.8 439.891>
VStem: 68.3799 91.1807<259.15 429.871> 179.931 94.0898<738.817 842.606 738.817 842.606> 345.8 94.0908<738.817 842.606 738.817 842.606> 461.23 91.1787<255.271 259.149 259.149 429.872 429.872 432.779>
LayerCount: 2
Fore
SplineSet
68.3798828125 259.150390625 m 2
 68.3798828125 432.780273438 l 2
 68.3798828125 522.827148438 89.6845703125 590.767578125 134.5 634.548828125 c 0
 178.740234375 677.768554688 238.251953125 699.043945312 311.364257812 699.043945312 c 0
 383.852539062 699.043945312 442.89453125 677.748046875 486.802734375 634.520507812 c 0
 531.28125 590.732421875 552.409179688 522.811523438 552.409179688 432.779296875 c 2
 552.409179688 259.149414062 l 2
 552.409179688 169.102539062 531.10546875 101.162109375 486.290039062 57.3798828125 c 0
 442.069335938 14.1806640625 382.884765625 -7.115234375 310.39453125 -7.115234375 c 0
 237.284179688 -7.115234375 177.9140625 14.1611328125 133.985351562 57.408203125 c 0
 89.5078125 101.196289062 68.3798828125 169.1171875 68.3798828125 259.150390625 c 2
311.365234375 78.24609375 m 0
 385.869140625 78.24609375 461.23046875 108.504882812 461.23046875 255.270507812 c 2
 461.23046875 429.872070312 l 2
 461.23046875 585.98828125 382.69921875 614.657226562 311.365234375 614.657226562 c 0
 259.592773438 614.657226562 222.494140625 600.013671875 197.747070312 572.025390625 c 0
 173.135742188 544.190429688 159.560546875 497.263671875 159.560546875 429.87109375 c 2
 159.560546875 255.270507812 l 2
 159.560546875 191.206054688 173.211914062 146.5078125 198.08203125 119.588867188 c 0
 223.15625 92.44921875 260.202148438 78.24609375 311.365234375 78.24609375 c 0
179.930664062 842.606445312 m 1
 274.020507812 842.606445312 l 1
 274.020507812 738.817382812 l 1
 179.930664062 738.817382812 l 1
 179.930664062 842.606445312 l 1
345.799804688 842.606445312 m 1
 439.890625 842.606445312 l 1
 439.890625 738.817382812 l 1
 345.799804688 738.817382812 l 1
 345.799804688 842.606445312 l 1
EndSplineSet
EndChar

StartChar: multiply
Encoding: 215 215 152
Width: 515
GlyphClass: 2
Flags: W
LayerCount: 2
Fore
SplineSet
262.864257812 221.46875 m 1
 143.5546875 102.159179688 l 1
 86.501953125 159.2109375 l 1
 205.8125 279.491210938 l 1
 86.4736328125 398.830078125 l 1
 143.5546875 455.911132812 l 1
 262.864257812 336.600585938 l 1
 382.09375 455.830078125 l 1
 440.306640625 398.911132812 l 1
 320.885742188 279.491210938 l 1
 440.276367188 159.129882812 l 1
 382.09375 102.239257812 l 1
 262.864257812 221.46875 l 1
EndSplineSet
EndChar

StartChar: Oslash
Encoding: 216 216 153
Width: 610
GlyphClass: 2
Flags: MW
HStem: -7.11426 85.3604<289.886 346.64> 614.656 84.3887<285.478 332.271>
VStem: 68.3789 91.1807<259.151 429.87> 461.229 91.1797<255.271 259.15 259.15 429.871 429.871 432.78>
LayerCount: 2
Fore
SplineSet
480.122070312 709.71484375 m 1
 559.872070312 709.71484375 l 1
 503.990234375 612.99609375 l 1
 536.671875 568.384765625 552.409179688 507.998046875 552.409179688 432.780273438 c 2
 552.409179688 259.150390625 l 2
 552.409179688 169.103515625 531.10546875 101.163085938 486.290039062 57.380859375 c 0
 442.069335938 14.181640625 382.884765625 -7.1142578125 310.39453125 -7.1142578125 c 0
 254.046875 -7.1142578125 206.435546875 4.783203125 168.254882812 29.20703125 c 1
 140.721679688 -18.75390625 l 1
 60.9169921875 -18.75390625 l 1
 116.798828125 77.9658203125 l 1
 84.1044921875 122.618164062 68.37890625 183.326171875 68.37890625 259.151367188 c 2
 68.37890625 432.78125 l 2
 68.37890625 522.828125 89.68359375 590.768554688 134.499023438 634.549804688 c 0
 178.739257812 677.76953125 238.250976562 699.044921875 311.36328125 699.044921875 c 0
 367.166015625 699.044921875 414.48046875 687.120117188 452.610351562 662.678710938 c 1
 480.122070312 709.71484375 l 1
159.559570312 429.870117188 m 2
 159.559570312 255.270507812 l 2
 159.559570312 222.19921875 163.336914062 194.185546875 170.577148438 171.203125 c 1
 408.065429688 584.98046875 l 1
 384.955078125 604.461914062 353.176757812 614.65625 311.364257812 614.65625 c 0
 259.591796875 614.65625 222.493164062 600.012695312 197.74609375 572.024414062 c 0
 173.134765625 544.189453125 159.559570312 497.262695312 159.559570312 429.870117188 c 2
311.364257812 78.24609375 m 0
 385.868164062 78.24609375 461.229492188 108.504882812 461.229492188 255.270507812 c 2
 461.229492188 429.87109375 l 2
 461.229492188 464.715820312 457.388671875 494.25390625 450.014648438 518.48828125 c 1
 212.852539062 106.19140625 l 1
 235.981445312 87.9287109375 268.408203125 78.24609375 311.364257812 78.24609375 c 0
EndSplineSet
EndChar

StartChar: Ugrave
Encoding: 217 217 154
Width: 634
GlyphClass: 2
Flags: MW
HStem: -5.1748 83.4199<299.833 345.832 299.833 391.885> 670.315 20G<81.959 174.109 174.109 174.109 471.899 563.079 563.079 563.079>
VStem: 81.959 92.1504<229.08 234.9 234.9 690.315> 471.899 91.1797<234.9 690.315>
LayerCount: 2
Fore
SplineSet
323.00390625 -5.1748046875 m 0
 180.014648438 -5.1748046875 81.958984375 94.7138671875 81.958984375 229.080078125 c 2
 81.958984375 690.315429688 l 1
 174.109375 690.315429688 l 1
 174.109375 234.900390625 l 2
 174.109375 185.734375 187.8046875 148.043945312 214.447265625 120.204101562 c 0
 241.083007812 92.3720703125 276.662109375 78.2451171875 323.00390625 78.2451171875 c 0
 368.659179688 78.2451171875 404.114257812 92.34375 431.116210938 120.245117188 c 0
 458.064453125 148.092773438 471.899414062 185.760742188 471.899414062 234.900390625 c 2
 471.899414062 690.315429688 l 1
 563.079101562 690.315429688 l 1
 563.079101562 229.080078125 l 2
 563.079101562 88.2978515625 460.766601562 -5.1748046875 323.00390625 -5.1748046875 c 0
175.920898438 874.616210938 m 1
 286.217773438 874.616210938 l 1
 398.380859375 732.99609375 l 1
 311.875976562 732.99609375 l 1
 175.920898438 874.616210938 l 1
EndSplineSet
EndChar

StartChar: Uacute
Encoding: 218 218 155
Width: 634
GlyphClass: 2
Flags: MW
HStem: -5.1748 83.4199<299.833 345.832 299.833 391.885> 670.315 20G<81.959 174.109 174.109 174.109 471.899 563.079 563.079 563.079>
VStem: 81.959 92.1504<229.08 234.9 234.9 690.315> 471.899 91.1797<234.9 690.315>
LayerCount: 2
Fore
SplineSet
323.00390625 -5.1748046875 m 0
 180.014648438 -5.1748046875 81.958984375 94.7138671875 81.958984375 229.080078125 c 2
 81.958984375 690.315429688 l 1
 174.109375 690.315429688 l 1
 174.109375 234.900390625 l 2
 174.109375 185.734375 187.8046875 148.043945312 214.447265625 120.204101562 c 0
 241.083007812 92.3720703125 276.662109375 78.2451171875 323.00390625 78.2451171875 c 0
 368.659179688 78.2451171875 404.114257812 92.34375 431.116210938 120.245117188 c 0
 458.064453125 148.092773438 471.899414062 185.760742188 471.899414062 234.900390625 c 2
 471.899414062 690.315429688 l 1
 563.079101562 690.315429688 l 1
 563.079101562 229.080078125 l 2
 563.079101562 88.2978515625 460.766601562 -5.1748046875 323.00390625 -5.1748046875 c 0
340.390625 874.616210938 m 1
 450.6875 874.616210938 l 1
 314.732421875 732.99609375 l 1
 228.227539062 732.99609375 l 1
 340.390625 874.616210938 l 1
EndSplineSet
EndChar

StartChar: Ucircumflex
Encoding: 219 219 156
Width: 634
GlyphClass: 2
Flags: MW
HStem: -5.1748 83.4199<299.833 345.832 299.833 391.885> 670.315 20G<81.959 174.109 174.109 174.109 471.899 563.079 563.079 563.079>
VStem: 81.959 92.1504<229.08 234.9 234.9 690.315> 471.899 91.1797<234.9 690.315>
LayerCount: 2
Fore
SplineSet
323.00390625 -5.1748046875 m 0
 180.014648438 -5.1748046875 81.958984375 94.7138671875 81.958984375 229.080078125 c 2
 81.958984375 690.315429688 l 1
 174.109375 690.315429688 l 1
 174.109375 234.900390625 l 2
 174.109375 185.734375 187.8046875 148.043945312 214.447265625 120.204101562 c 0
 241.083007812 92.3720703125 276.662109375 78.2451171875 323.00390625 78.2451171875 c 0
 368.659179688 78.2451171875 404.114257812 92.34375 431.116210938 120.245117188 c 0
 458.064453125 148.092773438 471.899414062 185.760742188 471.899414062 234.900390625 c 2
 471.899414062 690.315429688 l 1
 563.079101562 690.315429688 l 1
 563.079101562 229.080078125 l 2
 563.079101562 88.2978515625 460.766601562 -5.1748046875 323.00390625 -5.1748046875 c 0
289.754882812 883.345703125 m 1
 353.34375 883.345703125 l 1
 472.26953125 723.295898438 l 1
 386.815429688 723.295898438 l 1
 321.978515625 808.844726562 l 1
 256.241210938 723.295898438 l 1
 170.829101562 723.295898438 l 1
 289.754882812 883.345703125 l 1
EndSplineSet
EndChar

StartChar: Udieresis
Encoding: 220 220 157
Width: 634
GlyphClass: 2
Flags: MW
HStem: -5.1748 83.4199<299.833 345.832 299.833 391.885> 670.315 20G<81.959 174.109 174.109 174.109 471.899 563.079 563.079 563.079> 738.816 103.79<191.569 285.659 191.569 285.659 191.569 357.439 357.439 451.529>
VStem: 81.959 92.1504<229.08 234.9 234.9 690.315> 191.569 94.0898<738.816 842.606 738.816 842.606> 357.439 94.0898<738.816 842.606 738.816 842.606> 471.899 91.1797<234.9 690.315>
LayerCount: 2
Fore
SplineSet
323.00390625 -5.1748046875 m 0
 180.014648438 -5.1748046875 81.958984375 94.7138671875 81.958984375 229.080078125 c 2
 81.958984375 690.315429688 l 1
 174.109375 690.315429688 l 1
 174.109375 234.900390625 l 2
 174.109375 185.734375 187.8046875 148.043945312 214.447265625 120.204101562 c 0
 241.083007812 92.3720703125 276.662109375 78.2451171875 323.00390625 78.2451171875 c 0
 368.659179688 78.2451171875 404.114257812 92.34375 431.116210938 120.245117188 c 0
 458.064453125 148.092773438 471.899414062 185.760742188 471.899414062 234.900390625 c 2
 471.899414062 690.315429688 l 1
 563.079101562 690.315429688 l 1
 563.079101562 229.080078125 l 2
 563.079101562 88.2978515625 460.766601562 -5.1748046875 323.00390625 -5.1748046875 c 0
191.569335938 842.606445312 m 1
 285.659179688 842.606445312 l 1
 285.659179688 738.81640625 l 1
 191.569335938 738.81640625 l 1
 191.569335938 842.606445312 l 1
357.439453125 842.606445312 m 1
 451.529296875 842.606445312 l 1
 451.529296875 738.81640625 l 1
 357.439453125 738.81640625 l 1
 357.439453125 842.606445312 l 1
EndSplineSet
EndChar

StartChar: Yacute
Encoding: 221 221 158
Width: 501
GlyphClass: 2
Flags: MW
HStem: 0.645508 21G<210.97 302.149 210.97 210.97> 670.315 20G<4.63184 104.303 104.303 104.303 408.833 508.468 508.468 508.468>
VStem: 210.97 91.1797<0.645508 288.695 0.645508 289.66 0.645508 289.66>
LayerCount: 2
Fore
SplineSet
508.467773438 690.315429688 m 1
 302.149414062 288.6953125 l 1
 302.149414062 0.6455078125 l 1
 210.969726562 0.6455078125 l 1
 210.969726562 289.66015625 l 1
 4.6318359375 690.315429688 l 1
 104.302734375 690.315429688 l 1
 256.102539062 382.059570312 l 1
 408.833007812 690.315429688 l 1
 508.467773438 690.315429688 l 1
275.400390625 874.615234375 m 1
 385.698242188 874.615234375 l 1
 249.7421875 732.995117188 l 1
 163.237304688 732.995117188 l 1
 275.400390625 874.615234375 l 1
EndSplineSet
EndChar

StartChar: Thorn
Encoding: 222 222 159
Width: 578
GlyphClass: 2
Flags: MW
HStem: 0.645508 21G<81.959 173.14 81.959 81.959> 154.875 84.3896<173.14 317.185 317.185 323.004 173.14 317.185> 484.675 83.4199<173.14 317.185 173.14 323.004> 670.315 20G<81.959 173.14 173.14 173.14>
VStem: 81.959 91.1807<0.645508 154.875 0.645508 239.265 239.265 484.675 568.095 690.315> 452.499 91.1807<337.392 375.874>
LayerCount: 2
Fore
SplineSet
543.6796875 358.08984375 m 0
 543.6796875 295.763671875 523.8125 245.3671875 483.583007812 208.920898438 c 0
 443.478515625 172.586914062 389.458984375 154.875 323.00390625 154.875 c 2
 173.139648438 154.875 l 1
 173.139648438 0.6455078125 l 1
 81.958984375 0.6455078125 l 1
 81.958984375 690.315429688 l 1
 173.139648438 690.315429688 l 1
 173.139648438 568.094726562 l 1
 323.00390625 568.094726562 l 2
 390.096679688 568.094726562 444.323242188 550.2265625 484.13671875 513.501953125 c 0
 524.149414062 476.592773438 543.6796875 424.094726562 543.6796875 358.08984375 c 0
452.499023438 358.08984375 m 0
 452.499023438 393.657226562 447.379882812 484.674804688 317.184570312 484.674804688 c 2
 173.139648438 484.674804688 l 1
 173.139648438 239.264648438 l 1
 317.184570312 239.264648438 l 2
 362.259765625 239.264648438 395.52734375 249.615234375 418.28125 268.868164062 c 0
 440.64453125 287.791015625 452.499023438 316.693359375 452.499023438 358.08984375 c 0
EndSplineSet
EndChar

StartChar: germandbls
Encoding: 223 223 160
Width: 508
GlyphClass: 2
Flags: MW
HStem: -3.23535 80.5098<247.829 283.233 283.233 286.145 247.829 283.233> 381.856 80.5098<246.858 277.413 246.858 283.233> 616.596 80.5107<247.104 293.676 232.679 307.492>
VStem: 77.1084 86.3301<0.645508 501.651 501.651 510.381 0.645508 532.773> 362.288 87.3008<523.734 556.49> 370.048 87.3018<206.933 250.58>
LayerCount: 2
Fore
SplineSet
396.919921875 425.426757812 m 1xf8
 448.850585938 392.834960938 457.349609375 341.513671875 457.349609375 229.080078125 c 0
 457.349609375 171.6953125 453.5078125 127.091796875 445.40625 94.685546875 c 0
 424.703125 11.873046875 357.521484375 -3.2353515625 286.14453125 -3.2353515625 c 2
 247.829101562 -3.2353515625 l 1
 247.829101562 77.2744140625 l 1
 283.233398438 77.2744140625 l 2
 334.166015625 77.2744140625 357.1171875 91.958984375 364.392578125 131.971679688 c 0
 368.0625 152.153320312 370.047851562 184.78515625 370.047851562 229.081054688 c 0xf4
 370.047851562 272.079101562 368.0703125 304.200195312 364.387695312 324.76171875 c 0
 356.715820312 367.598632812 329.247070312 381.856445312 277.413085938 381.856445312 c 2
 246.858398438 381.856445312 l 1
 246.858398438 462.366210938 l 1
 283.233398438 462.366210938 l 2
 313.637695312 462.366210938 333.379882812 469.198242188 344.41796875 480.236328125 c 0
 355.653320312 491.471679688 362.288085938 509.926757812 362.288085938 537.541015625 c 0
 362.288085938 575.438476562 349.209960938 616.595703125 265.7734375 616.595703125 c 0
 228.43359375 616.595703125 203.077148438 607.673828125 187.677734375 592 c 0
 172.329101562 576.376953125 163.438476562 549.795898438 163.438476562 510.380859375 c 2
 163.438476562 0.6455078125 l 1
 77.1083984375 0.6455078125 l 1
 77.1083984375 501.651367188 l 2
 77.1083984375 563.89453125 91.302734375 612.704101562 121.380859375 646.627929688 c 0
 151.908203125 681.059570312 200.553710938 697.106445312 264.8046875 697.106445312 c 0
 322.547851562 697.106445312 368.374023438 683.85546875 400.935546875 655.844726562 c 0
 433.560546875 627.780273438 449.588867188 587.926757812 449.588867188 538.509765625 c 0
 449.588867188 490.744140625 436.106445312 452.299804688 396.919921875 425.426757812 c 1xf8
EndSplineSet
EndChar

